STARTFONT 2.1
COMMENT
COMMENT Converted from OpenType font "ipag.ttf" by "..\otf2bdf.exe 3.0".
COMMENT
FONT -FreeType-IPAGothic-Medium-R-Normal--24-240-72-72-P-209-ISO10646-1
SIZE 24 72 72
FONTBOUNDINGBOX 24 24 0 -3
STARTPROPERTIES 19
FOUNDRY "FreeType"
FAMILY_NAME "IPAGothic"
WEIGHT_NAME "Medium"
SLANT "R"
SETWIDTH_NAME "Normal"
ADD_STYLE_NAME ""
PIXEL_SIZE 24
POINT_SIZE 240
RESOLUTION_X 72
RESOLUTION_Y 72
SPACING "P"
AVERAGE_WIDTH 209
CHARSET_REGISTRY "ISO10646"
CHARSET_ENCODING "1"
FONT_ASCENT 21
FONT_DESCENT 2
COPYRIGHT "Copyright(c) Information-technology Promotion Agency, Japan (IPA), 2003-2011. You must accept "http://ipafont.ipa.go.jp/ipa_font_license_v1.html" to use this product."
_OTF_FONTFILE "ipag.ttf"
_OTF_PSNAME "IPAGothic"
ENDPROPERTIES
CHARS 11158
STARTCHAR 0020
ENCODING 32
SWIDTH 500 0
DWIDTH 12 0
BBX 0 0 0 0
BITMAP
ENDCHAR
STARTCHAR 0021
ENCODING 33
SWIDTH 500 0
DWIDTH 12 0
BBX 3 19 5 0
BITMAP
E0
E0
E0
E0
E0
E0
E0
E0
E0
E0
E0
E0
E0
E0
00
00
E0
E0
E0
ENDCHAR
STARTCHAR 0022
ENCODING 34
SWIDTH 500 0
DWIDTH 12 0
BBX 8 6 2 14
BITMAP
E7
E7
E7
63
42
84
ENDCHAR
STARTCHAR 0023
ENCODING 35
SWIDTH 500 0
DWIDTH 12 0
BBX 10 20 1 -1
BITMAP
1980
1180
1100
1100
1100
7FC0
7FC0
3300
3300
3300
3300
3300
2200
FF80
FF80
2200
2200
6600
6600
6600
ENDCHAR
STARTCHAR 0024
ENCODING 36
SWIDTH 500 0
DWIDTH 12 0
BBX 10 21 1 -1
BITMAP
0C00
0C00
7F00
6D80
CD80
CC80
CC00
EC00
7C00
3C00
0E00
0F80
0D80
0CC0
CCC0
CCC0
CCC0
7F80
3F00
0C00
0C00
ENDCHAR
STARTCHAR 0025
ENCODING 37
SWIDTH 500 0
DWIDTH 12 0
BBX 10 22 1 -2
BITMAP
0040
70C0
7080
D980
8980
8900
8B00
DA00
7600
7400
0C00
0C00
0B80
1B80
16C0
3440
2440
6440
66C0
4380
C380
8000
ENDCHAR
STARTCHAR 0026
ENCODING 38
SWIDTH 500 0
DWIDTH 12 0
BBX 10 17 1 1
BITMAP
1C00
3E00
6300
6300
6300
6300
3600
1C00
3800
6CC0
4CC0
C6C0
C380
C380
E180
7F80
3EC0
ENDCHAR
STARTCHAR 0027
ENCODING 39
SWIDTH 500 0
DWIDTH 12 0
BBX 3 6 2 14
BITMAP
E0
E0
E0
60
40
80
ENDCHAR
STARTCHAR 0028
ENCODING 40
SWIDTH 500 0
DWIDTH 12 0
BBX 6 22 4 -2
BITMAP
0C
18
30
30
60
60
60
C0
C0
C0
C0
C0
C0
C0
C0
60
60
60
30
30
18
0C
ENDCHAR
STARTCHAR 0029
ENCODING 41
SWIDTH 500 0
DWIDTH 12 0
BBX 6 22 2 -2
BITMAP
C0
60
30
30
18
18
18
0C
0C
0C
0C
0C
0C
0C
0C
18
18
18
30
30
60
C0
ENDCHAR
STARTCHAR 002A
ENCODING 42
SWIDTH 500 0
DWIDTH 12 0
BBX 10 12 1 4
BITMAP
0C00
0C00
0C00
CCC0
EDC0
3B00
0C00
3B00
EDC0
CCC0
0C00
0C00
ENDCHAR
STARTCHAR 002B
ENCODING 43
SWIDTH 500 0
DWIDTH 12 0
BBX 10 14 1 2
BITMAP
0C00
0C00
0C00
0C00
0C00
0C00
FFC0
FFC0
0C00
0C00
0C00
0C00
0C00
0C00
ENDCHAR
STARTCHAR 002C
ENCODING 44
SWIDTH 500 0
DWIDTH 12 0
BBX 3 7 2 -3
BITMAP
60
E0
E0
E0
C0
C0
80
ENDCHAR
STARTCHAR 002D
ENCODING 45
SWIDTH 500 0
DWIDTH 12 0
BBX 10 2 1 8
BITMAP
FFC0
FFC0
ENDCHAR
STARTCHAR 002E
ENCODING 46
SWIDTH 500 0
DWIDTH 12 0
BBX 3 3 2 0
BITMAP
E0
E0
E0
ENDCHAR
STARTCHAR 002F
ENCODING 47
SWIDTH 500 0
DWIDTH 12 0
BBX 10 21 1 -2
BITMAP
0040
0040
0080
0080
0180
0100
0300
0200
0600
0400
0400
0800
0800
1000
1000
2000
2000
6000
4000
C000
8000
ENDCHAR
STARTCHAR 0030
ENCODING 48
SWIDTH 500 0
DWIDTH 12 0
BBX 10 17 1 1
BITMAP
1E00
3F00
7180
6180
C3C0
C2C0
C4C0
C4C0
CCC0
C8C0
C8C0
D0C0
F0C0
6180
6380
3F00
1E00
ENDCHAR
STARTCHAR 0031
ENCODING 49
SWIDTH 500 0
DWIDTH 12 0
BBX 4 17 3 1
BITMAP
30
70
F0
B0
30
30
30
30
30
30
30
30
30
30
30
30
30
ENDCHAR
STARTCHAR 0032
ENCODING 50
SWIDTH 500 0
DWIDTH 12 0
BBX 10 17 1 1
BITMAP
1F00
3F80
60C0
60C0
C0C0
00C0
01C0
0380
0700
0E00
1C00
3800
3000
6000
6000
FFC0
FFC0
ENDCHAR
STARTCHAR 0033
ENCODING 51
SWIDTH 500 0
DWIDTH 12 0
BBX 10 17 1 1
BITMAP
3E00
7F00
E380
C180
0180
0180
0380
1F00
1F00
0180
00C0
00C0
C0C0
C0C0
61C0
7F80
1E00
ENDCHAR
STARTCHAR 0034
ENCODING 52
SWIDTH 500 0
DWIDTH 12 0
BBX 10 17 1 1
BITMAP
0700
0700
0F00
0F00
1B00
1300
3300
2300
6300
4300
C300
FFC0
FFC0
0300
0300
0300
0300
ENDCHAR
STARTCHAR 0035
ENCODING 53
SWIDTH 500 0
DWIDTH 12 0
BBX 10 17 1 1
BITMAP
7F80
7F80
6000
6000
6000
6E00
5F80
7180
61C0
00C0
00C0
00C0
00C0
C1C0
6180
7F00
1E00
ENDCHAR
STARTCHAR 0036
ENCODING 54
SWIDTH 500 0
DWIDTH 12 0
BBX 10 17 1 1
BITMAP
1E00
3F80
7180
60C0
6000
C000
C000
DF00
FF80
E180
C0C0
C0C0
C0C0
40C0
6180
3F80
1E00
ENDCHAR
STARTCHAR 0037
ENCODING 55
SWIDTH 500 0
DWIDTH 12 0
BBX 10 17 1 1
BITMAP
FFC0
FFC0
00C0
0180
0180
0300
0300
0300
0600
0600
0600
0C00
0C00
0C00
1800
1800
1800
ENDCHAR
STARTCHAR 0038
ENCODING 56
SWIDTH 500 0
DWIDTH 12 0
BBX 10 17 1 1
BITMAP
1E00
3F00
7380
6180
6180
6180
3300
3F00
3F00
6180
C0C0
C0C0
C0C0
C0C0
E180
7F80
1E00
ENDCHAR
STARTCHAR 0039
ENCODING 57
SWIDTH 500 0
DWIDTH 12 0
BBX 10 17 1 1
BITMAP
1E00
7F00
6180
C080
C0C0
C0C0
C0C0
C1C0
61C0
7FC0
3CC0
00C0
00C0
6180
6380
3F00
1E00
ENDCHAR
STARTCHAR 003A
ENCODING 58
SWIDTH 500 0
DWIDTH 12 0
BBX 3 12 5 1
BITMAP
E0
E0
E0
00
00
00
00
00
00
E0
E0
E0
ENDCHAR
STARTCHAR 003B
ENCODING 59
SWIDTH 500 0
DWIDTH 12 0
BBX 4 15 4 -3
BITMAP
70
70
70
00
00
00
00
00
00
70
70
60
60
C0
C0
ENDCHAR
STARTCHAR 003C
ENCODING 60
SWIDTH 500 0
DWIDTH 12 0
BBX 10 18 1 0
BITMAP
0040
00C0
0380
0700
0E00
1C00
3800
7000
C000
6000
3000
1800
0C00
0600
0300
0180
00C0
0040
ENDCHAR
STARTCHAR 003D
ENCODING 61
SWIDTH 500 0
DWIDTH 12 0
BBX 10 6 1 6
BITMAP
FFC0
FFC0
0000
0000
FFC0
FFC0
ENDCHAR
STARTCHAR 003E
ENCODING 62
SWIDTH 500 0
DWIDTH 12 0
BBX 10 18 1 0
BITMAP
8000
C000
6000
3800
1C00
0E00
0700
0380
00C0
0180
0300
0600
0C00
1800
3000
6000
C000
8000
ENDCHAR
STARTCHAR 003F
ENCODING 63
SWIDTH 500 0
DWIDTH 12 0
BBX 10 19 1 0
BITMAP
1E00
7F80
E1C0
C0C0
C0C0
C0C0
0180
0380
0700
0E00
0C00
0C00
1C00
1C00
0000
0000
1C00
1C00
1C00
ENDCHAR
STARTCHAR 0040
ENCODING 64
SWIDTH 500 0
DWIDTH 12 0
BBX 10 18 1 0
BITMAP
1E00
3F00
6180
4080
CD40
9340
A240
A240
A240
A240
A240
A640
BE80
DD80
4080
61C0
3F80
1E00
ENDCHAR
STARTCHAR 0041
ENCODING 65
SWIDTH 500 0
DWIDTH 12 0
BBX 10 17 1 1
BITMAP
0C00
1E00
1E00
1E00
1200
3300
3300
3300
3300
6180
7F80
7F80
6180
E0C0
C0C0
C0C0
C0C0
ENDCHAR
STARTCHAR 0042
ENCODING 66
SWIDTH 500 0
DWIDTH 12 0
BBX 9 17 2 1
BITMAP
FC00
FF00
C380
C180
C180
C180
C300
FE00
FE00
C300
C180
C180
C180
C180
C380
FF00
FE00
ENDCHAR
STARTCHAR 0043
ENCODING 67
SWIDTH 500 0
DWIDTH 12 0
BBX 10 17 1 1
BITMAP
1E00
3F00
7380
6180
C0C0
C000
C000
C000
C000
C000
C000
C0C0
C0C0
6180
7180
3F00
1E00
ENDCHAR
STARTCHAR 0044
ENCODING 68
SWIDTH 500 0
DWIDTH 12 0
BBX 10 17 1 1
BITMAP
FE00
FF00
6380
6180
61C0
60C0
60C0
60C0
60C0
60C0
60C0
60C0
61C0
6180
6380
FF00
FC00
ENDCHAR
STARTCHAR 0045
ENCODING 69
SWIDTH 500 0
DWIDTH 12 0
BBX 9 17 2 1
BITMAP
FF00
FF00
C000
C000
C000
C000
C000
FE00
FE00
C000
C000
C000
C000
C000
C000
FF80
FF80
ENDCHAR
STARTCHAR 0046
ENCODING 70
SWIDTH 500 0
DWIDTH 12 0
BBX 8 17 2 1
BITMAP
FF
FF
C0
C0
C0
C0
C0
FE
FE
C0
C0
C0
C0
C0
C0
C0
C0
ENDCHAR
STARTCHAR 0047
ENCODING 71
SWIDTH 500 0
DWIDTH 12 0
BBX 10 17 1 1
BITMAP
1E00
3F00
7380
6180
C1C0
C000
C000
C000
C000
C3C0
C3C0
C0C0
C1C0
61C0
63C0
3FC0
1CC0
ENDCHAR
STARTCHAR 0048
ENCODING 72
SWIDTH 500 0
DWIDTH 12 0
BBX 10 17 1 1
BITMAP
C0C0
C0C0
C0C0
C0C0
C0C0
C0C0
C0C0
FFC0
FFC0
C0C0
C0C0
C0C0
C0C0
C0C0
C0C0
C0C0
C0C0
ENDCHAR
STARTCHAR 0049
ENCODING 73
SWIDTH 500 0
DWIDTH 12 0
BBX 6 17 3 1
BITMAP
FC
FC
30
30
30
30
30
30
30
30
30
30
30
30
30
FC
FC
ENDCHAR
STARTCHAR 004A
ENCODING 74
SWIDTH 500 0
DWIDTH 12 0
BBX 9 17 1 1
BITMAP
0180
0180
0180
0180
0180
0180
0180
0180
0180
0180
0180
0180
C180
6180
6380
7F00
1E00
ENDCHAR
STARTCHAR 004B
ENCODING 75
SWIDTH 500 0
DWIDTH 12 0
BBX 10 17 2 1
BITMAP
C180
C300
C700
C600
CC00
CC00
D800
FC00
FC00
EC00
C600
C600
C300
C300
C380
C180
C1C0
ENDCHAR
STARTCHAR 004C
ENCODING 76
SWIDTH 500 0
DWIDTH 12 0
BBX 9 17 2 1
BITMAP
C000
C000
C000
C000
C000
C000
C000
C000
C000
C000
C000
C000
C000
C000
C000
FF80
FF80
ENDCHAR
STARTCHAR 004D
ENCODING 77
SWIDTH 500 0
DWIDTH 12 0
BBX 10 17 1 1
BITMAP
E1C0
E1C0
E1C0
E1C0
E3C0
F3C0
F3C0
D2C0
D2C0
D2C0
D6C0
DEC0
DEC0
CCC0
CCC0
CCC0
CCC0
ENDCHAR
STARTCHAR 004E
ENCODING 78
SWIDTH 500 0
DWIDTH 12 0
BBX 10 17 1 1
BITMAP
E0C0
E0C0
F0C0
F0C0
D0C0
D8C0
D8C0
CCC0
CCC0
C4C0
C6C0
C6C0
C3C0
C3C0
C1C0
C1C0
C1C0
ENDCHAR
STARTCHAR 004F
ENCODING 79
SWIDTH 500 0
DWIDTH 12 0
BBX 10 17 1 1
BITMAP
1E00
3F00
7380
6180
C0C0
C0C0
C0C0
C0C0
C0C0
C0C0
C0C0
C0C0
C0C0
6180
7380
3F00
1E00
ENDCHAR
STARTCHAR 0050
ENCODING 80
SWIDTH 500 0
DWIDTH 12 0
BBX 9 17 2 1
BITMAP
FE00
FF00
C380
C180
C180
C180
C180
C300
FF00
FC00
C000
C000
C000
C000
C000
C000
C000
ENDCHAR
STARTCHAR 0051
ENCODING 81
SWIDTH 500 0
DWIDTH 12 0
BBX 10 19 1 -1
BITMAP
1E00
3F00
7380
6180
C0C0
C0C0
C0C0
C0C0
C0C0
C0C0
C0C0
C0C0
CCC0
6780
7780
3F00
1F00
0100
0100
ENDCHAR
STARTCHAR 0052
ENCODING 82
SWIDTH 500 0
DWIDTH 12 0
BBX 9 17 2 1
BITMAP
FE00
FF00
C380
C180
C180
C180
C380
FF00
FC00
CC00
C600
C600
C300
C300
C380
C180
C180
ENDCHAR
STARTCHAR 0053
ENCODING 83
SWIDTH 500 0
DWIDTH 12 0
BBX 10 17 1 1
BITMAP
1E00
3F80
7180
6180
6000
6000
3000
1800
0E00
0300
0180
00C0
C0C0
C0C0
61C0
7F80
1F00
ENDCHAR
STARTCHAR 0054
ENCODING 84
SWIDTH 500 0
DWIDTH 12 0
BBX 10 17 1 1
BITMAP
FFC0
FFC0
0C00
0C00
0C00
0C00
0C00
0C00
0C00
0C00
0C00
0C00
0C00
0C00
0C00
0C00
0C00
ENDCHAR
STARTCHAR 0055
ENCODING 85
SWIDTH 500 0
DWIDTH 12 0
BBX 10 17 1 1
BITMAP
C0C0
C0C0
C0C0
C0C0
C0C0
C0C0
C0C0
C0C0
C0C0
C0C0
C0C0
C0C0
C0C0
C0C0
E180
7F80
3E00
ENDCHAR
STARTCHAR 0056
ENCODING 86
SWIDTH 500 0
DWIDTH 12 0
BBX 10 17 1 1
BITMAP
C0C0
C0C0
C0C0
6180
6180
6180
6180
3300
3300
3300
3300
3300
1E00
1E00
1E00
1E00
0C00
ENDCHAR
STARTCHAR 0057
ENCODING 87
SWIDTH 500 0
DWIDTH 12 0
BBX 10 17 1 1
BITMAP
CCC0
CCC0
CCC0
CCC0
CCC0
DEC0
DEC0
DEC0
52C0
5280
5280
5280
5280
7380
7380
7380
6180
ENDCHAR
STARTCHAR 0058
ENCODING 88
SWIDTH 500 0
DWIDTH 12 0
BBX 10 17 1 1
BITMAP
6180
6180
3300
3300
3F00
1E00
1E00
0C00
1E00
1E00
1E00
3300
3300
7180
6180
E1C0
C0C0
ENDCHAR
STARTCHAR 0059
ENCODING 89
SWIDTH 500 0
DWIDTH 12 0
BBX 10 17 1 1
BITMAP
C0C0
C0C0
6180
6180
3300
3300
3300
1E00
1E00
0C00
0C00
0C00
0C00
0C00
0C00
0C00
0C00
ENDCHAR
STARTCHAR 005A
ENCODING 90
SWIDTH 500 0
DWIDTH 12 0
BBX 9 17 2 1
BITMAP
FF00
FF00
0300
0600
0600
0C00
0C00
1800
1800
3000
3000
2000
6000
4000
C000
FF80
FF80
ENDCHAR
STARTCHAR 005B
ENCODING 91
SWIDTH 500 0
DWIDTH 12 0
BBX 7 22 3 -2
BITMAP
FE
FE
C0
C0
C0
C0
C0
C0
C0
C0
C0
C0
C0
C0
C0
C0
C0
C0
C0
C0
FE
FE
ENDCHAR
STARTCHAR 005C
ENCODING 92
SWIDTH 500 0
DWIDTH 12 0
BBX 10 17 1 1
BITMAP
C0C0
E1C0
6180
3300
3300
1E00
1E00
FFC0
FFC0
0C00
0C00
FFC0
FFC0
0C00
0C00
0C00
0C00
ENDCHAR
STARTCHAR 005D
ENCODING 93
SWIDTH 500 0
DWIDTH 12 0
BBX 7 22 2 -2
BITMAP
FE
FE
06
06
06
06
06
06
06
06
06
06
06
06
06
06
06
06
06
06
FE
FE
ENDCHAR
STARTCHAR 005E
ENCODING 94
SWIDTH 500 0
DWIDTH 12 0
BBX 8 3 2 15
BITMAP
3C
66
C3
ENDCHAR
STARTCHAR 005F
ENCODING 95
SWIDTH 500 0
DWIDTH 12 0
BBX 12 1 0 -3
BITMAP
FFF0
ENDCHAR
STARTCHAR 0060
ENCODING 96
SWIDTH 500 0
DWIDTH 12 0
BBX 5 3 3 15
BITMAP
E0
30
18
ENDCHAR
STARTCHAR 0061
ENCODING 97
SWIDTH 500 0
DWIDTH 12 0
BBX 10 12 1 0
BITMAP
1E00
7F00
6380
4180
0180
1F80
7D80
E180
C180
C380
FFC0
7DC0
ENDCHAR
STARTCHAR 0062
ENCODING 98
SWIDTH 500 0
DWIDTH 12 0
BBX 9 17 2 1
BITMAP
C000
C000
C000
C000
C000
DE00
FF00
E100
E180
C180
C180
C180
C180
C380
E300
FF00
DE00
ENDCHAR
STARTCHAR 0063
ENCODING 99
SWIDTH 500 0
DWIDTH 12 0
BBX 9 12 1 1
BITMAP
1E00
7F00
6180
E180
C000
C000
C000
C000
E180
6180
7F00
1E00
ENDCHAR
STARTCHAR 0064
ENCODING 100
SWIDTH 500 0
DWIDTH 12 0
BBX 9 17 1 1
BITMAP
0180
0180
0180
0180
0180
3D80
7F80
6380
C180
C180
C180
C180
C180
C380
E380
7F80
3D80
ENDCHAR
STARTCHAR 0065
ENCODING 101
SWIDTH 500 0
DWIDTH 12 0
BBX 10 12 1 1
BITMAP
1E00
7F00
6180
E180
C080
FF80
FFC0
C000
E180
6180
7F00
1E00
ENDCHAR
STARTCHAR 0066
ENCODING 102
SWIDTH 500 0
DWIDTH 12 0
BBX 8 17 2 1
BITMAP
0F
1F
18
18
18
FF
FF
18
18
18
18
18
18
18
18
18
18
ENDCHAR
STARTCHAR 0067
ENCODING 103
SWIDTH 500 0
DWIDTH 12 0
BBX 9 16 1 -3
BITMAP
3D80
7F80
6380
C180
C180
C180
C180
E380
7F80
3D80
0180
0180
C180
E380
7F00
3E00
ENDCHAR
STARTCHAR 0068
ENCODING 104
SWIDTH 500 0
DWIDTH 12 0
BBX 8 17 2 1
BITMAP
C0
C0
C0
C0
C0
DE
FF
E3
C3
C3
C3
C3
C3
C3
C3
C3
C3
ENDCHAR
STARTCHAR 0069
ENCODING 105
SWIDTH 500 0
DWIDTH 12 0
BBX 2 17 5 1
BITMAP
C0
C0
00
00
00
C0
C0
C0
C0
C0
C0
C0
C0
C0
C0
C0
C0
ENDCHAR
STARTCHAR 006A
ENCODING 106
SWIDTH 500 0
DWIDTH 12 0
BBX 6 20 2 -2
BITMAP
0C
0C
00
00
00
0C
0C
0C
0C
0C
0C
0C
0C
0C
0C
0C
0C
0C
FC
F8
ENDCHAR
STARTCHAR 006B
ENCODING 107
SWIDTH 500 0
DWIDTH 12 0
BBX 9 17 2 1
BITMAP
C000
C000
C000
C000
C000
C300
C600
CC00
D800
D800
FC00
EC00
C600
C600
C300
C300
C180
ENDCHAR
STARTCHAR 006C
ENCODING 108
SWIDTH 500 0
DWIDTH 12 0
BBX 5 17 5 0
BITMAP
C0
C0
C0
C0
C0
C0
C0
C0
C0
C0
C0
C0
C0
C0
C0
F8
78
ENDCHAR
STARTCHAR 006D
ENCODING 109
SWIDTH 500 0
DWIDTH 12 0
BBX 10 12 1 1
BITMAP
FB80
FFC0
CCC0
CCC0
CCC0
CCC0
CCC0
CCC0
CCC0
CCC0
CCC0
CCC0
ENDCHAR
STARTCHAR 006E
ENCODING 110
SWIDTH 500 0
DWIDTH 12 0
BBX 8 12 2 1
BITMAP
DE
FF
E3
C3
C3
C3
C3
C3
C3
C3
C3
C3
ENDCHAR
STARTCHAR 006F
ENCODING 111
SWIDTH 500 0
DWIDTH 12 0
BBX 10 12 1 1
BITMAP
1E00
7F00
6180
E0C0
C0C0
C0C0
C0C0
C0C0
E1C0
6180
7F80
1E00
ENDCHAR
STARTCHAR 0070
ENCODING 112
SWIDTH 500 0
DWIDTH 12 0
BBX 9 15 2 -2
BITMAP
DE00
FF00
E300
E180
C180
C180
C180
C180
E180
E300
FF00
DE00
C000
C000
C000
ENDCHAR
STARTCHAR 0071
ENCODING 113
SWIDTH 500 0
DWIDTH 12 0
BBX 9 15 1 -2
BITMAP
3D80
7F80
6380
C380
C180
C180
C180
C180
C380
6380
7F80
3D80
0180
0180
0180
ENDCHAR
STARTCHAR 0072
ENCODING 114
SWIDTH 500 0
DWIDTH 12 0
BBX 6 12 4 2
BITMAP
CC
DC
F0
E0
C0
C0
C0
C0
C0
C0
C0
C0
ENDCHAR
STARTCHAR 0073
ENCODING 115
SWIDTH 500 0
DWIDTH 12 0
BBX 8 12 2 1
BITMAP
3C
FF
C3
C0
60
38
0E
03
83
C3
FF
7C
ENDCHAR
STARTCHAR 0074
ENCODING 116
SWIDTH 500 0
DWIDTH 12 0
BBX 7 15 2 0
BITMAP
18
18
18
FE
FE
18
18
18
18
18
18
18
18
1E
0E
ENDCHAR
STARTCHAR 0075
ENCODING 117
SWIDTH 500 0
DWIDTH 12 0
BBX 8 12 2 1
BITMAP
C3
C3
C3
C3
C3
C3
C3
C3
C3
C7
FF
7B
ENDCHAR
STARTCHAR 0076
ENCODING 118
SWIDTH 500 0
DWIDTH 12 0
BBX 10 12 1 1
BITMAP
C0C0
6180
6180
6180
3300
3300
3300
1200
1E00
1E00
0C00
0C00
ENDCHAR
STARTCHAR 0077
ENCODING 119
SWIDTH 500 0
DWIDTH 12 0
BBX 10 12 1 1
BITMAP
8C40
CCC0
CCC0
DEC0
DEC0
D2C0
5280
5280
5280
7380
7380
6180
ENDCHAR
STARTCHAR 0078
ENCODING 120
SWIDTH 500 0
DWIDTH 12 0
BBX 10 12 1 1
BITMAP
6180
3300
3300
1E00
1E00
0C00
1E00
1E00
3300
3300
6180
E1C0
ENDCHAR
STARTCHAR 0079
ENCODING 121
SWIDTH 500 0
DWIDTH 12 0
BBX 9 15 2 -2
BITMAP
C180
C300
C300
6300
6600
6600
3600
3C00
1C00
1C00
1800
1800
1000
F000
E000
ENDCHAR
STARTCHAR 007A
ENCODING 122
SWIDTH 500 0
DWIDTH 12 0
BBX 8 12 2 1
BITMAP
FF
FF
06
06
0C
18
30
30
60
C0
FF
FF
ENDCHAR
STARTCHAR 007B
ENCODING 123
SWIDTH 500 0
DWIDTH 12 0
BBX 6 22 4 -2
BITMAP
0C
1C
30
30
30
30
30
30
30
70
E0
E0
30
30
30
30
30
30
30
30
1C
04
ENDCHAR
STARTCHAR 007C
ENCODING 124
SWIDTH 500 0
DWIDTH 12 0
BBX 2 24 5 -3
BITMAP
C0
C0
C0
C0
C0
C0
C0
C0
C0
C0
C0
C0
C0
C0
C0
C0
C0
C0
C0
C0
C0
C0
C0
C0
ENDCHAR
STARTCHAR 007D
ENCODING 125
SWIDTH 500 0
DWIDTH 12 0
BBX 6 22 2 -2
BITMAP
C0
E0
30
30
30
30
30
30
30
38
1C
1C
30
30
30
30
30
30
30
30
E0
80
ENDCHAR
STARTCHAR 007E
ENCODING 126
SWIDTH 500 0
DWIDTH 12 0
BBX 8 2 2 16
BITMAP
FF
FF
ENDCHAR
STARTCHAR 00A0
ENCODING 160
SWIDTH 500 0
DWIDTH 12 0
BBX 0 0 0 0
BITMAP
ENDCHAR
STARTCHAR 00A1
ENCODING 161
SWIDTH 500 0
DWIDTH 12 0
BBX 3 19 5 0
BITMAP
E0
E0
E0
00
00
E0
E0
E0
E0
E0
E0
E0
E0
E0
E0
E0
E0
E0
E0
ENDCHAR
STARTCHAR 00A2
ENCODING 162
SWIDTH 1000 0
DWIDTH 24 0
BBX 12 18 6 1
BITMAP
00C0
0080
0180
1F80
3FC0
7360
E360
C200
C600
C600
CC00
CC70
68E0
3FC0
1F80
1000
3000
3000
ENDCHAR
STARTCHAR 00A3
ENCODING 163
SWIDTH 1000 0
DWIDTH 24 0
BBX 16 17 4 1
BITMAP
01E0
03F0
0738
0618
0600
0600
3FF0
3FF0
0300
0300
0300
7B00
FF02
C303
C7C6
FEFE
3C38
ENDCHAR
STARTCHAR 00A4
ENCODING 164
SWIDTH 500 0
DWIDTH 12 0
BBX 8 8 2 6
BITMAP
81
7E
66
42
42
46
7E
81
ENDCHAR
STARTCHAR 00A5
ENCODING 165
SWIDTH 1000 0
DWIDTH 24 0
BBX 14 17 5 1
BITMAP
E01C
6018
3030
1860
0CE0
0FC0
FFFC
FFFC
0300
0300
0300
FFFC
FFFC
0300
0300
0300
0300
ENDCHAR
STARTCHAR 00A6
ENCODING 166
SWIDTH 500 0
DWIDTH 12 0
BBX 2 22 5 -2
BITMAP
C0
C0
C0
C0
C0
C0
C0
C0
C0
C0
00
00
C0
C0
C0
C0
C0
C0
C0
C0
C0
C0
ENDCHAR
STARTCHAR 00A7
ENCODING 167
SWIDTH 1000 0
DWIDTH 24 0
BBX 10 22 7 -2
BITMAP
3E00
7F00
E180
C180
C0C0
C000
6000
3C00
6F00
C380
C0C0
C0C0
70C0
3D80
0F00
0380
00C0
C0C0
C0C0
61C0
7F80
1F00
ENDCHAR
STARTCHAR 00A8
ENCODING 168
SWIDTH 1000 0
DWIDTH 24 0
BBX 8 2 8 16
BITMAP
E7
E7
ENDCHAR
STARTCHAR 00A9
ENCODING 169
SWIDTH 500 0
DWIDTH 12 0
BBX 10 11 1 4
BITMAP
1E00
2100
4E80
9340
A140
A040
A040
A140
53C0
3E80
1F00
ENDCHAR
STARTCHAR 00AA
ENCODING 170
SWIDTH 500 0
DWIDTH 12 0
BBX 7 10 1 8
BITMAP
78
C4
04
7C
C4
84
8C
76
00
FE
ENDCHAR
STARTCHAR 00AB
ENCODING 171
SWIDTH 500 0
DWIDTH 12 0
BBX 7 10 3 2
BITMAP
32
26
6C
C8
98
90
C8
6C
26
32
ENDCHAR
STARTCHAR 00AC
ENCODING 172
SWIDTH 1000 0
DWIDTH 24 0
BBX 21 10 1 4
BITMAP
FFFFF8
FFFFF8
000008
000008
000008
000008
000008
000008
000008
000008
ENDCHAR
STARTCHAR 00AD
ENCODING 173
SWIDTH 500 0
DWIDTH 12 0
BBX 10 2 1 8
BITMAP
FFC0
FFC0
ENDCHAR
STARTCHAR 00AE
ENCODING 174
SWIDTH 500 0
DWIDTH 12 0
BBX 11 11 0 4
BITMAP
1F00
2080
5F40
90A0
90A0
9F20
9220
9320
51C0
2080
1F00
ENDCHAR
STARTCHAR 00AF
ENCODING 175
SWIDTH 500 0
DWIDTH 12 0
BBX 8 1 2 16
BITMAP
FF
ENDCHAR
STARTCHAR 00B0
ENCODING 176
SWIDTH 1000 0
DWIDTH 24 0
BBX 6 5 1 15
BITMAP
78
CC
84
CC
78
ENDCHAR
STARTCHAR 00B1
ENCODING 177
SWIDTH 1000 0
DWIDTH 24 0
BBX 16 17 4 1
BITMAP
0100
0100
0100
0100
0100
0100
FFFF
FFFF
0100
0100
0100
0100
0100
0000
0000
FFFF
FFFF
ENDCHAR
STARTCHAR 00B2
ENCODING 178
SWIDTH 500 0
DWIDTH 12 0
BBX 6 9 1 12
BITMAP
78
44
C4
04
18
30
60
40
FC
ENDCHAR
STARTCHAR 00B3
ENCODING 179
SWIDTH 500 0
DWIDTH 12 0
BBX 6 8 1 12
BITMAP
78
44
04
38
0C
04
C4
78
ENDCHAR
STARTCHAR 00B4
ENCODING 180
SWIDTH 1000 0
DWIDTH 24 0
BBX 5 3 10 15
BITMAP
38
60
C0
ENDCHAR
STARTCHAR 00B6
ENCODING 182
SWIDTH 1000 0
DWIDTH 24 0
BBX 10 22 6 -2
BITMAP
3FC0
7840
F840
F840
F840
F840
7840
7840
0840
0840
0840
0840
0840
0840
0840
0840
0840
0840
0840
0840
0840
0840
ENDCHAR
STARTCHAR 00B7
ENCODING 183
SWIDTH 500 0
DWIDTH 12 0
BBX 4 3 4 8
BITMAP
F0
F0
F0
ENDCHAR
STARTCHAR 00B8
ENCODING 184
SWIDTH 500 0
DWIDTH 12 0
BBX 6 5 3 -1
BITMAP
40
C0
F8
04
F8
ENDCHAR
STARTCHAR 00B9
ENCODING 185
SWIDTH 500 0
DWIDTH 12 0
BBX 2 8 3 12
BITMAP
40
C0
40
40
40
40
40
40
ENDCHAR
STARTCHAR 00BA
ENCODING 186
SWIDTH 500 0
DWIDTH 12 0
BBX 7 10 1 8
BITMAP
38
44
82
82
82
82
44
38
00
FE
ENDCHAR
STARTCHAR 00BB
ENCODING 187
SWIDTH 500 0
DWIDTH 12 0
BBX 7 10 2 2
BITMAP
98
C8
6C
26
12
32
26
6C
C8
98
ENDCHAR
STARTCHAR 00BC
ENCODING 188
SWIDTH 500 0
DWIDTH 12 0
BBX 10 22 1 -2
BITMAP
2080
E080
2080
2100
2100
2200
2200
2200
2400
2400
2800
0980
1980
1380
1680
2480
2C80
7880
5FC0
C080
8080
8080
ENDCHAR
STARTCHAR 00BD
ENCODING 189
SWIDTH 500 0
DWIDTH 12 0
BBX 11 22 1 -2
BITMAP
2040
E080
2080
2180
2100
2300
2200
2200
2400
2400
2C00
0BC0
1E20
1420
1020
2060
20C0
6180
4300
C600
8600
87E0
ENDCHAR
STARTCHAR 00BE
ENCODING 190
SWIDTH 500 0
DWIDTH 12 0
BBX 12 22 0 -3
BITMAP
3820
4420
C460
0440
0CC0
3880
0580
0380
C300
4300
3E00
06C0
04C0
0DC0
0940
0B40
1240
1640
37F0
2040
6040
4040
ENDCHAR
STARTCHAR 00BF
ENCODING 191
SWIDTH 500 0
DWIDTH 12 0
BBX 10 19 1 0
BITMAP
0E00
0E00
0E00
0000
0000
0E00
0E00
0C00
0C00
1C00
3800
7000
6000
C0C0
C0C0
C0C0
E1C0
7F80
3E00
ENDCHAR
STARTCHAR 00C0
ENCODING 192
SWIDTH 500 0
DWIDTH 12 0
BBX 10 20 1 1
BITMAP
1800
0400
0000
0C00
1E00
1E00
1E00
1200
3300
3300
3300
3300
6180
7F80
7F80
6180
E0C0
C0C0
C0C0
C0C0
ENDCHAR
STARTCHAR 00C1
ENCODING 193
SWIDTH 500 0
DWIDTH 12 0
BBX 10 20 1 1
BITMAP
0600
0800
0000
0C00
1E00
1E00
1E00
1200
3300
3300
3300
3300
6180
7F80
7F80
6180
E0C0
C0C0
C0C0
C0C0
ENDCHAR
STARTCHAR 00C2
ENCODING 194
SWIDTH 500 0
DWIDTH 12 0
BBX 10 20 1 1
BITMAP
1E00
3300
0000
0C00
1E00
1E00
1E00
1200
3300
3300
3300
3300
6180
7F80
7F80
6180
E0C0
C0C0
C0C0
C0C0
ENDCHAR
STARTCHAR 00C3
ENCODING 195
SWIDTH 500 0
DWIDTH 12 0
BBX 12 20 0 1
BITMAP
1C00
0380
0000
0600
0F00
0F00
0F00
1980
1980
1980
1980
30C0
30C0
3FC0
3FC0
70E0
6060
6060
6060
C030
ENDCHAR
STARTCHAR 00C4
ENCODING 196
SWIDTH 500 0
DWIDTH 12 0
BBX 10 20 1 1
BITMAP
3300
3300
0000
0C00
0C00
1E00
1E00
1E00
1200
3300
3300
3300
3300
3F00
7F80
6180
6180
6180
C0C0
C0C0
ENDCHAR
STARTCHAR 00C5
ENCODING 197
SWIDTH 500 0
DWIDTH 12 0
BBX 10 20 1 1
BITMAP
0C00
1200
1200
0C00
1E00
1E00
1E00
1200
3300
3300
3300
3300
6180
7F80
7F80
6180
E0C0
C0C0
C0C0
C0C0
ENDCHAR
STARTCHAR 00C6
ENCODING 198
SWIDTH 500 0
DWIDTH 12 0
BBX 10 17 1 1
BITMAP
0FC0
1FC0
1E00
1E00
1600
3600
3600
37C0
27C0
6600
7E00
7E00
6600
C600
C600
C7C0
C7C0
ENDCHAR
STARTCHAR 00C7
ENCODING 199
SWIDTH 500 0
DWIDTH 12 0
BBX 10 21 1 -3
BITMAP
1E00
3F00
7380
6180
C180
C000
C000
C000
C000
C000
C000
C0C0
C1C0
6180
6180
3F00
1E00
0800
1E00
0200
1E00
ENDCHAR
STARTCHAR 00C8
ENCODING 200
SWIDTH 500 0
DWIDTH 12 0
BBX 9 20 2 1
BITMAP
3000
0800
0000
FF00
FF00
C000
C000
C000
C000
C000
FE00
FE00
C000
C000
C000
C000
C000
C000
FF80
FF80
ENDCHAR
STARTCHAR 00C9
ENCODING 201
SWIDTH 500 0
DWIDTH 12 0
BBX 9 20 2 1
BITMAP
0C00
1800
0000
FF00
FF00
C000
C000
C000
C000
C000
FE00
FE00
C000
C000
C000
C000
C000
C000
FF80
FF80
ENDCHAR
STARTCHAR 00CA
ENCODING 202
SWIDTH 500 0
DWIDTH 12 0
BBX 9 20 2 1
BITMAP
1800
2600
0000
FF00
FF00
C000
C000
C000
C000
C000
FE00
FE00
C000
C000
C000
C000
C000
C000
FF80
FF80
ENDCHAR
STARTCHAR 00CB
ENCODING 203
SWIDTH 500 0
DWIDTH 12 0
BBX 9 20 2 1
BITMAP
6600
6600
0000
FF00
FF00
C000
C000
C000
C000
C000
FE00
FE00
C000
C000
C000
C000
C000
C000
FF80
FF80
ENDCHAR
STARTCHAR 00CC
ENCODING 204
SWIDTH 500 0
DWIDTH 12 0
BBX 3 20 4 1
BITMAP
C0
20
00
60
60
60
60
60
60
60
60
60
60
60
60
60
60
60
60
60
ENDCHAR
STARTCHAR 00CD
ENCODING 205
SWIDTH 500 0
DWIDTH 12 0
BBX 3 20 5 1
BITMAP
60
80
00
C0
C0
C0
C0
C0
C0
C0
C0
C0
C0
C0
C0
C0
C0
C0
C0
C0
ENDCHAR
STARTCHAR 00CE
ENCODING 206
SWIDTH 500 0
DWIDTH 12 0
BBX 6 20 3 1
BITMAP
30
CC
00
30
30
30
30
30
30
30
30
30
30
30
30
30
30
30
30
30
ENDCHAR
STARTCHAR 00CF
ENCODING 207
SWIDTH 500 0
DWIDTH 12 0
BBX 6 20 3 1
BITMAP
CC
CC
00
30
30
30
30
30
30
30
30
30
30
30
30
30
30
30
30
30
ENDCHAR
STARTCHAR 00D0
ENCODING 208
SWIDTH 500 0
DWIDTH 12 0
BBX 10 17 1 1
BITMAP
7E00
7F00
6380
6180
61C0
60C0
60C0
FCC0
60C0
60C0
60C0
60C0
6180
6180
6380
7F00
7E00
ENDCHAR
STARTCHAR 00D1
ENCODING 209
SWIDTH 500 0
DWIDTH 12 0
BBX 10 20 1 1
BITMAP
3800
0700
0000
E0C0
E0C0
F0C0
F0C0
D0C0
D8C0
D8C0
CCC0
CCC0
C4C0
C6C0
C6C0
C3C0
C3C0
C1C0
C1C0
C1C0
ENDCHAR
STARTCHAR 00D2
ENCODING 210
SWIDTH 500 0
DWIDTH 12 0
BBX 10 20 1 1
BITMAP
1800
0400
0000
1E00
3F00
7380
6180
C0C0
C0C0
C0C0
C0C0
C0C0
C0C0
C0C0
C0C0
C0C0
6180
7380
3F00
1E00
ENDCHAR
STARTCHAR 00D3
ENCODING 211
SWIDTH 500 0
DWIDTH 12 0
BBX 10 20 1 1
BITMAP
0600
0800
0000
1E00
3F00
7380
6180
C0C0
C0C0
C0C0
C0C0
C0C0
C0C0
C0C0
C0C0
C0C0
6180
7380
3F00
1E00
ENDCHAR
STARTCHAR 00D4
ENCODING 212
SWIDTH 500 0
DWIDTH 12 0
BBX 10 20 1 1
BITMAP
1E00
3300
0000
1E00
3F00
7380
6180
C0C0
C0C0
C0C0
C0C0
C0C0
C0C0
C0C0
C0C0
C0C0
6180
7380
3F00
1E00
ENDCHAR
STARTCHAR 00D5
ENCODING 213
SWIDTH 500 0
DWIDTH 12 0
BBX 10 20 1 1
BITMAP
3800
0700
0000
1E00
3F00
7380
6180
C0C0
C0C0
C0C0
C0C0
C0C0
C0C0
C0C0
C0C0
C0C0
6180
7380
3F00
1E00
ENDCHAR
STARTCHAR 00D6
ENCODING 214
SWIDTH 500 0
DWIDTH 12 0
BBX 8 20 2 1
BITMAP
66
66
00
3C
7C
66
66
C3
C3
C3
C3
C3
C3
C3
C3
C3
66
66
7E
3C
ENDCHAR
STARTCHAR 00D7
ENCODING 215
SWIDTH 1000 0
DWIDTH 24 0
BBX 14 14 5 2
BITMAP
C00C
601C
3038
1870
0CE0
07C0
0380
0780
0FC0
1CE0
3870
7038
E01C
C00C
ENDCHAR
STARTCHAR 00D8
ENCODING 216
SWIDTH 500 0
DWIDTH 12 0
BBX 10 20 1 -1
BITMAP
0040
00C0
1E80
3F80
7180
6180
C2C0
C2C0
C4C0
C4C0
CCC0
C8C0
C8C0
D0C0
D0C0
6180
6380
7F00
5E00
8000
ENDCHAR
STARTCHAR 00D9
ENCODING 217
SWIDTH 500 0
DWIDTH 12 0
BBX 10 20 1 1
BITMAP
1800
0C00
0000
C0C0
C0C0
C0C0
C0C0
C0C0
C0C0
C0C0
C0C0
C0C0
C0C0
C0C0
C0C0
C0C0
C0C0
E180
7F80
3E00
ENDCHAR
STARTCHAR 00DA
ENCODING 218
SWIDTH 500 0
DWIDTH 12 0
BBX 10 20 1 1
BITMAP
0600
0C00
0000
C0C0
C0C0
C0C0
C0C0
C0C0
C0C0
C0C0
C0C0
C0C0
C0C0
C0C0
C0C0
C0C0
C0C0
E180
7F80
3E00
ENDCHAR
STARTCHAR 00DB
ENCODING 219
SWIDTH 500 0
DWIDTH 12 0
BBX 10 20 1 1
BITMAP
1E00
3300
0000
C0C0
C0C0
C0C0
C0C0
C0C0
C0C0
C0C0
C0C0
C0C0
C0C0
C0C0
C0C0
C0C0
C0C0
E180
7F80
3E00
ENDCHAR
STARTCHAR 00DC
ENCODING 220
SWIDTH 500 0
DWIDTH 12 0
BBX 10 20 1 1
BITMAP
3300
3300
0000
C0C0
C0C0
C0C0
C0C0
C0C0
C0C0
C0C0
C0C0
C0C0
C0C0
C0C0
C0C0
C0C0
C0C0
E180
7F80
3E00
ENDCHAR
STARTCHAR 00DD
ENCODING 221
SWIDTH 500 0
DWIDTH 12 0
BBX 10 20 1 1
BITMAP
0600
0800
0000
C0C0
C0C0
6180
6180
3300
3300
3300
1E00
1E00
0C00
0C00
0C00
0C00
0C00
0C00
0C00
0C00
ENDCHAR
STARTCHAR 00DE
ENCODING 222
SWIDTH 500 0
DWIDTH 12 0
BBX 9 17 2 1
BITMAP
C000
C000
C000
FC00
FF00
C300
C180
C180
C180
C180
C300
FF00
FC00
C000
C000
C000
C000
ENDCHAR
STARTCHAR 00DF
ENCODING 223
SWIDTH 500 0
DWIDTH 12 0
BBX 9 17 2 0
BITMAP
3C00
7E00
E700
C300
C300
C300
C600
DC00
DE00
C300
C180
C180
C180
C180
C380
DF00
DE00
ENDCHAR
STARTCHAR 00E0
ENCODING 224
SWIDTH 500 0
DWIDTH 12 0
BBX 10 15 1 0
BITMAP
1800
0C00
0000
1E00
7F00
6380
4180
0180
1F80
7D80
E180
C180
C380
FFC0
7DC0
ENDCHAR
STARTCHAR 00E1
ENCODING 225
SWIDTH 500 0
DWIDTH 12 0
BBX 10 15 1 0
BITMAP
0600
0800
0000
1E00
7F00
6380
4180
0180
1F80
7D80
E180
C180
C380
FFC0
7DC0
ENDCHAR
STARTCHAR 00E2
ENCODING 226
SWIDTH 500 0
DWIDTH 12 0
BBX 10 15 1 0
BITMAP
1C00
3300
0000
1E00
7F00
6380
4180
0180
1F80
7D80
E180
C180
C380
FFC0
7DC0
ENDCHAR
STARTCHAR 00E3
ENCODING 227
SWIDTH 500 0
DWIDTH 12 0
BBX 10 16 1 0
BITMAP
3800
0700
0000
0000
3E00
7F00
6380
C180
0180
1F80
7D80
E180
C180
C380
FFC0
7DC0
ENDCHAR
STARTCHAR 00E4
ENCODING 228
SWIDTH 500 0
DWIDTH 12 0
BBX 9 15 2 0
BITMAP
6600
6600
0000
3C00
7E00
E700
C300
0300
1F00
7B00
C300
C300
C700
FF80
7B80
ENDCHAR
STARTCHAR 00E5
ENCODING 229
SWIDTH 500 0
DWIDTH 12 0
BBX 10 17 1 0
BITMAP
0C00
1200
1C00
0000
0000
1E00
7F00
6380
4180
0180
1F80
7D80
E180
C180
C380
FFC0
7DC0
ENDCHAR
STARTCHAR 00E6
ENCODING 230
SWIDTH 500 0
DWIDTH 12 0
BBX 10 12 1 1
BITMAP
7300
7F80
CCC0
CCC0
0CC0
1FC0
6C00
CC00
CCC0
CCC0
FFC0
7F80
ENDCHAR
STARTCHAR 00E7
ENCODING 231
SWIDTH 500 0
DWIDTH 12 0
BBX 9 16 1 -3
BITMAP
1E00
7F00
6380
C180
C000
C000
C000
C000
C180
6380
7F00
1E00
1000
1E00
0200
1E00
ENDCHAR
STARTCHAR 00E8
ENCODING 232
SWIDTH 500 0
DWIDTH 12 0
BBX 10 15 1 1
BITMAP
1800
0400
0000
1E00
7F00
6180
E180
C080
FF80
FFC0
C000
E180
6180
7F00
1E00
ENDCHAR
STARTCHAR 00E9
ENCODING 233
SWIDTH 500 0
DWIDTH 12 0
BBX 10 15 1 1
BITMAP
0600
0800
0000
1E00
7F00
6180
E180
C080
FF80
FFC0
C000
E180
6180
7F00
1E00
ENDCHAR
STARTCHAR 00EA
ENCODING 234
SWIDTH 500 0
DWIDTH 12 0
BBX 10 15 1 1
BITMAP
1E00
3300
0000
1E00
7F00
6180
E180
C080
FF80
FFC0
C000
E180
6180
7F00
1E00
ENDCHAR
STARTCHAR 00EB
ENCODING 235
SWIDTH 500 0
DWIDTH 12 0
BBX 8 15 2 1
BITMAP
66
66
00
3C
7E
66
C3
C3
FF
FF
C0
C3
67
7E
3C
ENDCHAR
STARTCHAR 00EC
ENCODING 236
SWIDTH 500 0
DWIDTH 12 0
BBX 3 15 4 1
BITMAP
C0
60
00
60
60
60
60
60
60
60
60
60
60
60
60
ENDCHAR
STARTCHAR 00ED
ENCODING 237
SWIDTH 500 0
DWIDTH 12 0
BBX 3 15 5 1
BITMAP
60
C0
00
C0
C0
C0
C0
C0
C0
C0
C0
C0
C0
C0
C0
ENDCHAR
STARTCHAR 00EE
ENCODING 238
SWIDTH 500 0
DWIDTH 12 0
BBX 6 15 3 1
BITMAP
78
CC
00
30
30
30
30
30
30
30
30
30
30
30
30
ENDCHAR
STARTCHAR 00EF
ENCODING 239
SWIDTH 500 0
DWIDTH 12 0
BBX 6 15 3 1
BITMAP
CC
CC
00
30
30
30
30
30
30
30
30
30
30
30
30
ENDCHAR
STARTCHAR 00F0
ENCODING 240
SWIDTH 500 0
DWIDTH 12 0
BBX 10 18 1 2
BITMAP
1100
1E00
0E00
1F00
0300
0180
1F80
7FC0
63C0
E1C0
C0C0
C0C0
C0C0
C0C0
E0C0
6180
3F00
1E00
ENDCHAR
STARTCHAR 00F1
ENCODING 241
SWIDTH 500 0
DWIDTH 12 0
BBX 8 16 2 1
BITMAP
70
0E
00
00
9E
FE
E3
C3
C3
C3
C3
C3
C3
C3
C3
C3
ENDCHAR
STARTCHAR 00F2
ENCODING 242
SWIDTH 500 0
DWIDTH 12 0
BBX 10 15 1 1
BITMAP
1800
0400
0000
1E00
7F00
6180
E0C0
C0C0
C0C0
C0C0
C0C0
E1C0
6180
7F80
1E00
ENDCHAR
STARTCHAR 00F3
ENCODING 243
SWIDTH 500 0
DWIDTH 12 0
BBX 10 15 1 1
BITMAP
0600
0800
0000
1E00
7F00
6180
E0C0
C0C0
C0C0
C0C0
C0C0
E1C0
6180
7F80
1E00
ENDCHAR
STARTCHAR 00F4
ENCODING 244
SWIDTH 500 0
DWIDTH 12 0
BBX 10 15 1 1
BITMAP
1E00
3300
0000
1E00
7F00
6180
E0C0
C0C0
C0C0
C0C0
C0C0
E1C0
6180
7F80
1E00
ENDCHAR
STARTCHAR 00F5
ENCODING 245
SWIDTH 500 0
DWIDTH 12 0
BBX 10 16 1 1
BITMAP
3800
0700
0000
0000
1E00
7F00
6180
E0C0
C0C0
C0C0
C0C0
C0C0
E1C0
6180
7F80
1E00
ENDCHAR
STARTCHAR 00F6
ENCODING 246
SWIDTH 500 0
DWIDTH 12 0
BBX 8 15 2 1
BITMAP
66
66
00
3C
7E
66
C3
C3
C3
C3
C3
C3
66
7E
3C
ENDCHAR
STARTCHAR 00F7
ENCODING 247
SWIDTH 1000 0
DWIDTH 24 0
BBX 16 14 4 2
BITMAP
01C0
01C0
01C0
0000
0000
0000
FFFF
FFFF
0000
0000
0000
01C0
01C0
01C0
ENDCHAR
STARTCHAR 00F8
ENCODING 248
SWIDTH 500 0
DWIDTH 12 0
BBX 10 14 1 0
BITMAP
0080
1F80
7F80
6380
E3C0
C4C0
C4C0
C8C0
C8C0
D1C0
7180
7F80
7E00
4000
ENDCHAR
STARTCHAR 00F9
ENCODING 249
SWIDTH 500 0
DWIDTH 12 0
BBX 8 15 2 1
BITMAP
10
08
00
C3
C3
C3
C3
C3
C3
C3
C3
C3
C7
FF
7B
ENDCHAR
STARTCHAR 00FA
ENCODING 250
SWIDTH 500 0
DWIDTH 12 0
BBX 8 15 2 1
BITMAP
08
10
00
C3
C3
C3
C3
C3
C3
C3
C3
C3
C7
FF
7B
ENDCHAR
STARTCHAR 00FB
ENCODING 251
SWIDTH 500 0
DWIDTH 12 0
BBX 8 15 2 1
BITMAP
18
24
00
C3
C3
C3
C3
C3
C3
C3
C3
C3
C7
FF
7B
ENDCHAR
STARTCHAR 00FC
ENCODING 252
SWIDTH 500 0
DWIDTH 12 0
BBX 8 15 2 1
BITMAP
66
66
00
C3
C3
C3
C3
C3
C3
C3
C3
C3
C7
FF
7B
ENDCHAR
STARTCHAR 00FD
ENCODING 253
SWIDTH 500 0
DWIDTH 12 0
BBX 9 18 2 -2
BITMAP
0C00
1800
0000
C180
C300
C300
6300
6600
2600
3600
3C00
1C00
1C00
1800
1800
1000
F000
E000
ENDCHAR
STARTCHAR 00FE
ENCODING 254
SWIDTH 500 0
DWIDTH 12 0
BBX 9 20 2 -2
BITMAP
C000
C000
C000
C000
C000
DE00
FF00
E300
E180
C180
C180
C180
C180
E180
E300
FF00
DE00
C000
C000
C000
ENDCHAR
STARTCHAR 00FF
ENCODING 255
SWIDTH 500 0
DWIDTH 12 0
BBX 9 18 2 -2
BITMAP
6300
6300
0000
C180
C180
E300
6300
6300
3600
3600
3600
1C00
1C00
1800
1800
1800
F000
F000
ENDCHAR
STARTCHAR 0100
ENCODING 256
SWIDTH 500 0
DWIDTH 12 0
BBX 10 20 1 1
BITMAP
3F00
0000
0000
0C00
1E00
1E00
1E00
1200
3300
3300
3300
3300
6180
7F80
7F80
6180
E1C0
C0C0
C0C0
C0C0
ENDCHAR
STARTCHAR 0101
ENCODING 257
SWIDTH 500 0
DWIDTH 12 0
BBX 9 15 2 0
BITMAP
7E00
0000
0000
3C00
7E00
C700
C300
0300
1F00
7B00
C300
C300
C700
FF80
7B80
ENDCHAR
STARTCHAR 0102
ENCODING 258
SWIDTH 500 0
DWIDTH 12 0
BBX 10 20 1 1
BITMAP
3300
1E00
0000
0C00
1E00
1E00
1E00
1200
3300
3300
3300
3300
6180
7F80
7F80
6180
E0C0
C0C0
C0C0
C0C0
ENDCHAR
STARTCHAR 0103
ENCODING 259
SWIDTH 500 0
DWIDTH 12 0
BBX 10 15 1 0
BITMAP
2300
1E00
0000
1E00
7F00
6380
4180
0180
1F80
7D80
E180
C180
C380
FFC0
7DC0
ENDCHAR
STARTCHAR 0104
ENCODING 260
SWIDTH 500 0
DWIDTH 12 0
BBX 11 21 1 -3
BITMAP
0E00
0E00
1E00
1A00
1B00
1B00
3300
3100
3180
3180
7F80
7F80
60C0
60C0
E0C0
C0C0
C060
0080
0100
0100
01E0
ENDCHAR
STARTCHAR 0105
ENCODING 261
SWIDTH 500 0
DWIDTH 12 0
BBX 10 16 1 -3
BITMAP
1E00
7F00
6380
4180
0180
1F80
7D80
E180
C180
C380
FFC0
7DC0
0180
0200
0200
03C0
ENDCHAR
STARTCHAR 0106
ENCODING 262
SWIDTH 500 0
DWIDTH 12 0
BBX 10 20 1 1
BITMAP
0600
0800
0000
1E00
3F00
7380
6180
C0C0
C000
C000
C000
C000
C000
C000
C0C0
C0C0
6180
7180
3F00
1E00
ENDCHAR
STARTCHAR 0107
ENCODING 263
SWIDTH 500 0
DWIDTH 12 0
BBX 9 15 1 1
BITMAP
0600
0800
0000
1E00
7F00
6180
E180
C000
C000
C000
C000
E180
6180
7F00
1E00
ENDCHAR
STARTCHAR 0108
ENCODING 264
SWIDTH 500 0
DWIDTH 12 0
BBX 10 20 1 1
BITMAP
1E00
3300
0000
1E00
3F00
7380
6180
C0C0
C000
C000
C000
C000
C000
C000
C0C0
C0C0
6180
7180
3F00
1E00
ENDCHAR
STARTCHAR 0109
ENCODING 265
SWIDTH 500 0
DWIDTH 12 0
BBX 9 15 1 1
BITMAP
1E00
3300
0000
1E00
7F00
6180
E180
C000
C000
C000
C000
E180
6180
7F00
1E00
ENDCHAR
STARTCHAR 010C
ENCODING 268
SWIDTH 500 0
DWIDTH 12 0
BBX 10 20 1 1
BITMAP
3300
1E00
0000
1E00
3F00
7380
6180
C0C0
C000
C000
C000
C000
C000
C000
C0C0
C0C0
6180
7180
3F00
1E00
ENDCHAR
STARTCHAR 010D
ENCODING 269
SWIDTH 500 0
DWIDTH 12 0
BBX 9 15 1 1
BITMAP
3300
1E00
0000
1E00
7F00
6180
E180
C000
C000
C000
C000
E180
6180
7F00
1E00
ENDCHAR
STARTCHAR 010E
ENCODING 270
SWIDTH 500 0
DWIDTH 12 0
BBX 9 20 2 1
BITMAP
6600
3800
0000
FC00
FE00
C700
C300
C380
C180
C180
C180
C180
C180
C180
C180
C300
C300
C700
FE00
FC00
ENDCHAR
STARTCHAR 010F
ENCODING 271
SWIDTH 500 0
DWIDTH 12 0
BBX 12 19 0 1
BITMAP
0070
0070
0370
0330
0360
0300
0300
3B00
7F00
6700
C300
C300
C300
C300
C300
C300
6700
7F00
3B00
ENDCHAR
STARTCHAR 0111
ENCODING 273
SWIDTH 500 0
DWIDTH 12 0
BBX 11 17 1 1
BITMAP
0180
0180
07E0
0180
0180
3D80
7F80
6380
C180
C180
C180
C180
C180
C380
6380
7F80
3D80
ENDCHAR
STARTCHAR 0112
ENCODING 274
SWIDTH 500 0
DWIDTH 12 0
BBX 9 20 2 1
BITMAP
7E00
0000
0000
FF00
FF00
C000
C000
C000
C000
C000
FE00
FE00
C000
C000
C000
C000
C000
C000
FF80
FF80
ENDCHAR
STARTCHAR 0113
ENCODING 275
SWIDTH 500 0
DWIDTH 12 0
BBX 8 15 2 1
BITMAP
7E
00
00
3C
7E
67
C3
C1
FF
FF
80
C3
43
7E
3C
ENDCHAR
STARTCHAR 0118
ENCODING 280
SWIDTH 500 0
DWIDTH 12 0
BBX 9 21 2 -3
BITMAP
FF00
FF00
C000
C000
C000
C000
C000
FE00
FE00
C000
C000
C000
C000
C000
C000
FF80
FF80
1000
2000
2000
3C00
ENDCHAR
STARTCHAR 0119
ENCODING 281
SWIDTH 500 0
DWIDTH 12 0
BBX 9 16 2 -3
BITMAP
3C00
7E00
6300
C300
C100
FF80
FF80
8000
C180
4300
6300
3E00
1000
2000
2000
3C00
ENDCHAR
STARTCHAR 011A
ENCODING 282
SWIDTH 500 0
DWIDTH 12 0
BBX 9 20 2 1
BITMAP
2400
1800
0000
FF00
FF00
C000
C000
C000
C000
C000
FE00
FE00
C000
C000
C000
C000
C000
C000
FF80
FF80
ENDCHAR
STARTCHAR 011B
ENCODING 283
SWIDTH 500 0
DWIDTH 12 0
BBX 10 15 1 1
BITMAP
3300
1E00
0000
1E00
7F00
6180
E180
C080
FF80
FFC0
C000
E180
6180
7F00
1E00
ENDCHAR
STARTCHAR 011C
ENCODING 284
SWIDTH 500 0
DWIDTH 12 0
BBX 10 20 1 1
BITMAP
0E00
1300
0000
1E00
3F00
7380
6180
C1C0
C000
C000
C000
C000
C3C0
C3C0
C0C0
C1C0
61C0
63C0
3FC0
1CC0
ENDCHAR
STARTCHAR 011D
ENCODING 285
SWIDTH 500 0
DWIDTH 12 0
BBX 9 19 1 -3
BITMAP
1C00
2600
0000
3D80
7F80
6380
C180
C180
C180
C180
E380
7F80
3D80
0180
0180
C180
E380
7F00
3E00
ENDCHAR
STARTCHAR 0124
ENCODING 292
SWIDTH 500 0
DWIDTH 12 0
BBX 10 20 1 1
BITMAP
1E00
3300
0000
C0C0
C0C0
C0C0
C0C0
C0C0
C0C0
C0C0
FFC0
FFC0
C0C0
C0C0
C0C0
C0C0
C0C0
C0C0
C0C0
C0C0
ENDCHAR
STARTCHAR 0125
ENCODING 293
SWIDTH 500 0
DWIDTH 12 0
BBX 8 20 2 1
BITMAP
18
24
00
C0
C0
C0
C0
C0
DE
FF
E3
C3
C3
C3
C3
C3
C3
C3
C3
C3
ENDCHAR
STARTCHAR 0127
ENCODING 295
SWIDTH 500 0
DWIDTH 12 0
BBX 10 17 0 1
BITMAP
3000
3000
FC00
3000
3000
3780
3F80
38C0
30C0
30C0
30C0
30C0
30C0
30C0
30C0
30C0
30C0
ENDCHAR
STARTCHAR 012A
ENCODING 298
SWIDTH 500 0
DWIDTH 12 0
BBX 6 20 3 1
BITMAP
FC
00
00
30
30
30
30
30
30
30
30
30
30
30
30
30
30
30
30
30
ENDCHAR
STARTCHAR 012B
ENCODING 299
SWIDTH 500 0
DWIDTH 12 0
BBX 6 15 3 1
BITMAP
FC
00
00
30
30
30
30
30
30
30
30
30
30
30
30
ENDCHAR
STARTCHAR 0134
ENCODING 308
SWIDTH 500 0
DWIDTH 12 0
BBX 10 20 1 1
BITMAP
0380
0640
0000
0180
0180
0180
0180
0180
0180
0180
0180
0180
0180
0180
0180
C180
6180
6380
7F00
1E00
ENDCHAR
STARTCHAR 0135
ENCODING 309
SWIDTH 500 0
DWIDTH 12 0
BBX 8 18 2 -2
BITMAP
1E
33
00
0C
0C
0C
0C
0C
0C
0C
0C
0C
0C
0C
0C
0C
FC
F8
ENDCHAR
STARTCHAR 0139
ENCODING 313
SWIDTH 500 0
DWIDTH 12 0
BBX 9 20 2 1
BITMAP
0C00
1800
0000
C000
C000
C000
C000
C000
C000
C000
C000
C000
C000
C000
C000
C000
C000
C000
FF80
FF80
ENDCHAR
STARTCHAR 013A
ENCODING 314
SWIDTH 500 0
DWIDTH 12 0
BBX 3 20 5 1
BITMAP
60
80
00
C0
C0
C0
C0
C0
C0
C0
C0
C0
C0
C0
C0
C0
C0
C0
C0
C0
ENDCHAR
STARTCHAR 013D
ENCODING 317
SWIDTH 500 0
DWIDTH 12 0
BBX 9 19 2 1
BITMAP
0E00
0E00
CE00
C600
CC00
C000
C000
C000
C000
C000
C000
C000
C000
C000
C000
C000
C000
FF80
FF80
ENDCHAR
STARTCHAR 013E
ENCODING 318
SWIDTH 500 0
DWIDTH 12 0
BBX 6 19 5 1
BITMAP
1C
1C
DC
CC
D8
C0
C0
C0
C0
C0
C0
C0
C0
C0
C0
C0
C0
C0
C0
ENDCHAR
STARTCHAR 0141
ENCODING 321
SWIDTH 500 0
DWIDTH 12 0
BBX 11 17 0 1
BITMAP
3000
3000
3000
3000
3200
3600
3C00
3800
3000
7000
B000
3000
3000
3000
3000
3FE0
3FE0
ENDCHAR
STARTCHAR 0142
ENCODING 322
SWIDTH 500 0
DWIDTH 12 0
BBX 6 17 3 1
BITMAP
30
30
30
30
30
34
38
30
30
70
B0
30
30
30
30
30
30
ENDCHAR
STARTCHAR 0143
ENCODING 323
SWIDTH 500 0
DWIDTH 12 0
BBX 10 20 1 1
BITMAP
0600
0800
0000
E0C0
E0C0
F0C0
F0C0
D0C0
D8C0
D8C0
CCC0
CCC0
C4C0
C6C0
C6C0
C3C0
C3C0
C1C0
C1C0
C1C0
ENDCHAR
STARTCHAR 0144
ENCODING 324
SWIDTH 500 0
DWIDTH 12 0
BBX 8 15 2 1
BITMAP
08
10
00
DE
FF
E3
C3
C3
C3
C3
C3
C3
C3
C3
C3
ENDCHAR
STARTCHAR 0147
ENCODING 327
SWIDTH 500 0
DWIDTH 12 0
BBX 10 20 1 1
BITMAP
3300
1E00
0000
E0C0
E0C0
F0C0
F0C0
D0C0
D8C0
D8C0
CCC0
CCC0
C4C0
C6C0
C6C0
C3C0
C3C0
C1C0
C1C0
C1C0
ENDCHAR
STARTCHAR 0148
ENCODING 328
SWIDTH 500 0
DWIDTH 12 0
BBX 8 15 2 1
BITMAP
24
18
00
DE
FF
E3
C3
C3
C3
C3
C3
C3
C3
C3
C3
ENDCHAR
STARTCHAR 014B
ENCODING 331
SWIDTH 500 0
DWIDTH 12 0
BBX 8 15 2 -3
BITMAP
DE
FE
E3
C3
C3
C3
C3
C3
C3
C3
C3
C3
03
0F
0F
ENDCHAR
STARTCHAR 014C
ENCODING 332
SWIDTH 500 0
DWIDTH 12 0
BBX 10 20 1 1
BITMAP
3F00
0000
0000
1E00
3F00
7380
6180
C0C0
C0C0
C0C0
C0C0
C0C0
C0C0
C0C0
C0C0
C0C0
6180
7380
3F00
1E00
ENDCHAR
STARTCHAR 014D
ENCODING 333
SWIDTH 500 0
DWIDTH 12 0
BBX 8 15 2 1
BITMAP
7E
00
00
3C
7E
62
C3
C3
C3
C3
C3
C3
66
7E
3C
ENDCHAR
STARTCHAR 0150
ENCODING 336
SWIDTH 500 0
DWIDTH 12 0
BBX 10 20 1 1
BITMAP
0D00
1200
0000
1E00
3F00
7380
6180
C0C0
C0C0
C0C0
C0C0
C0C0
C0C0
C0C0
C0C0
C0C0
6180
7380
3F00
1E00
ENDCHAR
STARTCHAR 0151
ENCODING 337
SWIDTH 500 0
DWIDTH 12 0
BBX 10 15 1 1
BITMAP
0D80
1A00
0000
1E00
7F00
6180
E0C0
C0C0
C0C0
C0C0
C0C0
E1C0
6180
7F80
1E00
ENDCHAR
STARTCHAR 0152
ENCODING 338
SWIDTH 500 0
DWIDTH 12 0
BBX 10 17 1 1
BITMAP
1FC0
3FC0
6600
6600
C600
C600
C600
C7C0
C7C0
C600
C600
C600
C600
4600
6600
3FC0
1FC0
ENDCHAR
STARTCHAR 0153
ENCODING 339
SWIDTH 500 0
DWIDTH 12 0
BBX 10 13 1 0
BITMAP
3380
7F80
DCC0
8CC0
8C40
8FC0
8C00
8C00
8C40
8CC0
DEC0
7FC0
3380
ENDCHAR
STARTCHAR 0154
ENCODING 340
SWIDTH 500 0
DWIDTH 12 0
BBX 9 20 2 1
BITMAP
0C00
1800
0000
FE00
FF00
C380
C180
C180
C180
C380
FF00
FC00
CC00
C600
C600
C300
C300
C380
C180
C180
ENDCHAR
STARTCHAR 0155
ENCODING 341
SWIDTH 500 0
DWIDTH 12 0
BBX 6 15 4 1
BITMAP
30
60
00
CC
DC
F0
E0
C0
C0
C0
C0
C0
C0
C0
C0
ENDCHAR
STARTCHAR 0158
ENCODING 344
SWIDTH 500 0
DWIDTH 12 0
BBX 9 20 2 1
BITMAP
6600
3800
0000
FE00
FF00
C380
C180
C180
C180
C380
FF00
FC00
CC00
C600
C600
C300
C300
C380
C180
C180
ENDCHAR
STARTCHAR 0159
ENCODING 345
SWIDTH 500 0
DWIDTH 12 0
BBX 6 15 4 1
BITMAP
88
70
00
CC
DC
F0
E0
C0
C0
C0
C0
C0
C0
C0
C0
ENDCHAR
STARTCHAR 015A
ENCODING 346
SWIDTH 500 0
DWIDTH 12 0
BBX 10 20 1 1
BITMAP
0600
0800
0000
1E00
3F80
7180
6180
6000
6000
3000
1C00
0E00
0380
0180
00C0
C0C0
C0C0
61C0
7F80
1F00
ENDCHAR
STARTCHAR 015B
ENCODING 347
SWIDTH 500 0
DWIDTH 12 0
BBX 8 15 2 1
BITMAP
0C
10
00
3C
FF
C3
C0
60
38
0E
03
83
C3
FF
7C
ENDCHAR
STARTCHAR 015C
ENCODING 348
SWIDTH 500 0
DWIDTH 12 0
BBX 10 20 1 1
BITMAP
1E00
3300
0000
1E00
3F80
7180
6180
6000
6000
3000
1800
0E00
0300
0180
00C0
C0C0
C0C0
61C0
7F80
1F00
ENDCHAR
STARTCHAR 015D
ENCODING 349
SWIDTH 500 0
DWIDTH 12 0
BBX 8 15 2 1
BITMAP
3C
66
00
3C
FF
C3
C0
60
38
0E
03
83
C3
FF
7C
ENDCHAR
STARTCHAR 015E
ENCODING 350
SWIDTH 500 0
DWIDTH 12 0
BBX 10 21 1 -3
BITMAP
1F00
3F80
71C0
60C0
6000
7000
3800
0C00
0700
0180
00C0
C0C0
C0C0
61C0
3F80
1F00
0000
0E00
0E00
0600
0C00
ENDCHAR
STARTCHAR 015F
ENCODING 351
SWIDTH 500 0
DWIDTH 12 0
BBX 9 16 2 -3
BITMAP
3E00
FF00
C180
C000
7000
0E00
0300
C180
C380
7F80
3E00
0000
1C00
1C00
0C00
1800
ENDCHAR
STARTCHAR 0160
ENCODING 352
SWIDTH 500 0
DWIDTH 12 0
BBX 10 20 1 1
BITMAP
3300
1E00
0000
1E00
3F80
7180
6180
6000
6000
3000
1C00
0E00
0380
0180
00C0
C0C0
C0C0
61C0
7F80
1F00
ENDCHAR
STARTCHAR 0161
ENCODING 353
SWIDTH 500 0
DWIDTH 12 0
BBX 8 15 2 1
BITMAP
66
3C
00
3C
FF
C3
C0
60
38
0E
03
83
C3
FF
7C
ENDCHAR
STARTCHAR 0162
ENCODING 354
SWIDTH 500 0
DWIDTH 12 0
BBX 10 21 1 -3
BITMAP
FFC0
FFC0
0C00
0C00
0C00
0C00
0C00
0C00
0C00
0C00
0C00
0C00
0C00
0C00
0C00
0C00
0000
0E00
0E00
0600
0C00
ENDCHAR
STARTCHAR 0163
ENCODING 355
SWIDTH 500 0
DWIDTH 12 0
BBX 7 19 2 -3
BITMAP
18
18
18
FE
FE
18
18
18
18
18
18
18
1E
0E
00
1C
1C
0C
08
ENDCHAR
STARTCHAR 0164
ENCODING 356
SWIDTH 500 0
DWIDTH 12 0
BBX 10 20 1 1
BITMAP
3300
0E00
0000
FFC0
FFC0
0C00
0C00
0C00
0C00
0C00
0C00
0C00
0C00
0C00
0C00
0C00
0C00
0C00
0C00
0C00
ENDCHAR
STARTCHAR 0165
ENCODING 357
SWIDTH 500 0
DWIDTH 12 0
BBX 8 19 2 0
BITMAP
07
07
07
03
1A
18
18
FE
FE
18
18
18
18
18
18
18
18
1E
0E
ENDCHAR
STARTCHAR 016A
ENCODING 362
SWIDTH 500 0
DWIDTH 12 0
BBX 10 20 1 1
BITMAP
3F00
0000
0000
C0C0
C0C0
C0C0
C0C0
C0C0
C0C0
C0C0
C0C0
C0C0
C0C0
C0C0
C0C0
C0C0
C0C0
E180
7F80
3E00
ENDCHAR
STARTCHAR 016B
ENCODING 363
SWIDTH 500 0
DWIDTH 12 0
BBX 8 15 2 1
BITMAP
7E
00
00
C3
C3
C3
C3
C3
C3
C3
C3
C3
C7
FF
79
ENDCHAR
STARTCHAR 016C
ENCODING 364
SWIDTH 500 0
DWIDTH 12 0
BBX 10 20 1 1
BITMAP
2100
1E00
0000
C0C0
C0C0
C0C0
C0C0
C0C0
C0C0
C0C0
C0C0
C0C0
C0C0
C0C0
C0C0
C0C0
C0C0
E180
7F80
3E00
ENDCHAR
STARTCHAR 016D
ENCODING 365
SWIDTH 500 0
DWIDTH 12 0
BBX 8 15 2 1
BITMAP
66
3C
00
C3
C3
C3
C3
C3
C3
C3
C3
C3
C7
FF
7B
ENDCHAR
STARTCHAR 016E
ENCODING 366
SWIDTH 500 0
DWIDTH 12 0
BBX 10 20 1 1
BITMAP
0C00
1200
1C00
C0C0
C0C0
C0C0
C0C0
C0C0
C0C0
C0C0
C0C0
C0C0
C0C0
C0C0
C0C0
C0C0
C0C0
E180
7F80
3E00
ENDCHAR
STARTCHAR 016F
ENCODING 367
SWIDTH 500 0
DWIDTH 12 0
BBX 8 17 2 1
BITMAP
18
18
18
00
00
C3
C3
C3
C3
C3
C3
C3
C3
C3
C7
FF
7B
ENDCHAR
STARTCHAR 0170
ENCODING 368
SWIDTH 500 0
DWIDTH 12 0
BBX 10 20 1 1
BITMAP
1D80
3200
0000
C0C0
C0C0
C0C0
C0C0
C0C0
C0C0
C0C0
C0C0
C0C0
C0C0
C0C0
C0C0
C0C0
C0C0
E180
7F80
3E00
ENDCHAR
STARTCHAR 0171
ENCODING 369
SWIDTH 500 0
DWIDTH 12 0
BBX 8 15 2 1
BITMAP
1E
24
00
C3
C3
C3
C3
C3
C3
C3
C3
C3
C7
FF
7B
ENDCHAR
STARTCHAR 0179
ENCODING 377
SWIDTH 500 0
DWIDTH 12 0
BBX 9 20 2 1
BITMAP
0C00
1000
0000
FF00
FF00
0300
0600
0600
0C00
0C00
1800
1800
3000
3000
2000
6000
4000
C000
FF80
FF80
ENDCHAR
STARTCHAR 017A
ENCODING 378
SWIDTH 500 0
DWIDTH 12 0
BBX 8 15 2 1
BITMAP
0C
10
00
FF
FF
06
06
0C
18
30
30
60
C0
FF
FF
ENDCHAR
STARTCHAR 017B
ENCODING 379
SWIDTH 500 0
DWIDTH 12 0
BBX 9 20 2 1
BITMAP
1800
1800
0000
FF00
FF00
0300
0600
0600
0C00
0C00
1800
1800
3000
3000
2000
6000
6000
C000
FF80
FF80
ENDCHAR
STARTCHAR 017C
ENCODING 380
SWIDTH 500 0
DWIDTH 12 0
BBX 8 15 2 1
BITMAP
18
18
00
FF
FF
06
06
0C
18
30
30
60
C0
FF
FF
ENDCHAR
STARTCHAR 017D
ENCODING 381
SWIDTH 500 0
DWIDTH 12 0
BBX 9 20 2 1
BITMAP
6400
1800
0000
FF00
FF00
0300
0600
0600
0C00
0C00
1800
1800
3000
3000
2000
6000
4000
C000
FF80
FF80
ENDCHAR
STARTCHAR 017E
ENCODING 382
SWIDTH 500 0
DWIDTH 12 0
BBX 8 15 2 1
BITMAP
66
38
00
FF
FF
06
06
0C
18
30
30
60
C0
FF
FF
ENDCHAR
STARTCHAR 0193
ENCODING 403
SWIDTH 500 0
DWIDTH 12 0
BBX 11 19 1 1
BITMAP
01E0
01E0
3D80
7F80
6380
6380
C180
C000
C000
C000
C000
C780
C780
C180
C180
6380
6780
7F80
3D80
ENDCHAR
STARTCHAR 01C2
ENCODING 450
SWIDTH 500 0
DWIDTH 12 0
BBX 8 20 2 -2
BITMAP
18
18
18
18
18
FF
FF
18
18
18
18
18
18
FF
FF
18
18
18
18
18
ENDCHAR
STARTCHAR 01CD
ENCODING 461
SWIDTH 1000 0
DWIDTH 24 0
BBX 16 20 4 1
BITMAP
0660
03C0
0000
03C0
03C0
03C0
0660
0660
0E70
0C30
0C30
1C38
1818
1FF8
300C
300C
700E
6006
6006
E007
ENDCHAR
STARTCHAR 01CE
ENCODING 462
SWIDTH 1000 0
DWIDTH 24 0
BBX 12 15 6 0
BITMAP
1880
0F00
0000
1F00
3FC0
70C0
6060
0060
1FE0
7C60
E060
C060
C1E0
FFF0
7E70
ENDCHAR
STARTCHAR 01D0
ENCODING 464
SWIDTH 1000 0
DWIDTH 24 0
BBX 6 15 9 1
BITMAP
CC
78
00
30
30
30
30
30
30
30
30
30
30
30
30
ENDCHAR
STARTCHAR 01D1
ENCODING 465
SWIDTH 1000 0
DWIDTH 24 0
BBX 16 20 4 1
BITMAP
0660
03C0
0000
07E0
1FF8
3C3C
700E
6006
E007
C003
C003
C003
C003
C003
E007
6006
700E
383C
1FF8
07E0
ENDCHAR
STARTCHAR 01D2
ENCODING 466
SWIDTH 1000 0
DWIDTH 24 0
BBX 12 15 6 1
BITMAP
1980
0F00
0000
0F00
3FC0
70E0
6070
C030
C030
C030
C030
E060
70E0
7FC0
1F00
ENDCHAR
STARTCHAR 01D4
ENCODING 468
SWIDTH 1000 0
DWIDTH 24 0
BBX 10 15 7 1
BITMAP
2300
1E00
0000
C0C0
C0C0
C0C0
C0C0
C0C0
C0C0
C0C0
C0C0
C1C0
E3C0
7FC0
3CC0
ENDCHAR
STARTCHAR 01D6
ENCODING 470
SWIDTH 1000 0
DWIDTH 24 0
BBX 10 17 7 1
BITMAP
7F80
0000
6180
0000
0000
C0C0
C0C0
C0C0
C0C0
C0C0
C0C0
C0C0
C0C0
C1C0
E3C0
7FC0
3CC0
ENDCHAR
STARTCHAR 01D8
ENCODING 472
SWIDTH 1000 0
DWIDTH 24 0
BBX 10 17 7 1
BITMAP
0700
0C00
6180
0000
0000
C0C0
C0C0
C0C0
C0C0
C0C0
C0C0
C0C0
C0C0
C1C0
E3C0
7FC0
3CC0
ENDCHAR
STARTCHAR 01DA
ENCODING 474
SWIDTH 1000 0
DWIDTH 24 0
BBX 10 17 7 1
BITMAP
3300
1E00
6180
0000
0000
C0C0
C0C0
C0C0
C0C0
C0C0
C0C0
C0C0
C0C0
C1C0
E3C0
7FC0
3CC0
ENDCHAR
STARTCHAR 01DC
ENCODING 476
SWIDTH 1000 0
DWIDTH 24 0
BBX 10 17 7 1
BITMAP
3800
0C00
6180
0000
0000
C0C0
C0C0
C0C0
C0C0
C0C0
C0C0
C0C0
C0C0
C1C0
E3C0
7FC0
3CC0
ENDCHAR
STARTCHAR 01F8
ENCODING 504
SWIDTH 500 0
DWIDTH 12 0
BBX 10 20 1 1
BITMAP
1800
0C00
0000
E0C0
E0C0
F0C0
F0C0
D0C0
D8C0
D8C0
CCC0
CCC0
C4C0
C6C0
C6C0
C3C0
C3C0
C1C0
C1C0
C1C0
ENDCHAR
STARTCHAR 01F9
ENCODING 505
SWIDTH 500 0
DWIDTH 12 0
BBX 8 15 2 1
BITMAP
30
18
00
DE
FF
E3
C3
C3
C3
C3
C3
C3
C3
C3
C3
ENDCHAR
STARTCHAR 01FD
ENCODING 509
SWIDTH 500 0
DWIDTH 12 0
BBX 10 15 1 1
BITMAP
0600
0C00
0000
7300
7F80
CCC0
CCC0
0CC0
1FC0
6C00
CC00
CCC0
CCC0
FFC0
7F80
ENDCHAR
STARTCHAR 0250
ENCODING 592
SWIDTH 500 0
DWIDTH 12 0
BBX 10 12 1 2
BITMAP
EF80
FFC0
70C0
60C0
61C0
6F80
7E00
6000
6180
7180
3F80
1E00
ENDCHAR
STARTCHAR 0251
ENCODING 593
SWIDTH 500 0
DWIDTH 12 0
BBX 10 12 1 0
BITMAP
1D80
7F80
6380
E180
C180
C180
C180
C180
C180
6380
7FC0
3CC0
ENDCHAR
STARTCHAR 0252
ENCODING 594
SWIDTH 500 0
DWIDTH 12 0
BBX 10 12 1 2
BITMAP
CF00
FF80
7180
61C0
60C0
60C0
60C0
60C0
61C0
7180
7F80
6E00
ENDCHAR
STARTCHAR 0253
ENCODING 595
SWIDTH 500 0
DWIDTH 12 0
BBX 9 17 2 1
BITMAP
3E00
7F00
E380
C180
C000
DE00
FF00
E300
C180
C180
C180
C180
C180
C180
E300
FF00
DE00
ENDCHAR
STARTCHAR 0254
ENCODING 596
SWIDTH 500 0
DWIDTH 12 0
BBX 9 12 2 1
BITMAP
3C00
7F00
C300
C380
0180
0180
0180
0180
C380
C300
7F00
3C00
ENDCHAR
STARTCHAR 0255
ENCODING 597
SWIDTH 500 0
DWIDTH 12 0
BBX 9 13 1 -1
BITMAP
1E00
7F00
6180
E180
C000
C000
C700
CF80
D980
7380
7F00
7E00
C000
ENDCHAR
STARTCHAR 0256
ENCODING 598
SWIDTH 500 0
DWIDTH 12 0
BBX 12 21 0 -3
BITMAP
0180
0180
0180
0180
0180
3D80
7F80
6380
C380
C180
C180
C180
C180
C380
6380
7F80
3D80
0180
0180
01F0
00F0
ENDCHAR
STARTCHAR 0257
ENCODING 599
SWIDTH 500 0
DWIDTH 12 0
BBX 12 17 0 1
BITMAP
00F0
01F0
0180
0180
0180
3D80
7F80
6380
C380
C180
C180
C180
C180
C380
6380
7F80
3D80
ENDCHAR
STARTCHAR 0258
ENCODING 600
SWIDTH 500 0
DWIDTH 12 0
BBX 10 12 1 1
BITMAP
1E00
3F80
6380
61C0
40C0
FFC0
FFC0
00C0
41C0
6180
3F80
1E00
ENDCHAR
STARTCHAR 0259
ENCODING 601
SWIDTH 500 0
DWIDTH 12 0
BBX 10 12 1 1
BITMAP
1E00
3F80
6380
41C0
00C0
00C0
FFC0
7FC0
40C0
6180
3F80
1E00
ENDCHAR
STARTCHAR 025A
ENCODING 602
SWIDTH 500 0
DWIDTH 12 0
BBX 11 12 1 1
BITMAP
3800
7C00
C600
C700
0780
0EE0
3AE0
E200
C600
C400
7C00
3800
ENDCHAR
STARTCHAR 025C
ENCODING 604
SWIDTH 500 0
DWIDTH 12 0
BBX 9 12 2 1
BITMAP
3E00
7F00
E180
0180
0180
1F00
1F00
0180
0180
E180
7F00
3E00
ENDCHAR
STARTCHAR 025E
ENCODING 606
SWIDTH 500 0
DWIDTH 12 0
BBX 9 12 1 1
BITMAP
1F00
3F80
6180
C180
C180
CF00
CF00
C180
C180
6180
7F80
1E00
ENDCHAR
STARTCHAR 025F
ENCODING 607
SWIDTH 500 0
DWIDTH 12 0
BBX 8 15 2 -2
BITMAP
18
18
18
18
18
18
18
18
FF
FF
18
18
18
F8
F0
ENDCHAR
STARTCHAR 0260
ENCODING 608
SWIDTH 500 0
DWIDTH 12 0
BBX 12 21 0 -3
BITMAP
00F0
01F0
0180
0180
0180
3D80
7F80
6380
C180
C180
C180
C180
E380
7F80
3D80
0180
0180
4180
6380
7F00
1E00
ENDCHAR
STARTCHAR 0261
ENCODING 609
SWIDTH 500 0
DWIDTH 12 0
BBX 9 16 1 -3
BITMAP
3D80
7F80
6380
C180
C180
C180
C180
E380
7F80
3D80
0180
0180
C180
E380
7F00
3E00
ENDCHAR
STARTCHAR 0264
ENCODING 612
SWIDTH 500 0
DWIDTH 12 0
BBX 10 12 1 1
BITMAP
E1C0
F3C0
3300
1E00
0C00
0C00
0C00
1E00
1E00
1E00
1E00
0C00
ENDCHAR
STARTCHAR 0265
ENCODING 613
SWIDTH 500 0
DWIDTH 12 0
BBX 8 15 2 -2
BITMAP
C3
C3
C3
C3
C3
C3
C3
C3
C3
C7
FF
7B
03
03
03
ENDCHAR
STARTCHAR 0266
ENCODING 614
SWIDTH 500 0
DWIDTH 12 0
BBX 8 17 2 1
BITMAP
3C
7E
E3
C0
C0
DE
FF
E3
C3
C3
C3
C3
C3
C3
C3
C3
C3
ENDCHAR
STARTCHAR 0267
ENCODING 615
SWIDTH 500 0
DWIDTH 12 0
BBX 8 20 2 -3
BITMAP
3C
7E
E3
C0
C0
DE
FE
E3
C3
C3
C3
C3
C3
C3
C3
C3
C3
03
0F
0F
ENDCHAR
STARTCHAR 0268
ENCODING 616
SWIDTH 500 0
DWIDTH 12 0
BBX 6 17 3 1
BITMAP
30
30
00
00
00
30
30
30
30
FC
30
30
30
30
30
30
30
ENDCHAR
STARTCHAR 026C
ENCODING 620
SWIDTH 500 0
DWIDTH 12 0
BBX 7 17 2 1
BITMAP
18
18
18
18
18
78
98
98
7E
18
18
18
18
18
18
18
18
ENDCHAR
STARTCHAR 026D
ENCODING 621
SWIDTH 500 0
DWIDTH 12 0
BBX 5 20 5 -3
BITMAP
C0
C0
C0
C0
C0
C0
C0
C0
C0
C0
C0
C0
C0
C0
C0
C0
C0
C0
F8
78
ENDCHAR
STARTCHAR 026E
ENCODING 622
SWIDTH 500 0
DWIDTH 12 0
BBX 10 20 2 -2
BITMAP
C000
C000
C000
C000
C000
FF80
FF80
C380
C700
CC00
DF00
DF80
C1C0
C0C0
C0C0
C0C0
C0C0
0180
3F80
1F00
ENDCHAR
STARTCHAR 026F
ENCODING 623
SWIDTH 500 0
DWIDTH 12 0
BBX 10 12 1 1
BITMAP
CCC0
CCC0
CCC0
CCC0
CCC0
CCC0
CCC0
CCC0
CCC0
CCC0
FFC0
77C0
ENDCHAR
STARTCHAR 0270
ENCODING 624
SWIDTH 500 0
DWIDTH 12 0
BBX 10 15 1 -2
BITMAP
CCC0
CCC0
CCC0
CCC0
CCC0
CCC0
CCC0
CCC0
CCC0
CCC0
FFC0
77C0
00C0
00C0
00C0
ENDCHAR
STARTCHAR 0271
ENCODING 625
SWIDTH 500 0
DWIDTH 12 0
BBX 10 15 1 -3
BITMAP
FF80
FFC0
CCC0
CCC0
CCC0
CCC0
CCC0
CCC0
CCC0
CCC0
CCC0
CCC0
00C0
03C0
03C0
ENDCHAR
STARTCHAR 0272
ENCODING 626
SWIDTH 500 0
DWIDTH 12 0
BBX 11 15 0 -3
BITMAP
1BC0
1FC0
1C60
1860
1860
1860
1860
1860
1860
1860
1860
1860
1800
F800
F000
ENDCHAR
STARTCHAR 0273
ENCODING 627
SWIDTH 500 0
DWIDTH 12 0
BBX 11 15 1 -3
BITMAP
DE00
FE00
E300
C300
C300
C300
C300
C300
C300
C300
C300
C300
0300
03E0
01E0
ENDCHAR
STARTCHAR 0275
ENCODING 629
SWIDTH 500 0
DWIDTH 12 0
BBX 10 12 1 1
BITMAP
1E00
7F00
6180
E1C0
C0C0
FFC0
FFC0
C0C0
E1C0
6180
7F80
1E00
ENDCHAR
STARTCHAR 0279
ENCODING 633
SWIDTH 500 0
DWIDTH 12 0
BBX 7 12 2 0
BITMAP
06
06
06
06
06
06
06
06
0E
3E
F6
C6
ENDCHAR
STARTCHAR 027A
ENCODING 634
SWIDTH 500 0
DWIDTH 12 0
BBX 7 17 2 0
BITMAP
06
06
06
06
06
06
06
06
06
06
06
06
06
0E
3E
F6
C6
ENDCHAR
STARTCHAR 027B
ENCODING 635
SWIDTH 500 0
DWIDTH 12 0
BBX 9 15 2 -2
BITMAP
0600
0600
0600
0600
0600
0600
0600
0E00
1E00
7600
E600
8600
0600
0780
0380
ENDCHAR
STARTCHAR 027D
ENCODING 637
SWIDTH 500 0
DWIDTH 12 0
BBX 6 15 4 -1
BITMAP
CC
DC
F0
E0
C0
C0
C0
C0
C0
C0
C0
C0
C0
F8
78
ENDCHAR
STARTCHAR 027E
ENCODING 638
SWIDTH 500 0
DWIDTH 12 0
BBX 5 12 4 1
BITMAP
78
F8
C0
C0
C0
C0
C0
C0
C0
C0
C0
C0
ENDCHAR
STARTCHAR 0281
ENCODING 641
SWIDTH 500 0
DWIDTH 12 0
BBX 10 12 2 1
BITMAP
C0C0
C180
C300
C300
C600
FE00
FF00
C180
C180
C180
FF80
FE00
ENDCHAR
STARTCHAR 0282
ENCODING 642
SWIDTH 500 0
DWIDTH 12 0
BBX 8 16 2 -3
BITMAP
3C
FE
C3
C0
60
38
0E
03
C3
E3
FF
FE
C0
C0
E0
60
ENDCHAR
STARTCHAR 0283
ENCODING 643
SWIDTH 500 0
DWIDTH 12 0
BBX 8 20 2 -3
BITMAP
0F
1F
18
18
18
18
18
18
18
18
18
18
18
18
18
18
18
18
F8
F0
ENDCHAR
STARTCHAR 0284
ENCODING 644
SWIDTH 500 0
DWIDTH 12 0
BBX 8 20 2 -3
BITMAP
0F
1F
18
18
18
18
18
18
18
18
18
18
18
FF
FF
18
18
18
F8
F0
ENDCHAR
STARTCHAR 0288
ENCODING 648
SWIDTH 500 0
DWIDTH 12 0
BBX 7 18 2 -2
BITMAP
18
18
18
FE
FE
18
18
18
18
18
18
18
18
18
18
18
1E
0E
ENDCHAR
STARTCHAR 0289
ENCODING 649
SWIDTH 500 0
DWIDTH 12 0
BBX 10 12 1 1
BITMAP
6180
6180
6180
6180
FFC0
6180
6180
6180
6180
6380
7F80
3D80
ENDCHAR
STARTCHAR 028A
ENCODING 650
SWIDTH 500 0
DWIDTH 12 0
BBX 10 12 1 1
BITMAP
F3C0
F3C0
3300
6180
4180
C0C0
C0C0
C0C0
C0C0
E180
7F80
1E00
ENDCHAR
STARTCHAR 028B
ENCODING 651
SWIDTH 500 0
DWIDTH 12 0
BBX 9 13 2 1
BITMAP
0100
C300
C300
C180
C180
C180
C180
C180
C180
C300
C700
7E00
3C00
ENDCHAR
STARTCHAR 028C
ENCODING 652
SWIDTH 500 0
DWIDTH 12 0
BBX 10 12 1 1
BITMAP
0C00
0C00
1E00
1E00
1200
3300
3300
3300
6180
6180
6180
C0C0
ENDCHAR
STARTCHAR 028D
ENCODING 653
SWIDTH 500 0
DWIDTH 12 0
BBX 10 12 1 1
BITMAP
6180
7380
7380
5280
5280
5280
D6C0
DEC0
DEC0
CCC0
CCC0
8C40
ENDCHAR
STARTCHAR 028E
ENCODING 654
SWIDTH 500 0
DWIDTH 12 0
BBX 9 17 1 1
BITMAP
0380
0780
0400
0C00
0C00
0800
1800
1800
1C00
3C00
3600
6600
6200
6300
E300
C180
C180
ENDCHAR
STARTCHAR 0290
ENCODING 656
SWIDTH 500 0
DWIDTH 12 0
BBX 10 16 2 -3
BITMAP
FF00
FF00
0600
0E00
0C00
1800
3000
3000
6000
C000
FF00
FF00
0300
0300
03C0
01C0
ENDCHAR
STARTCHAR 0291
ENCODING 657
SWIDTH 500 0
DWIDTH 12 0
BBX 9 14 2 -2
BITMAP
FF00
FF00
0600
0600
0C00
1800
3000
3700
6780
CD80
FF80
FF00
3000
6000
ENDCHAR
STARTCHAR 0292
ENCODING 658
SWIDTH 500 0
DWIDTH 12 0
BBX 10 15 1 -2
BITMAP
7F00
7F80
0300
0E00
1800
3F00
3F80
0180
00C0
00C0
00C0
C0C0
6180
7F80
1E00
ENDCHAR
STARTCHAR 0294
ENCODING 660
SWIDTH 500 0
DWIDTH 12 0
BBX 10 17 1 1
BITMAP
3E00
7F00
C380
01C0
00C0
00C0
00C0
00C0
01C0
0180
0780
1E00
1800
1800
1800
1800
1800
ENDCHAR
STARTCHAR 0295
ENCODING 661
SWIDTH 500 0
DWIDTH 12 0
BBX 10 17 1 1
BITMAP
1F00
3F80
70C0
E000
C000
C000
C000
C000
C000
6000
7800
1E00
0600
0600
0600
0600
0600
ENDCHAR
STARTCHAR 0298
ENCODING 664
SWIDTH 500 0
DWIDTH 12 0
BBX 10 12 1 1
BITMAP
1E00
6100
4080
C0C0
8C40
9E40
9E40
8C40
C0C0
4080
2100
1E00
ENDCHAR
STARTCHAR 029D
ENCODING 669
SWIDTH 500 0
DWIDTH 12 0
BBX 10 20 1 -3
BITMAP
0600
0600
0000
0000
0000
0600
0600
0600
0600
0600
0600
0600
0600
0600
0600
7E00
FE00
C700
FFC0
7C80
ENDCHAR
STARTCHAR 02A1
ENCODING 673
SWIDTH 500 0
DWIDTH 12 0
BBX 8 17 2 1
BITMAP
78
FE
C6
07
03
03
03
03
07
06
1E
38
30
FC
30
30
30
ENDCHAR
STARTCHAR 02A2
ENCODING 674
SWIDTH 500 0
DWIDTH 12 0
BBX 8 17 2 1
BITMAP
1E
7F
63
E0
C0
C0
C0
C0
C0
60
78
1C
0C
3F
0C
0C
0C
ENDCHAR
STARTCHAR 02C7
ENCODING 711
SWIDTH 500 0
DWIDTH 12 0
BBX 8 3 2 15
BITMAP
C3
7E
3C
ENDCHAR
STARTCHAR 02C8
ENCODING 712
SWIDTH 500 0
DWIDTH 12 0
BBX 1 3 5 18
BITMAP
80
80
80
ENDCHAR
STARTCHAR 02CC
ENCODING 716
SWIDTH 500 0
DWIDTH 12 0
BBX 1 3 5 -3
BITMAP
80
80
80
ENDCHAR
STARTCHAR 02D0
ENCODING 720
SWIDTH 500 0
DWIDTH 12 0
BBX 4 12 4 1
BITMAP
F0
60
60
40
00
00
00
00
40
60
60
F0
ENDCHAR
STARTCHAR 02D1
ENCODING 721
SWIDTH 500 0
DWIDTH 12 0
BBX 4 3 4 9
BITMAP
F0
60
60
ENDCHAR
STARTCHAR 02D8
ENCODING 728
SWIDTH 500 0
DWIDTH 12 0
BBX 8 3 2 15
BITMAP
C3
66
3C
ENDCHAR
STARTCHAR 02D9
ENCODING 729
SWIDTH 500 0
DWIDTH 12 0
BBX 3 3 5 15
BITMAP
E0
E0
E0
ENDCHAR
STARTCHAR 02DB
ENCODING 731
SWIDTH 500 0
DWIDTH 12 0
BBX 6 5 3 -1
BITMAP
30
60
C0
C4
78
ENDCHAR
STARTCHAR 02DC
ENCODING 732
SWIDTH 500 0
DWIDTH 12 0
BBX 8 2 2 16
BITMAP
FF
FF
ENDCHAR
STARTCHAR 02DD
ENCODING 733
SWIDTH 500 0
DWIDTH 12 0
BBX 8 3 2 15
BITMAP
33
66
CC
ENDCHAR
STARTCHAR 02DE
ENCODING 734
SWIDTH 500 0
DWIDTH 12 0
BBX 7 5 2 6
BITMAP
20
E0
22
12
0C
ENDCHAR
STARTCHAR 02E5
ENCODING 741
SWIDTH 500 0
DWIDTH 12 0
BBX 7 24 2 -3
BITMAP
FE
FE
02
02
02
02
02
02
02
02
02
02
02
02
02
02
02
02
02
02
02
02
02
02
ENDCHAR
STARTCHAR 02E6
ENCODING 742
SWIDTH 500 0
DWIDTH 12 0
BBX 7 24 2 -3
BITMAP
02
02
02
02
02
FE
FE
02
02
02
02
02
02
02
02
02
02
02
02
02
02
02
02
02
ENDCHAR
STARTCHAR 02E7
ENCODING 743
SWIDTH 500 0
DWIDTH 12 0
BBX 7 24 2 -3
BITMAP
02
02
02
02
02
02
02
02
02
02
02
FE
FE
02
02
02
02
02
02
02
02
02
02
02
ENDCHAR
STARTCHAR 02E8
ENCODING 744
SWIDTH 500 0
DWIDTH 12 0
BBX 7 24 2 -3
BITMAP
02
02
02
02
02
02
02
02
02
02
02
02
02
02
02
02
02
FE
FE
02
02
02
02
02
ENDCHAR
STARTCHAR 02E9
ENCODING 745
SWIDTH 500 0
DWIDTH 12 0
BBX 7 24 2 -3
BITMAP
02
02
02
02
02
02
02
02
02
02
02
02
02
02
02
02
02
02
02
02
02
02
FE
FE
ENDCHAR
STARTCHAR 0300
ENCODING 768
SWIDTH 500 0
DWIDTH 12 0
BBX 3 2 4 19
BITMAP
C0
20
ENDCHAR
STARTCHAR 0301
ENCODING 769
SWIDTH 500 0
DWIDTH 12 0
BBX 3 2 5 19
BITMAP
60
80
ENDCHAR
STARTCHAR 0302
ENCODING 770
SWIDTH 500 0
DWIDTH 12 0
BBX 6 2 3 19
BITMAP
38
CC
ENDCHAR
STARTCHAR 0303
ENCODING 771
SWIDTH 500 0
DWIDTH 12 0
BBX 6 2 3 19
BITMAP
E0
1C
ENDCHAR
STARTCHAR 0304
ENCODING 772
SWIDTH 500 0
DWIDTH 12 0
BBX 6 1 3 20
BITMAP
FC
ENDCHAR
STARTCHAR 0306
ENCODING 774
SWIDTH 500 0
DWIDTH 12 0
BBX 6 2 3 19
BITMAP
CC
78
ENDCHAR
STARTCHAR 0308
ENCODING 776
SWIDTH 500 0
DWIDTH 12 0
BBX 6 2 3 19
BITMAP
CC
CC
ENDCHAR
STARTCHAR 030B
ENCODING 779
SWIDTH 500 0
DWIDTH 12 0
BBX 5 2 4 19
BITMAP
68
90
ENDCHAR
STARTCHAR 030C
ENCODING 780
SWIDTH 500 0
DWIDTH 12 0
BBX 6 2 3 19
BITMAP
CC
78
ENDCHAR
STARTCHAR 030F
ENCODING 783
SWIDTH 500 0
DWIDTH 12 0
BBX 5 2 3 19
BITMAP
B0
48
ENDCHAR
STARTCHAR 0318
ENCODING 792
SWIDTH 500 0
DWIDTH 12 0
BBX 3 3 4 -3
BITMAP
20
E0
20
ENDCHAR
STARTCHAR 0319
ENCODING 793
SWIDTH 500 0
DWIDTH 12 0
BBX 3 3 5 -3
BITMAP
80
E0
80
ENDCHAR
STARTCHAR 031A
ENCODING 794
SWIDTH 500 0
DWIDTH 12 0
BBX 4 3 7 18
BITMAP
F0
10
10
ENDCHAR
STARTCHAR 031C
ENCODING 796
SWIDTH 500 0
DWIDTH 12 0
BBX 3 3 4 -2
BITMAP
E0
80
60
ENDCHAR
STARTCHAR 031D
ENCODING 797
SWIDTH 500 0
DWIDTH 12 0
BBX 4 2 4 -2
BITMAP
40
F0
ENDCHAR
STARTCHAR 031E
ENCODING 798
SWIDTH 500 0
DWIDTH 12 0
BBX 4 3 4 -3
BITMAP
F0
40
40
ENDCHAR
STARTCHAR 031F
ENCODING 799
SWIDTH 500 0
DWIDTH 12 0
BBX 6 3 3 -3
BITMAP
20
FC
20
ENDCHAR
STARTCHAR 0320
ENCODING 800
SWIDTH 500 0
DWIDTH 12 0
BBX 6 1 3 -2
BITMAP
FC
ENDCHAR
STARTCHAR 0324
ENCODING 804
SWIDTH 500 0
DWIDTH 12 0
BBX 6 2 3 -2
BITMAP
CC
CC
ENDCHAR
STARTCHAR 0325
ENCODING 805
SWIDTH 500 0
DWIDTH 12 0
BBX 4 4 4 -3
BITMAP
60
90
90
60
ENDCHAR
STARTCHAR 0329
ENCODING 809
SWIDTH 500 0
DWIDTH 12 0
BBX 1 3 5 -3
BITMAP
80
80
80
ENDCHAR
STARTCHAR 032A
ENCODING 810
SWIDTH 500 0
DWIDTH 12 0
BBX 6 3 3 -3
BITMAP
FC
84
84
ENDCHAR
STARTCHAR 032C
ENCODING 812
SWIDTH 500 0
DWIDTH 12 0
BBX 6 2 3 -2
BITMAP
CC
78
ENDCHAR
STARTCHAR 032F
ENCODING 815
SWIDTH 500 0
DWIDTH 12 0
BBX 6 2 3 -2
BITMAP
78
CC
ENDCHAR
STARTCHAR 0330
ENCODING 816
SWIDTH 500 0
DWIDTH 12 0
BBX 6 2 3 -2
BITMAP
E0
1C
ENDCHAR
STARTCHAR 0334
ENCODING 820
SWIDTH 500 0
DWIDTH 12 0
BBX 6 2 3 8
BITMAP
F0
1C
ENDCHAR
STARTCHAR 0339
ENCODING 825
SWIDTH 500 0
DWIDTH 12 0
BBX 3 3 5 -2
BITMAP
E0
20
C0
ENDCHAR
STARTCHAR 033A
ENCODING 826
SWIDTH 500 0
DWIDTH 12 0
BBX 6 2 3 -2
BITMAP
84
FC
ENDCHAR
STARTCHAR 033B
ENCODING 827
SWIDTH 500 0
DWIDTH 12 0
BBX 6 2 3 -2
BITMAP
FC
FC
ENDCHAR
STARTCHAR 033C
ENCODING 828
SWIDTH 500 0
DWIDTH 12 0
BBX 8 2 2 -3
BITMAP
66
99
ENDCHAR
STARTCHAR 033D
ENCODING 829
SWIDTH 500 0
DWIDTH 12 0
BBX 4 2 4 19
BITMAP
F0
F0
ENDCHAR
STARTCHAR 0361
ENCODING 865
SWIDTH 500 0
DWIDTH 12 0
BBX 10 3 1 18
BITMAP
3F00
E1C0
8040
ENDCHAR
STARTCHAR 0391
ENCODING 913
SWIDTH 1000 0
DWIDTH 24 0
BBX 16 17 4 1
BITMAP
03C0
03C0
03C0
0660
0660
0E70
0C30
0C30
1C38
1818
1FF8
3FFC
300C
700E
6006
6006
E007
ENDCHAR
STARTCHAR 0392
ENCODING 914
SWIDTH 1000 0
DWIDTH 24 0
BBX 14 17 6 1
BITMAP
FFC0
FFF0
C038
C018
C018
C018
C030
FFC0
FFF0
C038
C00C
C00C
C00C
C00C
C038
FFF0
FFE0
ENDCHAR
STARTCHAR 0393
ENCODING 915
SWIDTH 1000 0
DWIDTH 24 0
BBX 13 17 6 1
BITMAP
FFF8
FFF8
C000
C000
C000
C000
C000
C000
C000
C000
C000
C000
C000
C000
C000
C000
C000
ENDCHAR
STARTCHAR 0394
ENCODING 916
SWIDTH 1000 0
DWIDTH 24 0
BBX 16 17 4 1
BITMAP
03C0
03C0
03C0
0660
0660
0E70
0C30
1C38
1818
1818
380C
300C
700E
6006
6006
FFFF
FFFF
ENDCHAR
STARTCHAR 0395
ENCODING 917
SWIDTH 1000 0
DWIDTH 24 0
BBX 13 17 6 1
BITMAP
FFF0
FFF0
C000
C000
C000
C000
C000
FFE0
FFE0
C000
C000
C000
C000
C000
C000
FFF8
FFF8
ENDCHAR
STARTCHAR 0396
ENCODING 918
SWIDTH 1000 0
DWIDTH 24 0
BBX 14 17 5 1
BITMAP
7FF8
7FF8
0038
0070
00E0
00C0
0180
0380
0700
0E00
0C00
1C00
3800
7000
E000
FFFC
FFFC
ENDCHAR
STARTCHAR 0397
ENCODING 919
SWIDTH 1000 0
DWIDTH 24 0
BBX 14 17 5 1
BITMAP
C00C
C00C
C00C
C00C
C00C
C00C
C00C
FFFC
FFFC
C00C
C00C
C00C
C00C
C00C
C00C
C00C
C00C
ENDCHAR
STARTCHAR 0398
ENCODING 920
SWIDTH 1000 0
DWIDTH 24 0
BBX 16 18 4 1
BITMAP
07E0
1FF8
3C3C
300C
6006
6006
C003
C003
CFF3
CFF3
C003
C003
6006
6006
300C
3C3C
1FF8
07E0
ENDCHAR
STARTCHAR 0399
ENCODING 921
SWIDTH 1000 0
DWIDTH 24 0
BBX 2 17 11 1
BITMAP
C0
C0
C0
C0
C0
C0
C0
C0
C0
C0
C0
C0
C0
C0
C0
C0
C0
ENDCHAR
STARTCHAR 039A
ENCODING 922
SWIDTH 1000 0
DWIDTH 24 0
BBX 14 17 5 1
BITMAP
C038
C070
C0E0
C1C0
C380
C700
CE00
DE00
F700
E380
C180
C0C0
C0E0
C070
C038
C01C
C01C
ENDCHAR
STARTCHAR 039B
ENCODING 923
SWIDTH 1000 0
DWIDTH 24 0
BBX 16 17 4 1
BITMAP
0180
03C0
03C0
07E0
0660
0660
0C30
0C30
1C38
1818
1818
381C
300C
300C
6006
6006
E007
ENDCHAR
STARTCHAR 039C
ENCODING 924
SWIDTH 1000 0
DWIDTH 24 0
BBX 18 17 3 1
BITMAP
E003C0
F003C0
F003C0
D806C0
D806C0
D806C0
CC0CC0
CC0CC0
CE1CC0
C618C0
C618C0
C330C0
C330C0
C370C0
C1E0C0
C1E0C0
C1C0C0
ENDCHAR
STARTCHAR 039D
ENCODING 925
SWIDTH 1000 0
DWIDTH 24 0
BBX 14 17 5 1
BITMAP
E00C
F00C
F80C
D80C
CC0C
CE0C
C60C
C30C
C30C
C18C
C1CC
C0CC
C06C
C07C
C03C
C01C
C01C
ENDCHAR
STARTCHAR 039E
ENCODING 926
SWIDTH 1000 0
DWIDTH 24 0
BBX 14 17 5 1
BITMAP
7FF8
7FF8
0000
0000
0000
0000
0000
7FF8
7FF8
0000
0000
0000
0000
0000
0000
FFFC
FFFC
ENDCHAR
STARTCHAR 039F
ENCODING 927
SWIDTH 1000 0
DWIDTH 24 0
BBX 16 18 4 1
BITMAP
07E0
1FF8
3C3C
300C
6006
6006
C003
C003
C003
C003
C003
C003
6006
6006
300C
3C3C
1FF8
07E0
ENDCHAR
STARTCHAR 03A0
ENCODING 928
SWIDTH 1000 0
DWIDTH 24 0
BBX 14 17 5 1
BITMAP
FFFC
FFFC
C00C
C00C
C00C
C00C
C00C
C00C
C00C
C00C
C00C
C00C
C00C
C00C
C00C
C00C
C00C
ENDCHAR
STARTCHAR 03A1
ENCODING 929
SWIDTH 1000 0
DWIDTH 24 0
BBX 13 17 6 1
BITMAP
FFC0
FFF0
C070
C018
C018
C018
C018
C070
FFF0
FFC0
C000
C000
C000
C000
C000
C000
C000
ENDCHAR
STARTCHAR 03A3
ENCODING 931
SWIDTH 1000 0
DWIDTH 24 0
BBX 14 17 5 1
BITMAP
FFFC
FFFC
6000
3000
1800
0E00
0700
0380
0180
0300
0600
0C00
1800
3000
6000
FFFC
FFFC
ENDCHAR
STARTCHAR 03A4
ENCODING 932
SWIDTH 1000 0
DWIDTH 24 0
BBX 14 17 5 1
BITMAP
FFFC
FFFC
0300
0300
0300
0300
0300
0300
0300
0300
0300
0300
0300
0300
0300
0300
0300
ENDCHAR
STARTCHAR 03A5
ENCODING 933
SWIDTH 1000 0
DWIDTH 24 0
BBX 14 17 5 1
BITMAP
C00C
E01C
7038
3030
3870
1860
0CC0
0FC0
0780
0300
0300
0300
0300
0300
0300
0300
0300
ENDCHAR
STARTCHAR 03A6
ENCODING 934
SWIDTH 1000 0
DWIDTH 24 0
BBX 16 17 4 1
BITMAP
0180
0180
03C0
1FF8
399C
6186
C183
C183
C183
C183
C183
6186
399C
1FF8
03C0
0180
0180
ENDCHAR
STARTCHAR 03A7
ENCODING 935
SWIDTH 1000 0
DWIDTH 24 0
BBX 16 17 4 1
BITMAP
700E
381C
1818
1C38
0E70
0660
03C0
03C0
03C0
03C0
0660
0E70
1C38
381C
381C
700E
E007
ENDCHAR
STARTCHAR 03A8
ENCODING 936
SWIDTH 1000 0
DWIDTH 24 0
BBX 14 17 5 1
BITMAP
C30C
C30C
C30C
C30C
C30C
C30C
C30C
C30C
C30C
6318
7338
3FF0
0FC0
0300
0300
0300
0300
ENDCHAR
STARTCHAR 03A9
ENCODING 937
SWIDTH 1000 0
DWIDTH 24 0
BBX 16 18 4 1
BITMAP
07E0
1FF8
3C3C
700E
6006
E007
C003
C003
C003
C003
C007
6006
700E
381C
0E70
0660
FE7F
FE7F
ENDCHAR
STARTCHAR 03B1
ENCODING 945
SWIDTH 1000 0
DWIDTH 24 0
BBX 14 12 5 2
BITMAP
0F8C
1F98
3998
70F0
60F0
E0E0
C0C0
C1C0
C3CC
C7CC
7E78
3870
ENDCHAR
STARTCHAR 03B2
ENCODING 946
SWIDTH 1000 0
DWIDTH 24 0
BBX 13 21 5 -2
BITMAP
01E0
07F0
0638
0C18
1818
1818
1818
3030
37E0
33C0
6060
6030
6030
6030
6030
F860
DFE0
C780
C000
C000
C000
ENDCHAR
STARTCHAR 03B3
ENCODING 947
SWIDTH 1000 0
DWIDTH 24 0
BBX 14 15 5 -2
BITMAP
1800
7C0C
E61C
C238
0270
0360
03C0
0380
0300
0300
0600
0600
0E00
0E00
0C00
ENDCHAR
STARTCHAR 03B4
ENCODING 948
SWIDTH 1000 0
DWIDTH 24 0
BBX 12 18 6 1
BITMAP
0F00
1FC0
18E0
1870
0C10
0E00
0300
0F80
38C0
6060
6060
C060
C060
C0E0
C0C0
E3C0
7F80
3E00
ENDCHAR
STARTCHAR 03B5
ENCODING 949
SWIDTH 1000 0
DWIDTH 24 0
BBX 10 12 7 2
BITMAP
1F00
7FC0
60C0
6000
6000
3F00
6F00
C000
C000
C1C0
FF80
3E00
ENDCHAR
STARTCHAR 03B6
ENCODING 950
SWIDTH 1000 0
DWIDTH 24 0
BBX 12 21 7 -2
BITMAP
1070
18F0
33E0
3780
1E00
1C00
1800
3000
3000
6000
6000
4000
C000
C000
F800
FF00
0780
0180
0180
7F00
3E00
ENDCHAR
STARTCHAR 03B7
ENCODING 951
SWIDTH 1000 0
DWIDTH 24 0
BBX 13 15 5 -2
BITMAP
3870
7DF8
CF18
CE18
0C18
0C18
1C30
1830
1830
3030
3060
3060
0060
0060
00E0
ENDCHAR
STARTCHAR 03B8
ENCODING 952
SWIDTH 1000 0
DWIDTH 24 0
BBX 12 17 6 1
BITMAP
07C0
0FE0
1C60
3030
3030
6030
6030
FFF0
FFF0
C070
C060
C060
C0E0
C1C0
6380
7F00
1E00
ENDCHAR
STARTCHAR 03B9
ENCODING 953
SWIDTH 1000 0
DWIDTH 24 0
BBX 8 12 8 1
BITMAP
18
38
30
30
60
60
40
C0
C3
C6
FC
78
ENDCHAR
STARTCHAR 03BA
ENCODING 954
SWIDTH 1000 0
DWIDTH 24 0
BBX 12 12 6 2
BITMAP
1830
18F0
31C0
3700
3E00
3C00
6600
6600
6210
6330
C3E0
C1C0
ENDCHAR
STARTCHAR 03BB
ENCODING 955
SWIDTH 1000 0
DWIDTH 24 0
BBX 13 18 5 1
BITMAP
0F00
1F80
39C0
00C0
00C0
00C0
00C0
01C0
03C0
03C0
06C0
0C40
1C60
1860
3860
7030
6030
E038
ENDCHAR
STARTCHAR 03BC
ENCODING 956
SWIDTH 1000 0
DWIDTH 24 0
BBX 15 15 5 -2
BITMAP
1830
1830
1830
3030
3030
3060
3060
7060
70E2
79E6
7FBC
CE38
C000
C000
C000
ENDCHAR
STARTCHAR 03BD
ENCODING 957
SWIDTH 1000 0
DWIDTH 24 0
BBX 11 12 7 1
BITMAP
C060
C060
6060
60E0
60C0
60C0
6180
6380
6700
4E00
F800
E000
ENDCHAR
STARTCHAR 03BE
ENCODING 958
SWIDTH 1000 0
DWIDTH 24 0
BBX 11 21 6 -2
BITMAP
1800
0FE0
0C00
1800
3000
3000
3000
1DE0
0FE0
3800
6000
C000
C000
C000
7000
1F00
01C0
00C0
00C0
3FC0
3F00
ENDCHAR
STARTCHAR 03BF
ENCODING 959
SWIDTH 1000 0
DWIDTH 24 0
BBX 11 12 6 2
BITMAP
0F80
1FC0
30E0
6060
E060
C060
C060
C0E0
C0C0
E180
7F80
3E00
ENDCHAR
STARTCHAR 03C0
ENCODING 960
SWIDTH 1000 0
DWIDTH 24 0
BBX 13 13 6 1
BITMAP
0008
7FF8
FFF0
D880
1980
1180
3180
3100
2300
6308
6338
C3F0
C1E0
ENDCHAR
STARTCHAR 03C1
ENCODING 961
SWIDTH 1000 0
DWIDTH 24 0
BBX 12 15 5 -1
BITMAP
07C0
0FE0
1C60
1830
3030
3030
3030
7030
7060
78E0
6FC0
6780
6000
C000
C000
ENDCHAR
STARTCHAR 03C2
ENCODING 962
SWIDTH 500 0
DWIDTH 12 0
BBX 9 15 2 -2
BITMAP
3E00
7F00
E380
C180
C000
C000
6000
6000
3800
0C00
0400
0600
8600
FE00
7C00
ENDCHAR
STARTCHAR 03C3
ENCODING 963
SWIDTH 1000 0
DWIDTH 24 0
BBX 13 12 6 1
BITMAP
07F8
1FF8
38C0
6060
6060
C060
C060
C0E0
C0C0
E1C0
7F80
3E00
ENDCHAR
STARTCHAR 03C4
ENCODING 964
SWIDTH 1000 0
DWIDTH 24 0
BBX 13 13 6 1
BITMAP
0010
7FF8
FFE0
4600
0C00
0C00
0C00
1800
1800
1840
18E0
1FC0
0F00
ENDCHAR
STARTCHAR 03C5
ENCODING 965
SWIDTH 1000 0
DWIDTH 24 0
BBX 13 12 5 2
BITMAP
3C30
7C30
CC38
0C18
1818
1818
1018
3030
3030
30E0
1FC0
0F80
ENDCHAR
STARTCHAR 03C6
ENCODING 966
SWIDTH 1000 0
DWIDTH 24 0
BBX 14 19 5 -2
BITMAP
00C0
00C0
00C0
0080
07C0
1FF0
3198
610C
C30C
C30C
C30C
C20C
E618
7638
3FE0
0F80
0C00
0C00
0C00
ENDCHAR
STARTCHAR 03C7
ENCODING 967
SWIDTH 1000 0
DWIDTH 24 0
BBX 13 15 5 -1
BITMAP
3C38
7E30
2660
06E0
02C0
0380
0380
0300
0700
0F00
1D00
1980
3198
61F0
E0E0
ENDCHAR
STARTCHAR 03C8
ENCODING 968
SWIDTH 1000 0
DWIDTH 24 0
BBX 14 19 5 -2
BITMAP
00C0
00C0
00C0
0080
0980
3998
7198
630C
C30C
C30C
C30C
C61C
E618
6670
3FE0
0F80
0C00
0C00
1800
ENDCHAR
STARTCHAR 03C9
ENCODING 969
SWIDTH 1000 0
DWIDTH 24 0
BBX 16 12 4 2
BITMAP
0C04
1C0E
3806
7083
6183
C183
C183
C183
C386
E78E
7EFC
3878
ENDCHAR
STARTCHAR 0401
ENCODING 1025
SWIDTH 1000 0
DWIDTH 24 0
BBX 13 20 6 1
BITMAP
30C0
30C0
0000
FFF0
FFF0
C000
C000
C000
C000
C000
FFE0
FFE0
C000
C000
C000
C000
C000
C000
FFF8
FFF8
ENDCHAR
STARTCHAR 0410
ENCODING 1040
SWIDTH 1000 0
DWIDTH 24 0
BBX 16 17 4 1
BITMAP
03C0
03C0
03C0
0660
0660
0E70
0C30
0C30
1C38
1818
1FF8
3FFC
300C
700E
6006
6006
E007
ENDCHAR
STARTCHAR 0411
ENCODING 1041
SWIDTH 1000 0
DWIDTH 24 0
BBX 14 17 6 1
BITMAP
FFF8
FFF8
C000
C000
C000
C000
C000
FFC0
FFF0
C038
C00C
C00C
C00C
C00C
C038
FFF0
FFE0
ENDCHAR
STARTCHAR 0412
ENCODING 1042
SWIDTH 1000 0
DWIDTH 24 0
BBX 14 17 6 1
BITMAP
FFC0
FFF0
C038
C018
C018
C018
C030
FFC0
FFF0
C038
C00C
C00C
C00C
C00C
C038
FFF0
FFE0
ENDCHAR
STARTCHAR 0413
ENCODING 1043
SWIDTH 1000 0
DWIDTH 24 0
BBX 13 17 6 1
BITMAP
FFF8
FFF8
C000
C000
C000
C000
C000
C000
C000
C000
C000
C000
C000
C000
C000
C000
C000
ENDCHAR
STARTCHAR 0414
ENCODING 1044
SWIDTH 1000 0
DWIDTH 24 0
BBX 16 19 4 -1
BITMAP
0FFC
0FFC
0C0C
0C0C
0C0C
0C0C
0C0C
0C0C
1C0C
180C
180C
180C
380C
300C
300C
FFFF
FFFF
C003
C003
ENDCHAR
STARTCHAR 0415
ENCODING 1045
SWIDTH 1000 0
DWIDTH 24 0
BBX 13 17 6 1
BITMAP
FFF0
FFF0
C000
C000
C000
C000
C000
FFE0
FFE0
C000
C000
C000
C000
C000
C000
FFF8
FFF8
ENDCHAR
STARTCHAR 0416
ENCODING 1046
SWIDTH 1000 0
DWIDTH 24 0
BBX 19 17 2 1
BITMAP
7060E0
3060C0
3060C0
3060C0
186180
1C6380
0E6700
07FE00
06E600
066600
0C6300
0C6300
186180
3861C0
3060C0
7060E0
E06060
ENDCHAR
STARTCHAR 0417
ENCODING 1047
SWIDTH 1000 0
DWIDTH 24 0
BBX 13 18 5 1
BITMAP
0FC0
3FE0
7830
6018
E018
0018
0038
0070
07C0
07E0
0030
0018
0018
0018
C038
E070
7FE0
1F80
ENDCHAR
STARTCHAR 0418
ENCODING 1048
SWIDTH 1000 0
DWIDTH 24 0
BBX 14 17 5 1
BITMAP
C00C
C00C
C00C
C01C
C03C
C06C
C0CC
C38C
C70C
CE0C
DC0C
F80C
F00C
E00C
C00C
C00C
C00C
ENDCHAR
STARTCHAR 0419
ENCODING 1049
SWIDTH 1000 0
DWIDTH 24 0
BBX 14 20 5 1
BITMAP
1860
1FE0
0780
C00C
C00C
C00C
C03C
C07C
C0EC
C1CC
C38C
C70C
CE0C
DC0C
F80C
F00C
E00C
C00C
C00C
C00C
ENDCHAR
STARTCHAR 041A
ENCODING 1050
SWIDTH 1000 0
DWIDTH 24 0
BBX 14 17 5 1
BITMAP
C018
C038
C030
C030
C060
C0E0
C3C0
FF00
FF00
C180
C1C0
C0E0
C060
C070
C038
C018
C01C
ENDCHAR
STARTCHAR 041B
ENCODING 1051
SWIDTH 1000 0
DWIDTH 24 0
BBX 16 17 2 1
BITMAP
01FF
01FF
0183
0183
0183
0183
0183
0183
0183
0183
0183
0303
0303
E303
6603
7E03
3C03
ENDCHAR
STARTCHAR 041C
ENCODING 1052
SWIDTH 1000 0
DWIDTH 24 0
BBX 18 17 3 1
BITMAP
E003C0
F003C0
F003C0
D806C0
D806C0
D806C0
CC0CC0
CC0CC0
CE1CC0
C618C0
C618C0
C330C0
C330C0
C370C0
C1E0C0
C1E0C0
C1C0C0
ENDCHAR
STARTCHAR 041D
ENCODING 1053
SWIDTH 1000 0
DWIDTH 24 0
BBX 14 17 5 1
BITMAP
C00C
C00C
C00C
C00C
C00C
C00C
C00C
FFFC
FFFC
C00C
C00C
C00C
C00C
C00C
C00C
C00C
C00C
ENDCHAR
STARTCHAR 041E
ENCODING 1054
SWIDTH 1000 0
DWIDTH 24 0
BBX 16 18 4 1
BITMAP
07E0
1FF8
3C3C
300C
6006
6006
C003
C003
C003
C003
C003
C003
6006
6006
300C
3C3C
1FF8
07E0
ENDCHAR
STARTCHAR 041F
ENCODING 1055
SWIDTH 1000 0
DWIDTH 24 0
BBX 14 17 5 1
BITMAP
FFFC
FFFC
C00C
C00C
C00C
C00C
C00C
C00C
C00C
C00C
C00C
C00C
C00C
C00C
C00C
C00C
C00C
ENDCHAR
STARTCHAR 0420
ENCODING 1056
SWIDTH 1000 0
DWIDTH 24 0
BBX 13 17 6 1
BITMAP
FFC0
FFF0
C070
C018
C018
C018
C018
C070
FFF0
FFC0
C000
C000
C000
C000
C000
C000
C000
ENDCHAR
STARTCHAR 0421
ENCODING 1057
SWIDTH 1000 0
DWIDTH 24 0
BBX 16 18 4 1
BITMAP
07E0
1FF0
3C38
380C
700E
6006
E000
C000
C000
C000
C000
C000
E007
6006
700E
383C
1FF8
07E0
ENDCHAR
STARTCHAR 0422
ENCODING 1058
SWIDTH 1000 0
DWIDTH 24 0
BBX 14 17 5 1
BITMAP
FFFC
FFFC
0300
0300
0300
0300
0300
0300
0300
0300
0300
0300
0300
0300
0300
0300
0300
ENDCHAR
STARTCHAR 0423
ENCODING 1059
SWIDTH 1000 0
DWIDTH 24 0
BBX 13 17 6 1
BITMAP
C018
C018
6038
6030
3070
3060
1860
18C0
0CC0
0DC0
0780
0780
0300
0300
0600
FE00
FC00
ENDCHAR
STARTCHAR 0424
ENCODING 1060
SWIDTH 1000 0
DWIDTH 24 0
BBX 16 17 4 1
BITMAP
0180
0180
03C0
1FF8
399C
6186
E183
C183
C183
C183
C187
6186
399C
1FF8
0180
0180
0180
ENDCHAR
STARTCHAR 0425
ENCODING 1061
SWIDTH 1000 0
DWIDTH 24 0
BBX 16 17 4 1
BITMAP
700E
381C
1818
1C38
0E70
0660
03C0
03C0
03C0
03C0
0660
0E70
1C38
381C
381C
700E
E007
ENDCHAR
STARTCHAR 0426
ENCODING 1062
SWIDTH 1000 0
DWIDTH 24 0
BBX 16 19 5 -1
BITMAP
C018
C018
C018
C018
C018
C018
C018
C018
C018
C018
C018
C018
C018
C018
C018
FFFF
FFFF
0003
0003
ENDCHAR
STARTCHAR 0427
ENCODING 1063
SWIDTH 1000 0
DWIDTH 24 0
BBX 12 17 6 1
BITMAP
C030
C030
C030
C030
C030
C030
C030
C030
C070
E1F0
7FB0
3E30
0030
0030
0030
0030
0030
ENDCHAR
STARTCHAR 0428
ENCODING 1064
SWIDTH 1000 0
DWIDTH 24 0
BBX 18 17 3 1
BITMAP
C0C0C0
C0C0C0
C0C0C0
C0C0C0
C0C0C0
C0C0C0
C0C0C0
C0C0C0
C0C0C0
C0C0C0
C0C0C0
C0C0C0
C0C0C0
C0C0C0
C0C0C0
FFFFC0
FFFFC0
ENDCHAR
STARTCHAR 0429
ENCODING 1065
SWIDTH 1000 0
DWIDTH 24 0
BBX 19 19 3 -1
BITMAP
C0C180
C0C180
C0C180
C0C180
C0C180
C0C180
C0C180
C0C180
C0C180
C0C180
C0C180
C0C180
C0C180
C0C180
C0C180
FFFFE0
FFFFE0
000060
000060
ENDCHAR
STARTCHAR 042A
ENCODING 1066
SWIDTH 1000 0
DWIDTH 24 0
BBX 16 17 3 1
BITMAP
FC00
FC00
0C00
0C00
0C00
0C00
0C00
0FF8
0FFE
0C06
0C03
0C03
0C03
0C03
0C06
0FFE
0FF8
ENDCHAR
STARTCHAR 042B
ENCODING 1067
SWIDTH 1000 0
DWIDTH 24 0
BBX 16 17 4 1
BITMAP
C003
C003
C003
C003
C003
C003
C003
FF83
FFC3
C0E3
C033
C033
C033
C033
C0E3
FFC3
FF03
ENDCHAR
STARTCHAR 042C
ENCODING 1068
SWIDTH 1000 0
DWIDTH 24 0
BBX 14 17 6 1
BITMAP
C000
C000
C000
C000
C000
C000
C000
FFC0
FFF0
C038
C00C
C00C
C00C
C00C
C038
FFF0
FFC0
ENDCHAR
STARTCHAR 042D
ENCODING 1069
SWIDTH 1000 0
DWIDTH 24 0
BBX 15 18 5 1
BITMAP
07C0
1FF0
3878
7018
600C
C00C
0006
1C06
3E26
23E6
01C6
0006
000E
C00C
E01C
7838
3FF0
0FC0
ENDCHAR
STARTCHAR 042E
ENCODING 1070
SWIDTH 1000 0
DWIDTH 24 0
BBX 18 18 4 1
BITMAP
007C00
C1FE00
C3C700
C30380
C70180
C601C0
C600C0
C600C0
FE00C0
FE00C0
C600C0
C600C0
C601C0
C70180
C30380
C3C700
C1FE00
C07C00
ENDCHAR
STARTCHAR 042F
ENCODING 1071
SWIDTH 1000 0
DWIDTH 24 0
BBX 13 17 5 1
BITMAP
1FF8
7FF8
E018
C018
C018
C018
E018
7FF8
1FF8
0618
0C18
1C18
1818
3818
7018
6018
E018
ENDCHAR
STARTCHAR 0430
ENCODING 1072
SWIDTH 1000 0
DWIDTH 24 0
BBX 12 12 6 0
BITMAP
0F00
3FC0
70C0
6060
0060
1FE0
7C60
E060
C060
C1E0
FFF0
7E70
ENDCHAR
STARTCHAR 0431
ENCODING 1073
SWIDTH 1000 0
DWIDTH 24 0
BBX 12 17 6 1
BITMAP
00E0
03C0
0F80
3C00
3000
6000
6FC0
FFE0
E060
C030
C030
C030
C030
6070
70E0
3FC0
0F80
ENDCHAR
STARTCHAR 0432
ENCODING 1074
SWIDTH 1000 0
DWIDTH 24 0
BBX 10 12 7 1
BITMAP
FE00
FF80
C180
C180
C180
FF00
FF80
C1C0
C0C0
C1C0
FFC0
FF00
ENDCHAR
STARTCHAR 0433
ENCODING 1075
SWIDTH 1000 0
DWIDTH 24 0
BBX 9 12 8 1
BITMAP
FF80
FF80
C000
C000
C000
C000
C000
C000
C000
C000
C000
C000
ENDCHAR
STARTCHAR 0434
ENCODING 1076
SWIDTH 1000 0
DWIDTH 24 0
BBX 13 14 5 -1
BITMAP
0FE0
0FE0
0C60
0C60
0C60
1860
1860
1860
3060
3060
FFF8
FFF8
C018
C018
ENDCHAR
STARTCHAR 0435
ENCODING 1077
SWIDTH 1000 0
DWIDTH 24 0
BBX 12 11 6 2
BITMAP
1F80
30C0
6060
C020
FFF0
FFF0
C000
C070
70E0
3FC0
1F80
ENDCHAR
STARTCHAR 0436
ENCODING 1078
SWIDTH 1000 0
DWIDTH 24 0
BBX 16 12 4 1
BITMAP
6186
6186
318C
319C
1DB8
0FF0
1BD8
1998
318C
318C
6186
E187
ENDCHAR
STARTCHAR 0437
ENCODING 1079
SWIDTH 1000 0
DWIDTH 24 0
BBX 10 12 7 2
BITMAP
3E00
7F00
E180
0180
0180
1F00
1F80
01C0
00C0
C1C0
FF80
3F00
ENDCHAR
STARTCHAR 0438
ENCODING 1080
SWIDTH 1000 0
DWIDTH 24 0
BBX 10 12 7 1
BITMAP
C0C0
C0C0
C1C0
C3C0
C7C0
CEC0
DCC0
F8C0
F0C0
E0C0
C0C0
C0C0
ENDCHAR
STARTCHAR 0439
ENCODING 1081
SWIDTH 1000 0
DWIDTH 24 0
BBX 10 16 7 1
BITMAP
6180
3F00
1E00
0000
C0C0
C0C0
C1C0
C3C0
C7C0
CEC0
DCC0
F8C0
F0C0
E0C0
C0C0
C0C0
ENDCHAR
STARTCHAR 043A
ENCODING 1082
SWIDTH 1000 0
DWIDTH 24 0
BBX 11 12 7 1
BITMAP
C0C0
C1C0
C180
C380
C700
FE00
F600
C300
C380
C180
C0C0
C0E0
ENDCHAR
STARTCHAR 043B
ENCODING 1083
SWIDTH 1000 0
DWIDTH 24 0
BBX 13 12 4 1
BITMAP
07F8
07F8
0618
0618
0618
0618
0618
0618
CE18
CC18
FC18
7818
ENDCHAR
STARTCHAR 043C
ENCODING 1084
SWIDTH 1000 0
DWIDTH 24 0
BBX 12 12 6 1
BITMAP
E0F0
F0F0
F0F0
F0F0
D9B0
D9B0
D9B0
CB30
CF30
CF30
C630
C630
ENDCHAR
STARTCHAR 043D
ENCODING 1085
SWIDTH 1000 0
DWIDTH 24 0
BBX 10 12 7 1
BITMAP
C0C0
C0C0
C0C0
C0C0
C0C0
FFC0
FFC0
C0C0
C0C0
C0C0
C0C0
C0C0
ENDCHAR
STARTCHAR 043E
ENCODING 1086
SWIDTH 1000 0
DWIDTH 24 0
BBX 12 12 6 2
BITMAP
1F80
3FC0
70E0
E060
C030
C030
C030
C030
E070
70E0
3FC0
1F80
ENDCHAR
STARTCHAR 043F
ENCODING 1087
SWIDTH 1000 0
DWIDTH 24 0
BBX 10 12 7 1
BITMAP
FFC0
FFC0
C0C0
C0C0
C0C0
C0C0
C0C0
C0C0
C0C0
C0C0
C0C0
C0C0
ENDCHAR
STARTCHAR 0440
ENCODING 1088
SWIDTH 1000 0
DWIDTH 24 0
BBX 12 15 7 -1
BITMAP
DF80
FFE0
F0E0
E070
C030
C030
C030
C030
E060
F0E0
DFC0
CF80
C000
C000
C000
ENDCHAR
STARTCHAR 0441
ENCODING 1089
SWIDTH 1000 0
DWIDTH 24 0
BBX 12 12 6 1
BITMAP
0F80
3FC0
70E0
6060
C000
C000
C000
C000
E070
70E0
3FC0
0F80
ENDCHAR
STARTCHAR 0442
ENCODING 1090
SWIDTH 1000 0
DWIDTH 24 0
BBX 10 12 7 1
BITMAP
FFC0
FFC0
0C00
0C00
0C00
0C00
0C00
0C00
0C00
0C00
0C00
0C00
ENDCHAR
STARTCHAR 0443
ENCODING 1091
SWIDTH 1000 0
DWIDTH 24 0
BBX 12 15 7 -2
BITMAP
C070
C060
6060
60C0
30C0
3180
1980
1B00
0F00
0F00
0600
0600
0C00
FC00
F000
ENDCHAR
STARTCHAR 0444
ENCODING 1092
SWIDTH 1000 0
DWIDTH 24 0
BBX 16 20 4 -2
BITMAP
0180
0180
0180
0180
0180
3DBC
7FFE
63C6
C183
C183
C183
C183
C183
C183
63C6
7FFE
3DBC
0180
0180
0180
ENDCHAR
STARTCHAR 0445
ENCODING 1093
SWIDTH 1000 0
DWIDTH 24 0
BBX 13 12 6 1
BITMAP
E070
70E0
39C0
1980
0F00
0600
0F00
1F80
39C0
70E0
E070
C038
ENDCHAR
STARTCHAR 0446
ENCODING 1094
SWIDTH 1000 0
DWIDTH 24 0
BBX 12 14 7 -1
BITMAP
C0C0
C0C0
C0C0
C0C0
C0C0
C0C0
C0C0
C0C0
C0C0
C0C0
FFF0
FFF0
0030
0030
ENDCHAR
STARTCHAR 0447
ENCODING 1095
SWIDTH 1000 0
DWIDTH 24 0
BBX 10 12 7 1
BITMAP
C0C0
C0C0
C0C0
C0C0
C0C0
E3C0
7FC0
3CC0
00C0
00C0
00C0
00C0
ENDCHAR
STARTCHAR 0448
ENCODING 1096
SWIDTH 1000 0
DWIDTH 24 0
BBX 16 12 4 1
BITMAP
C183
C183
C183
C183
C183
C183
C183
C183
C183
C183
FFFF
FFFF
ENDCHAR
STARTCHAR 0449
ENCODING 1097
SWIDTH 1000 0
DWIDTH 24 0
BBX 17 14 4 -1
BITMAP
C18600
C18600
C18600
C18600
C18600
C18600
C18600
C18600
C18600
C18600
FFFF80
FFFF80
000180
000180
ENDCHAR
STARTCHAR 044A
ENCODING 1098
SWIDTH 1000 0
DWIDTH 24 0
BBX 13 12 5 1
BITMAP
F800
F800
1800
1800
1FE0
1FF0
1838
1818
1818
1838
1FF0
1FE0
ENDCHAR
STARTCHAR 044B
ENCODING 1099
SWIDTH 1000 0
DWIDTH 24 0
BBX 14 12 5 1
BITMAP
C00C
C00C
C00C
C00C
FF0C
FF8C
C1CC
C0CC
C0CC
C1CC
FF8C
FF0C
ENDCHAR
STARTCHAR 044C
ENCODING 1100
SWIDTH 1000 0
DWIDTH 24 0
BBX 11 12 7 1
BITMAP
C000
C000
C000
C000
FF80
FFC0
C0E0
C060
C060
C0E0
FFC0
FF00
ENDCHAR
STARTCHAR 044D
ENCODING 1101
SWIDTH 1000 0
DWIDTH 24 0
BBX 11 12 7 1
BITMAP
1E00
7F00
E1C0
C0C0
0060
3E60
3E60
0060
C0E0
E1C0
7F80
1F00
ENDCHAR
STARTCHAR 044E
ENCODING 1102
SWIDTH 1000 0
DWIDTH 24 0
BBX 16 12 4 1
BITMAP
C0F0
C3FC
C30E
C606
C403
FC03
FC03
CC03
C607
C70E
C3FC
C0F8
ENDCHAR
STARTCHAR 044F
ENCODING 1103
SWIDTH 1000 0
DWIDTH 24 0
BBX 11 12 6 1
BITMAP
1FE0
3FE0
6060
6060
6060
3FE0
1FE0
0C60
1860
3060
7060
E060
ENDCHAR
STARTCHAR 0451
ENCODING 1105
SWIDTH 1000 0
DWIDTH 24 0
BBX 12 15 6 1
BITMAP
30C0
30C0
0000
0000
1F80
30C0
6060
C020
FFF0
FFF0
C000
C070
70E0
3FC0
1F80
ENDCHAR
STARTCHAR 1E3E
ENCODING 7742
SWIDTH 500 0
DWIDTH 12 0
BBX 10 20 1 1
BITMAP
0600
0800
0000
E1C0
E1C0
E1C0
E1C0
E3C0
F3C0
F3C0
D2C0
D2C0
D2C0
D6C0
DEC0
DEC0
CCC0
CCC0
CCC0
CCC0
ENDCHAR
STARTCHAR 1E3F
ENCODING 7743
SWIDTH 500 0
DWIDTH 12 0
BBX 10 15 1 1
BITMAP
0600
0800
0000
FB80
FFC0
CCC0
CCC0
CCC0
CCC0
CCC0
CCC0
CCC0
CCC0
CCC0
CCC0
ENDCHAR
STARTCHAR 1F70
ENCODING 8048
SWIDTH 500 0
DWIDTH 12 0
BBX 10 15 1 0
BITMAP
3000
0800
0000
1D80
7F80
6380
E180
C180
C180
C180
C180
C180
6380
7FC0
3CC0
ENDCHAR
STARTCHAR 1F71
ENCODING 8049
SWIDTH 500 0
DWIDTH 12 0
BBX 10 15 1 0
BITMAP
0600
0800
0000
1D80
7F80
6380
E180
C180
C180
C180
C180
C180
6380
7FC0
3CC0
ENDCHAR
STARTCHAR 1F72
ENCODING 8050
SWIDTH 500 0
DWIDTH 12 0
BBX 9 15 1 1
BITMAP
1800
0800
0000
3E00
7F00
C380
C000
C000
7C00
7C00
E000
C000
C380
7F00
3E00
ENDCHAR
STARTCHAR 1F73
ENCODING 8051
SWIDTH 500 0
DWIDTH 12 0
BBX 9 15 1 1
BITMAP
0600
0800
0000
3E00
7F00
C380
C000
C000
7C00
7C00
E000
C000
C380
7F00
3E00
ENDCHAR
STARTCHAR 2010
ENCODING 8208
SWIDTH 1000 0
DWIDTH 24 0
BBX 8 2 8 8
BITMAP
FF
FF
ENDCHAR
STARTCHAR 2013
ENCODING 8211
SWIDTH 500 0
DWIDTH 12 0
BBX 4 2 4 8
BITMAP
F0
F0
ENDCHAR
STARTCHAR 2014
ENCODING 8212
SWIDTH 1000 0
DWIDTH 24 0
BBX 20 2 2 8
BITMAP
FFFFF0
FFFFF0
ENDCHAR
STARTCHAR 2015
ENCODING 8213
SWIDTH 1000 0
DWIDTH 24 0
BBX 20 2 2 8
BITMAP
FFFFF0
FFFFF0
ENDCHAR
STARTCHAR 2016
ENCODING 8214
SWIDTH 1000 0
DWIDTH 24 0
BBX 6 24 9 -3
BITMAP
CC
CC
CC
CC
CC
CC
CC
CC
CC
CC
CC
CC
CC
CC
CC
CC
CC
CC
CC
CC
CC
CC
CC
CC
ENDCHAR
STARTCHAR 2018
ENCODING 8216
SWIDTH 1000 0
DWIDTH 24 0
BBX 3 6 19 14
BITMAP
20
40
C0
E0
E0
E0
ENDCHAR
STARTCHAR 2019
ENCODING 8217
SWIDTH 1000 0
DWIDTH 24 0
BBX 3 6 2 14
BITMAP
E0
E0
E0
60
40
80
ENDCHAR
STARTCHAR 201C
ENCODING 8220
SWIDTH 1000 0
DWIDTH 24 0
BBX 8 6 14 14
BITMAP
21
42
C6
E7
E7
E7
ENDCHAR
STARTCHAR 201D
ENCODING 8221
SWIDTH 1000 0
DWIDTH 24 0
BBX 8 6 2 14
BITMAP
E7
E7
E7
63
42
84
ENDCHAR
STARTCHAR 2020
ENCODING 8224
SWIDTH 1000 0
DWIDTH 24 0
BBX 11 22 6 -2
BITMAP
0E00
0E00
0E00
0E00
0400
F5E0
FFE0
E4C0
0400
0E00
0E00
0400
0400
0400
0400
0400
0400
0400
0400
0400
0400
0400
ENDCHAR
STARTCHAR 2021
ENCODING 8225
SWIDTH 1000 0
DWIDTH 24 0
BBX 10 22 7 -2
BITMAP
0C00
0C00
0C00
EDC0
FFC0
EDC0
0C00
0C00
0C00
0C00
0C00
0C00
0C00
0C00
0C00
0C00
EDC0
FFC0
EDC0
0C00
0C00
0C00
ENDCHAR
STARTCHAR 2022
ENCODING 8226
SWIDTH 500 0
DWIDTH 12 0
BBX 5 5 3 6
BITMAP
70
F8
F8
F8
70
ENDCHAR
STARTCHAR 2025
ENCODING 8229
SWIDTH 1000 0
DWIDTH 24 0
BBX 14 3 5 7
BITMAP
E01C
E01C
E01C
ENDCHAR
STARTCHAR 2026
ENCODING 8230
SWIDTH 1000 0
DWIDTH 24 0
BBX 18 3 3 7
BITMAP
E0E1C0
E0E1C0
E0E1C0
ENDCHAR
STARTCHAR 2030
ENCODING 8240
SWIDTH 1000 0
DWIDTH 24 0
BBX 22 22 1 -2
BITMAP
000600
780C00
780800
CC1800
CC3000
CC3000
CC6000
CC4000
CCC000
798000
798000
037878
027878
06CCCC
0CCCCC
0CCCCC
18CCCC
10CCCC
307878
607878
600000
C00000
ENDCHAR
STARTCHAR 2032
ENCODING 8242
SWIDTH 1000 0
DWIDTH 24 0
BBX 2 6 2 14
BITMAP
40
40
C0
C0
80
80
ENDCHAR
STARTCHAR 2033
ENCODING 8243
SWIDTH 1000 0
DWIDTH 24 0
BBX 6 6 2 14
BITMAP
44
4C
CC
C8
88
98
ENDCHAR
STARTCHAR 203B
ENCODING 8251
SWIDTH 1000 0
DWIDTH 24 0
BBX 20 19 2 0
BITMAP
400020
60E060
30E0C0
18E180
0C0300
060600
030C00
019800
00F000
7060E0
70F0E0
7198E0
030C00
060600
0C0300
180180
30E0C0
60E060
C0E030
ENDCHAR
STARTCHAR 203C
ENCODING 8252
SWIDTH 500 0
DWIDTH 12 0
BBX 8 19 2 0
BITMAP
C3
C3
C3
C3
C3
C3
C3
C3
C3
C3
C3
C3
C3
C3
00
00
C3
C3
C3
ENDCHAR
STARTCHAR 203E
ENCODING 8254
SWIDTH 1000 0
DWIDTH 24 0
BBX 0 0 0 21
BITMAP
ENDCHAR
STARTCHAR 203F
ENCODING 8255
SWIDTH 500 0
DWIDTH 12 0
BBX 10 3 1 -2
BITMAP
8040
6180
1E00
ENDCHAR
STARTCHAR 2042
ENCODING 8258
SWIDTH 500 0
DWIDTH 12 0
BBX 10 15 1 2
BITMAP
0C00
0C00
3F00
0C00
1A00
2D00
0C00
0000
0000
2180
BFC0
7380
7380
AFC0
2180
ENDCHAR
STARTCHAR 2047
ENCODING 8263
SWIDTH 500 0
DWIDTH 12 0
BBX 11 20 0 0
BITMAP
31C0
79E0
7B60
FB60
DB60
1860
1860
18C0
38C0
30C0
3180
3180
3180
3180
3180
0000
0000
6180
6180
6180
ENDCHAR
STARTCHAR 2048
ENCODING 8264
SWIDTH 500 0
DWIDTH 12 0
BBX 11 19 0 0
BITMAP
3C60
7E60
6660
4660
C660
0660
0C60
0C60
1860
1860
3060
3060
3060
3060
0000
0000
3060
3060
3060
ENDCHAR
STARTCHAR 2049
ENCODING 8265
SWIDTH 500 0
DWIDTH 12 0
BBX 10 19 1 0
BITMAP
C700
CF80
CCC0
DCC0
DCC0
C0C0
C080
C180
C100
C100
C200
C200
C200
C200
0000
0000
C600
C600
C600
ENDCHAR
STARTCHAR 2051
ENCODING 8273
SWIDTH 1000 0
DWIDTH 24 0
BBX 8 19 8 0
BITMAP
18
18
DB
F6
18
7E
DB
18
18
00
00
18
18
DB
74
18
FF
DB
18
ENDCHAR
STARTCHAR 20AC
ENCODING 8364
SWIDTH 500 0
DWIDTH 12 0
BBX 10 17 1 1
BITMAP
0E00
1F80
3180
30C0
6000
6000
FE00
FE00
6000
FE00
FE00
6000
60C0
30C0
3180
1F80
0F00
ENDCHAR
STARTCHAR 2103
ENCODING 8451
SWIDTH 1000 0
DWIDTH 24 0
BBX 20 19 1 1
BITMAP
780000
CC0000
843F00
84FFC0
CDC1E0
7B8060
030070
060000
060000
060000
060000
060000
060000
070030
030070
038060
01C1E0
00FFC0
003F00
ENDCHAR
STARTCHAR 210F
ENCODING 8463
SWIDTH 500 0
DWIDTH 12 0
BBX 10 17 1 1
BITMAP
1800
1800
3E00
F800
3000
3780
2FC0
78C0
70C0
60C0
60C0
60C0
C180
C180
C180
C180
8180
ENDCHAR
STARTCHAR 2113
ENCODING 8467
SWIDTH 500 0
DWIDTH 12 0
BBX 10 17 1 1
BITMAP
0700
0F80
1D80
1980
1980
3980
3180
3180
3300
3300
3600
3600
3C00
38C0
71C0
FF80
8F00
ENDCHAR
STARTCHAR 2116
ENCODING 8470
SWIDTH 1000 0
DWIDTH 24 0
BBX 21 17 2 1
BITMAP
E18000
E18000
E18000
F18000
F18000
D18F00
D99F80
C999C0
CDB0C0
CDB0C0
C5B0C0
C7B0C0
C7B0C0
C3B0C0
C39980
C39F98
C18F18
ENDCHAR
STARTCHAR 2121
ENCODING 8481
SWIDTH 1000 0
DWIDTH 24 0
BBX 22 17 1 1
BITMAP
FF8000
FF8000
180000
180000
18FCC0
18FCC0
18C0C0
18C0C0
18C0C0
18F8C0
18F8C0
18C0C0
18C0C0
18C0C0
18C0C0
18FCFC
18FCFC
ENDCHAR
STARTCHAR 2127
ENCODING 8487
SWIDTH 500 0
DWIDTH 12 0
BBX 10 17 1 1
BITMAP
FFC0
FFC0
1E00
3F00
3300
6180
E180
C0C0
C0C0
C0C0
C0C0
C0C0
C0C0
6180
7180
3F00
1E00
ENDCHAR
STARTCHAR 212B
ENCODING 8491
SWIDTH 1000 0
DWIDTH 24 0
BBX 16 20 4 1
BITMAP
0180
0240
0240
0180
0000
0180
03C0
03C0
0660
0660
0E30
0C30
1C38
1818
1FF8
3FFC
300C
700E
6006
E007
ENDCHAR
STARTCHAR 2135
ENCODING 8501
SWIDTH 500 0
DWIDTH 12 0
BBX 10 17 1 1
BITMAP
6180
4180
C180
C1C0
C3C0
62C0
7600
3C00
EE00
C700
C380
C180
60C0
60C0
60C0
60C0
C180
ENDCHAR
STARTCHAR 2153
ENCODING 8531
SWIDTH 500 0
DWIDTH 12 0
BBX 11 21 1 -1
BITMAP
2040
E080
2080
2180
2100
2300
2200
2600
2400
2400
2800
0BC0
1620
1620
3020
2060
6180
4060
C620
8620
83C0
ENDCHAR
STARTCHAR 2154
ENCODING 8532
SWIDTH 500 0
DWIDTH 12 0
BBX 11 21 1 -2
BITMAP
3800
4440
C480
C480
0D80
1900
3300
6200
C600
FC00
0DC0
0A60
0A20
1E20
1020
3040
2180
6060
4620
4220
83C0
ENDCHAR
STARTCHAR 2155
ENCODING 8533
SWIDTH 500 0
DWIDTH 12 0
BBX 11 22 1 -1
BITMAP
20C0
E080
2180
2100
2100
2200
2200
2600
2400
2C00
2800
0FC0
1600
1400
3580
2640
6420
4020
4020
8420
8640
83C0
ENDCHAR
STARTCHAR 2160
ENCODING 8544
SWIDTH 1000 0
DWIDTH 24 0
BBX 2 17 11 1
BITMAP
C0
C0
C0
C0
C0
C0
C0
C0
C0
C0
C0
C0
C0
C0
C0
C0
C0
ENDCHAR
STARTCHAR 2161
ENCODING 8545
SWIDTH 1000 0
DWIDTH 24 0
BBX 8 17 8 1
BITMAP
C3
C3
C3
C3
C3
C3
C3
C3
C3
C3
C3
C3
C3
C3
C3
C3
C3
ENDCHAR
STARTCHAR 2162
ENCODING 8546
SWIDTH 1000 0
DWIDTH 24 0
BBX 14 17 5 1
BITMAP
C30C
C30C
C30C
C30C
C30C
C30C
C30C
C30C
C30C
C30C
C30C
C30C
C30C
C30C
C30C
C30C
C30C
ENDCHAR
STARTCHAR 2163
ENCODING 8547
SWIDTH 1000 0
DWIDTH 24 0
BBX 18 17 4 1
BITMAP
CC01C0
CC0180
CE0180
C60380
C60300
C70300
C30700
C30600
C38600
C18E00
C18C00
C0CC00
C0D800
C0D800
C07800
C07000
C07000
ENDCHAR
STARTCHAR 2164
ENCODING 8548
SWIDTH 1000 0
DWIDTH 24 0
BBX 16 17 4 1
BITMAP
E007
6006
700E
300C
300C
381C
1818
1818
0C38
0C30
0E70
0660
0660
07E0
03C0
03C0
0180
ENDCHAR
STARTCHAR 2165
ENCODING 8549
SWIDTH 1000 0
DWIDTH 24 0
BBX 18 17 2 1
BITMAP
E00CC0
600CC0
601CC0
7018C0
3018C0
3038C0
3830C0
1830C0
1870C0
1C60C0
0C60C0
0CC0C0
0EC0C0
06C0C0
0780C0
0380C0
0380C0
ENDCHAR
STARTCHAR 2166
ENCODING 8550
SWIDTH 1000 0
DWIDTH 24 0
BBX 20 17 2 1
BITMAP
C06630
C06630
C06630
E0C630
60C630
60C630
61C630
318630
318630
318630
338630
1B0630
1B0630
1B0630
0E0630
0E0630
0E0630
ENDCHAR
STARTCHAR 2167
ENCODING 8551
SWIDTH 1000 0
DWIDTH 24 0
BBX 21 17 1 1
BITMAP
C06CD8
E0CCD8
60CCD8
60CCD8
60CCD8
618CD8
318CD8
318CD8
318CD8
330CD8
1B0CD8
1B0CD8
1B0CD8
1A0CD8
0E0CD8
0E0CD8
0E0CD8
ENDCHAR
STARTCHAR 2168
ENCODING 8552
SWIDTH 1000 0
DWIDTH 24 0
BBX 18 17 4 1
BITMAP
C70380
C30300
C38700
C1C600
C0CE00
C0EC00
C07800
C03800
C03800
C07800
C0EC00
C0CE00
C1C600
C38700
C30380
C70180
CE01C0
ENDCHAR
STARTCHAR 2169
ENCODING 8553
SWIDTH 1000 0
DWIDTH 24 0
BBX 16 17 4 1
BITMAP
700E
381C
1818
1C38
0E70
0660
03C0
03C0
03C0
03C0
0660
0E70
1C38
381C
381C
700E
E007
ENDCHAR
STARTCHAR 216A
ENCODING 8554
SWIDTH 1000 0
DWIDTH 24 0
BBX 18 17 2 1
BITMAP
6038C0
3030C0
3870C0
18E0C0
1CC0C0
0DC0C0
0780C0
0780C0
0700C0
0780C0
0DC0C0
1CC0C0
1860C0
3870C0
7030C0
6038C0
E01CC0
ENDCHAR
STARTCHAR 216B
ENCODING 8555
SWIDTH 1000 0
DWIDTH 24 0
BBX 20 17 2 1
BITMAP
60E630
60C630
31C630
318630
1B8630
1B0630
0F0630
0E0630
0E0630
0F0630
1B0630
1B8630
318630
70C630
60C630
E06630
C06630
ENDCHAR
STARTCHAR 2170
ENCODING 8560
SWIDTH 1000 0
DWIDTH 24 0
BBX 2 17 11 1
BITMAP
C0
C0
00
00
00
C0
C0
C0
C0
C0
C0
C0
C0
C0
C0
C0
C0
ENDCHAR
STARTCHAR 2171
ENCODING 8561
SWIDTH 1000 0
DWIDTH 24 0
BBX 8 17 8 1
BITMAP
C3
C3
00
00
00
C3
C3
C3
C3
C3
C3
C3
C3
C3
C3
C3
C3
ENDCHAR
STARTCHAR 2172
ENCODING 8562
SWIDTH 1000 0
DWIDTH 24 0
BBX 12 17 6 1
BITMAP
C630
C630
0000
0000
0000
C630
C630
C630
C630
C630
C630
C630
C630
C630
C630
C630
C630
ENDCHAR
STARTCHAR 2173
ENCODING 8563
SWIDTH 1000 0
DWIDTH 24 0
BBX 15 17 5 1
BITMAP
C000
C000
0000
0000
0000
CC06
CC0E
C60C
C60C
C718
C318
C338
C1B0
C1B0
C0E0
C0E0
C0E0
ENDCHAR
STARTCHAR 2174
ENCODING 8564
SWIDTH 1000 0
DWIDTH 24 0
BBX 12 12 6 1
BITMAP
C030
E070
6060
6060
30C0
30C0
39C0
1980
1980
0F00
0F00
0F00
ENDCHAR
STARTCHAR 2175
ENCODING 8565
SWIDTH 1000 0
DWIDTH 24 0
BBX 15 17 4 1
BITMAP
0006
0006
0000
0000
0000
C066
E0E6
60C6
60C6
31C6
3186
3986
1B06
1B06
0F06
0E06
0E06
ENDCHAR
STARTCHAR 2176
ENCODING 8566
SWIDTH 1000 0
DWIDTH 24 0
BBX 18 17 3 1
BITMAP
0018C0
0018C0
000000
000000
000000
C198C0
C198C0
C198C0
6318C0
6318C0
6318C0
3618C0
3618C0
3618C0
1C18C0
1C18C0
1C18C0
ENDCHAR
STARTCHAR 2177
ENCODING 8567
SWIDTH 1000 0
DWIDTH 24 0
BBX 20 17 2 1
BITMAP
001B30
001B30
000000
000000
000000
C0DB30
C19B30
619B30
619B30
631B30
331B30
331B30
361B30
1E1B30
1E1B30
1C1B30
0C1B30
ENDCHAR
STARTCHAR 2178
ENCODING 8568
SWIDTH 1000 0
DWIDTH 24 0
BBX 16 17 5 1
BITMAP
C000
C000
0000
0000
0000
CE06
C70C
C31C
C1B8
C0F0
C0E0
C0F0
C1F0
C398
C70C
C60E
CC07
ENDCHAR
STARTCHAR 2179
ENCODING 8569
SWIDTH 1000 0
DWIDTH 24 0
BBX 13 12 6 1
BITMAP
E070
70E0
39C0
1980
0F00
0600
0F00
1F80
39C0
70E0
E070
C038
ENDCHAR
STARTCHAR 217A
ENCODING 8570
SWIDTH 1000 0
DWIDTH 24 0
BBX 16 17 3 1
BITMAP
0003
0003
0000
0000
0000
6073
30E3
39C3
1D83
0F83
0703
0F03
1F83
19C3
30E3
7063
E033
ENDCHAR
STARTCHAR 217B
ENCODING 8571
SWIDTH 1000 0
DWIDTH 24 0
BBX 18 17 3 1
BITMAP
000CC0
000CC0
000000
000000
000000
61CCC0
718CC0
330CC0
1B0CC0
1E0CC0
0E0CC0
1E0CC0
1F0CC0
330CC0
718CC0
61CCC0
C0CCC0
ENDCHAR
STARTCHAR 2190
ENCODING 8592
SWIDTH 1000 0
DWIDTH 24 0
BBX 21 8 1 5
BITMAP
060000
1C0000
300000
7FFFF8
FFFFF8
300000
1C0000
060000
ENDCHAR
STARTCHAR 2191
ENCODING 8593
SWIDTH 1000 0
DWIDTH 24 0
BBX 8 21 8 0
BITMAP
10
18
3C
7E
5A
DB
99
18
18
18
18
18
18
18
18
18
18
18
18
18
18
ENDCHAR
STARTCHAR 2192
ENCODING 8594
SWIDTH 1000 0
DWIDTH 24 0
BBX 21 8 2 5
BITMAP
000300
0001C0
000060
FFFFF0
FFFFF8
000060
0001C0
000300
ENDCHAR
STARTCHAR 2193
ENCODING 8595
SWIDTH 1000 0
DWIDTH 24 0
BBX 8 21 8 -3
BITMAP
18
18
18
18
18
18
18
18
18
18
18
18
18
18
99
DB
5A
7E
3C
18
10
ENDCHAR
STARTCHAR 2194
ENCODING 8596
SWIDTH 500 0
DWIDTH 12 0
BBX 10 8 1 5
BITMAP
2100
6180
C0C0
FFC0
C0C0
6180
6180
3300
ENDCHAR
STARTCHAR 2196
ENCODING 8598
SWIDTH 500 0
DWIDTH 12 0
BBX 9 18 2 1
BITMAP
6000
7000
7C00
F700
F100
9800
9800
8800
0C00
0C00
0400
0600
0600
0300
0300
0300
0180
0100
ENDCHAR
STARTCHAR 2197
ENCODING 8599
SWIDTH 500 0
DWIDTH 12 0
BBX 9 18 1 1
BITMAP
0300
0F00
1F00
7780
4780
0C80
0C80
0880
1800
1800
1000
3000
3000
6000
6000
6000
C000
4000
ENDCHAR
STARTCHAR 2198
ENCODING 8600
SWIDTH 500 0
DWIDTH 12 0
BBX 9 18 1 1
BITMAP
C000
C000
6000
6000
2000
3000
3000
1000
1800
1800
0C80
0C80
0C80
6780
3780
1F00
0700
0100
ENDCHAR
STARTCHAR 2199
ENCODING 8601
SWIDTH 500 0
DWIDTH 12 0
BBX 10 18 1 1
BITMAP
00C0
00C0
0180
0180
0100
0300
0300
0200
0600
0600
4C00
CC00
4C00
7980
7B00
3E00
3800
2000
ENDCHAR
STARTCHAR 21C4
ENCODING 8644
SWIDTH 500 0
DWIDTH 12 0
BBX 8 18 2 0
BITMAP
0C
06
02
FF
FF
02
06
0C
00
00
30
40
FF
FF
C0
60
20
30
ENDCHAR
STARTCHAR 21D2
ENCODING 8658
SWIDTH 1000 0
DWIDTH 24 0
BBX 21 14 1 2
BITMAP
000200
000300
000180
FFFFC0
FFFFE0
000030
000018
000018
000030
FFFFE0
FFFFC0
000180
000300
000200
ENDCHAR
STARTCHAR 21D4
ENCODING 8660
SWIDTH 1000 0
DWIDTH 24 0
BBX 22 14 1 2
BITMAP
030300
060180
0C00C0
1FFFE0
3FFFF0
700038
C0000C
C0000C
700038
3FFFF0
1FFFE0
0C00C0
060180
030300
ENDCHAR
STARTCHAR 21E6
ENCODING 8678
SWIDTH 500 0
DWIDTH 12 0
BBX 11 7 0 6
BITMAP
0800
3800
6FE0
8020
6FE0
3800
0800
ENDCHAR
STARTCHAR 21E7
ENCODING 8679
SWIDTH 500 0
DWIDTH 12 0
BBX 8 19 2 0
BITMAP
18
18
24
24
42
FF
18
18
18
18
18
18
18
18
18
18
18
18
18
ENDCHAR
STARTCHAR 21E8
ENCODING 8680
SWIDTH 500 0
DWIDTH 12 0
BBX 11 7 1 6
BITMAP
0200
0380
FEC0
8020
FEC0
0380
0200
ENDCHAR
STARTCHAR 21E9
ENCODING 8681
SWIDTH 500 0
DWIDTH 12 0
BBX 8 19 2 -1
BITMAP
18
18
18
18
18
18
18
18
18
18
18
18
18
FF
42
44
24
18
18
ENDCHAR
STARTCHAR 2200
ENCODING 8704
SWIDTH 1000 0
DWIDTH 24 0
BBX 20 21 2 -3
BITMAP
C00030
600060
600060
200040
3000C0
100080
180180
0FFF00
0FFF00
040300
060600
060600
020400
030C00
010800
019800
009000
00F000
006000
006000
004000
ENDCHAR
STARTCHAR 2202
ENCODING 8706
SWIDTH 1000 0
DWIDTH 24 0
BBX 12 19 5 0
BITMAP
0780
1FC0
18E0
0060
0070
0030
0030
0030
1F30
3FF0
70F0
E070
C060
C060
C060
C0C0
61C0
7F80
1E00
ENDCHAR
STARTCHAR 2203
ENCODING 8707
SWIDTH 1000 0
DWIDTH 24 0
BBX 17 18 3 0
BITMAP
FFFF80
FFFF80
000080
000080
000080
000080
000080
000080
FFFF80
FFFF80
000080
000080
000080
000080
000080
000080
FFFF80
FFFF80
ENDCHAR
STARTCHAR 2205
ENCODING 8709
SWIDTH 500 0
DWIDTH 12 0
BBX 10 14 1 2
BITMAP
00C0
0180
1F00
7F80
76C0
C6C0
CCC0
CCC0
D9C0
5380
7F00
7E00
6000
4000
ENDCHAR
STARTCHAR 2207
ENCODING 8711
SWIDTH 1000 0
DWIDTH 24 0
BBX 18 18 3 -1
BITMAP
FFFFC0
FFFFC0
600080
600180
300100
300300
180200
180600
0C0400
0C0C00
060800
061800
031000
033000
01E000
01E000
00C000
00C000
ENDCHAR
STARTCHAR 2208
ENCODING 8712
SWIDTH 1000 0
DWIDTH 24 0
BBX 19 18 2 0
BITMAP
03FFE0
0FFFE0
3C0000
300000
600000
400000
C00000
C00000
FFFFE0
FFFFE0
C00000
C00000
400000
600000
300000
1C0000
0FFFE0
03FFE0
ENDCHAR
STARTCHAR 2209
ENCODING 8713
SWIDTH 500 0
DWIDTH 12 0
BBX 10 17 1 1
BITMAP
0100
07C0
1FC0
3B00
6200
4600
C600
C600
FFC0
FFC0
CC00
CC00
6800
3800
1FC0
1FC0
1000
ENDCHAR
STARTCHAR 220B
ENCODING 8715
SWIDTH 1000 0
DWIDTH 24 0
BBX 19 18 3 0
BITMAP
FFF800
FFFE00
000700
000180
0000C0
000040
000060
000060
FFFFE0
FFFFE0
000060
000060
000040
0000C0
000180
000780
FFFE00
FFF800
ENDCHAR
STARTCHAR 2212
ENCODING 8722
SWIDTH 500 0
DWIDTH 12 0
BBX 10 2 1 8
BITMAP
FFC0
FFC0
ENDCHAR
STARTCHAR 2213
ENCODING 8723
SWIDTH 500 0
DWIDTH 12 0
BBX 10 17 1 0
BITMAP
FFC0
FFC0
0000
0000
0C00
0C00
0C00
0C00
0C00
0C00
FFC0
FFC0
0C00
0C00
0C00
0C00
0C00
ENDCHAR
STARTCHAR 221A
ENCODING 8730
SWIDTH 1000 0
DWIDTH 24 0
BBX 22 22 1 -2
BITMAP
000FFC
000800
000800
001800
001000
001000
003000
002000
002000
006000
004000
10C000
30C000
388000
798000
4D8000
CD0000
C70000
870000
060000
020000
020000
ENDCHAR
STARTCHAR 221D
ENCODING 8733
SWIDTH 1000 0
DWIDTH 24 0
BBX 19 10 2 4
BITMAP
1E07C0
7F0FE0
619C60
C0F020
C06000
C06000
C0F020
639C60
7F0FE0
1E03C0
ENDCHAR
STARTCHAR 221E
ENCODING 8734
SWIDTH 1000 0
DWIDTH 24 0
BBX 20 10 2 4
BITMAP
1E0780
7F0FE0
639C60
C0F030
C06030
C06030
C0F030
639C60
7F0FE0
1E0780
ENDCHAR
STARTCHAR 221F
ENCODING 8735
SWIDTH 1000 0
DWIDTH 24 0
BBX 19 20 3 0
BITMAP
800000
800000
800000
800000
800000
800000
800000
800000
800000
800000
800000
800000
800000
800000
800000
800000
800000
800000
FFFFE0
FFFFE0
ENDCHAR
STARTCHAR 2220
ENCODING 8736
SWIDTH 1000 0
DWIDTH 24 0
BBX 20 19 2 1
BITMAP
000030
000060
0000C0
000180
000300
000600
000C00
001800
003000
006000
00C000
018000
030000
060000
0C0000
180000
300000
7FFFF0
FFFFF0
ENDCHAR
STARTCHAR 2225
ENCODING 8741
SWIDTH 1000 0
DWIDTH 24 0
BBX 12 21 6 -2
BITMAP
0010
0310
0330
0230
0620
0660
0C60
0C40
0CC0
18C0
1980
1180
3100
3300
2300
6200
6600
4600
C400
CC00
8C00
ENDCHAR
STARTCHAR 2226
ENCODING 8742
SWIDTH 500 0
DWIDTH 12 0
BBX 10 21 1 -1
BITMAP
0CC0
0CC0
08C0
0880
1880
1980
D980
7100
3100
3B00
3F00
2700
2300
2380
66C0
6600
4600
4400
C400
CC00
CC00
ENDCHAR
STARTCHAR 2227
ENCODING 8743
SWIDTH 1000 0
DWIDTH 24 0
BBX 20 20 2 0
BITMAP
006000
006000
00F000
00F000
019800
019800
010800
030C00
020400
060600
040200
0C0300
080100
180180
100080
3000C0
3000C0
600060
600060
C00030
ENDCHAR
STARTCHAR 2228
ENCODING 8744
SWIDTH 1000 0
DWIDTH 24 0
BBX 20 20 2 -2
BITMAP
C00030
600060
600060
3000C0
3000C0
100080
180180
080100
0C0300
040200
060600
020400
030C00
010800
019800
009800
00F000
00F000
006000
006000
ENDCHAR
STARTCHAR 2229
ENCODING 8745
SWIDTH 1000 0
DWIDTH 24 0
BBX 18 19 3 0
BITMAP
03F000
0FFC00
3C0E00
300300
600180
400080
C000C0
800040
800040
800040
800040
800040
800040
800040
800040
800040
800040
800040
800040
ENDCHAR
STARTCHAR 222A
ENCODING 8746
SWIDTH 1000 0
DWIDTH 24 0
BBX 18 19 3 0
BITMAP
800040
800040
800040
800040
800040
800040
800040
800040
800040
800040
800040
800040
C000C0
400080
600180
300300
3C0F00
0FFC00
03F000
ENDCHAR
STARTCHAR 222B
ENCODING 8747
SWIDTH 1000 0
DWIDTH 24 0
BBX 12 21 6 -1
BITMAP
01C0
03E0
0330
0330
0200
0200
0600
0600
0600
0600
0600
0600
0600
0600
0600
0400
0400
CC00
CC00
7C00
7800
ENDCHAR
STARTCHAR 222C
ENCODING 8748
SWIDTH 1000 0
DWIDTH 24 0
BBX 20 21 2 -1
BITMAP
01C1E0
03E1E0
033330
033330
020300
060200
060200
060600
060600
060600
060600
060600
060600
060600
040600
040400
0C0400
CCC400
CCCC00
787C00
783800
ENDCHAR
STARTCHAR 222E
ENCODING 8750
SWIDTH 1000 0
DWIDTH 24 0
BBX 12 21 6 -1
BITMAP
01C0
01E0
0330
0330
0200
0200
0600
0700
0E80
1640
1640
1640
1680
0F00
0400
0400
0400
CC00
CC00
7800
7800
ENDCHAR
STARTCHAR 2234
ENCODING 8756
SWIDTH 1000 0
DWIDTH 24 0
BBX 15 14 4 2
BITMAP
0380
0380
0380
0000
0000
0000
0000
0000
0000
0000
0000
E00E
E00E
E00E
ENDCHAR
STARTCHAR 2235
ENCODING 8757
SWIDTH 1000 0
DWIDTH 24 0
BBX 15 14 4 2
BITMAP
E00E
E00E
E00E
0000
0000
0000
0000
0000
0000
0000
0000
0380
0380
0380
ENDCHAR
STARTCHAR 223D
ENCODING 8765
SWIDTH 1000 0
DWIDTH 24 0
BBX 20 10 2 4
BITMAP
1E0380
7F0FE0
601860
C03030
C02030
C04030
C0C030
618060
7F0FE0
3E0780
ENDCHAR
STARTCHAR 2243
ENCODING 8771
SWIDTH 500 0
DWIDTH 12 0
BBX 10 8 1 5
BITMAP
F800
FFC0
0780
0000
0000
0000
FFC0
FFC0
ENDCHAR
STARTCHAR 2245
ENCODING 8773
SWIDTH 500 0
DWIDTH 12 0
BBX 10 11 1 4
BITMAP
7000
FC40
8FC0
0380
0000
0000
FFC0
FFC0
0000
FFC0
FFC0
ENDCHAR
STARTCHAR 2248
ENCODING 8776
SWIDTH 500 0
DWIDTH 12 0
BBX 10 8 1 5
BITMAP
F800
FFC0
0780
0000
0000
7800
FFC0
0780
ENDCHAR
STARTCHAR 2252
ENCODING 8786
SWIDTH 1000 0
DWIDTH 24 0
BBX 16 16 4 1
BITMAP
1C00
1C00
1C00
0000
0000
FFFF
FFFF
0000
0000
FFFF
FFFF
0000
0000
0038
0038
0038
ENDCHAR
STARTCHAR 2260
ENCODING 8800
SWIDTH 1000 0
DWIDTH 24 0
BBX 16 17 4 1
BITMAP
0010
0030
0020
0060
0060
FFFF
FFFF
0080
0180
0180
0300
FFFF
FFFF
0600
0600
0C00
0800
ENDCHAR
STARTCHAR 2261
ENCODING 8801
SWIDTH 1000 0
DWIDTH 24 0
BBX 16 12 4 3
BITMAP
FFFF
FFFF
0000
0000
0000
FFFF
FFFF
0000
0000
0000
FFFF
FFFF
ENDCHAR
STARTCHAR 2262
ENCODING 8802
SWIDTH 500 0
DWIDTH 12 0
BBX 10 18 1 0
BITMAP
0300
0300
0300
FFC0
FFC0
0600
0600
0C00
FFC0
FFC0
0800
1800
FFC0
FFC0
3000
3000
3000
2000
ENDCHAR
STARTCHAR 2266
ENCODING 8806
SWIDTH 1000 0
DWIDTH 24 0
BBX 17 20 3 0
BITMAP
000080
000380
001E00
00F800
07C000
1E0000
F80000
1F0000
03C000
007800
001F00
000380
000000
000000
7FFF80
7FFF80
000000
000000
7FFF80
7FFF80
ENDCHAR
STARTCHAR 2267
ENCODING 8807
SWIDTH 1000 0
DWIDTH 24 0
BBX 17 20 4 0
BITMAP
800000
E00000
3C0000
0F8000
01E000
003C00
000F80
007C00
01E000
0F0000
7C0000
E00000
000000
000000
FFFF00
FFFF00
000000
000000
FFFF00
FFFF00
ENDCHAR
STARTCHAR 226A
ENCODING 8810
SWIDTH 1000 0
DWIDTH 24 0
BBX 18 22 3 -2
BITMAP
0030C0
006180
00C300
018600
030C00
061800
0C3000
186000
30C000
618000
C30000
C30000
618000
30C000
186000
0C3000
061800
030C00
018600
00C300
006180
0030C0
ENDCHAR
STARTCHAR 226B
ENCODING 8811
SWIDTH 1000 0
DWIDTH 24 0
BBX 18 22 3 -2
BITMAP
C30000
618000
30C000
186000
0C3000
061800
030C00
018600
00C300
006180
0038C0
0030C0
006180
00C300
018600
030C00
061800
0C3000
186000
30C000
618000
C30000
ENDCHAR
STARTCHAR 2276
ENCODING 8822
SWIDTH 500 0
DWIDTH 12 0
BBX 10 18 1 0
BITMAP
00C0
03C0
0F00
3C00
E000
7000
1C00
0700
C1C0
F040
3C00
0F00
03C0
0380
0E00
3800
E000
8000
ENDCHAR
STARTCHAR 2277
ENCODING 8823
SWIDTH 500 0
DWIDTH 12 0
BBX 10 18 1 0
BITMAP
C000
F000
3C00
0700
01C0
0380
0E00
3800
E0C0
83C0
0F00
3C00
F000
7000
1C00
0700
01C0
0040
ENDCHAR
STARTCHAR 2282
ENCODING 8834
SWIDTH 1000 0
DWIDTH 24 0
BBX 19 18 2 0
BITMAP
03FFE0
0FFFE0
3C0000
300000
600000
600000
C00000
C00000
C00000
C00000
C00000
C00000
600000
600000
300000
3C0000
0FFFE0
03FFE0
ENDCHAR
STARTCHAR 2283
ENCODING 8835
SWIDTH 1000 0
DWIDTH 24 0
BBX 19 18 3 0
BITMAP
FFF800
FFFE00
000780
000180
0000C0
0000C0
000060
000060
000060
000060
000060
000060
0000C0
0000C0
000180
000780
FFFE00
FFF800
ENDCHAR
STARTCHAR 2284
ENCODING 8836
SWIDTH 500 0
DWIDTH 12 0
BBX 10 17 1 1
BITMAP
0100
07C0
1FC0
3B00
6200
6600
C600
C600
C400
CC00
CC00
EC00
6800
3800
1FC0
1FC0
1000
ENDCHAR
STARTCHAR 2285
ENCODING 8837
SWIDTH 500 0
DWIDTH 12 0
BBX 10 18 1 0
BITMAP
0200
FE00
FE00
0700
0580
0D80
0CC0
0CC0
08C0
18C0
18C0
19C0
1180
3700
FE00
FC00
3000
2000
ENDCHAR
STARTCHAR 2286
ENCODING 8838
SWIDTH 1000 0
DWIDTH 24 0
BBX 18 18 3 0
BITMAP
0FFFC0
3FFFC0
700000
600000
C00000
C00000
C00000
C00000
C00000
600000
700000
3FFFC0
0FFFC0
000000
000000
000000
FFFFC0
FFFFC0
ENDCHAR
STARTCHAR 2287
ENCODING 8839
SWIDTH 1000 0
DWIDTH 24 0
BBX 18 18 3 0
BITMAP
FFFC00
FFFF00
000380
000180
0000C0
0000C0
0000C0
0000C0
0000C0
000180
000380
FFFF00
FFFC00
000000
000000
000000
FFFFC0
FFFFC0
ENDCHAR
STARTCHAR 228A
ENCODING 8842
SWIDTH 500 0
DWIDTH 12 0
BBX 10 17 1 0
BITMAP
1FC0
3FC0
6000
C000
C000
C000
C000
C000
C000
6000
3FC0
1FC0
0600
0400
FFC0
FFC0
1800
ENDCHAR
STARTCHAR 228B
ENCODING 8843
SWIDTH 500 0
DWIDTH 12 0
BBX 10 17 1 0
BITMAP
FE00
FF00
0180
00C0
00C0
00C0
00C0
00C0
00C0
0180
FF00
FE00
0600
0400
FFC0
FFC0
1800
ENDCHAR
STARTCHAR 2295
ENCODING 8853
SWIDTH 500 0
DWIDTH 12 0
BBX 10 10 1 4
BITMAP
1E00
6180
4880
8840
BF40
8840
8840
4880
6100
1E00
ENDCHAR
STARTCHAR 2296
ENCODING 8854
SWIDTH 500 0
DWIDTH 12 0
BBX 10 11 1 4
BITMAP
1E00
2100
4080
8040
8040
BF40
8040
8040
4080
2100
1E00
ENDCHAR
STARTCHAR 2297
ENCODING 8855
SWIDTH 500 0
DWIDTH 12 0
BBX 10 11 1 4
BITMAP
1E00
2100
4080
B340
9E40
8C40
9E40
B340
4080
2180
1E00
ENDCHAR
STARTCHAR 22A5
ENCODING 8869
SWIDTH 1000 0
DWIDTH 24 0
BBX 22 20 1 0
BITMAP
002000
002000
002000
002000
002000
002000
002000
002000
002000
002000
002000
002000
002000
002000
002000
002000
002000
002000
FFFFFC
FFFFFC
ENDCHAR
STARTCHAR 22BF
ENCODING 8895
SWIDTH 1000 0
DWIDTH 24 0
BBX 19 20 2 1
BITMAP
000020
000060
000060
0000E0
0001A0
000320
000620
000C20
001820
003020
006020
00C020
018020
030020
060020
0C0020
180020
300020
7FFFE0
FFFFE0
ENDCHAR
STARTCHAR 22DA
ENCODING 8922
SWIDTH 500 0
DWIDTH 12 0
BBX 10 20 1 -1
BITMAP
00C0
0780
1E00
F000
7800
1E00
03C0
00C0
0000
FFC0
FFC0
0000
C000
F000
1E00
0780
03C0
1E00
7800
C000
ENDCHAR
STARTCHAR 22DB
ENCODING 8923
SWIDTH 500 0
DWIDTH 12 0
BBX 10 20 1 -1
BITMAP
C000
7800
1E00
03C0
0780
1E00
F000
C000
0000
FFC0
FFC0
0000
00C0
03C0
1E00
7800
F000
1E00
0780
00C0
ENDCHAR
STARTCHAR 2305
ENCODING 8965
SWIDTH 500 0
DWIDTH 12 0
BBX 10 11 1 3
BITMAP
FFC0
FFC0
0000
0C00
0C00
1E00
1200
3300
6180
6180
C0C0
ENDCHAR
STARTCHAR 2306
ENCODING 8966
SWIDTH 500 0
DWIDTH 12 0
BBX 10 14 1 2
BITMAP
FFC0
FFC0
0000
FFC0
FFC0
0000
0C00
0C00
1E00
3200
3300
6180
6180
C0C0
ENDCHAR
STARTCHAR 2312
ENCODING 8978
SWIDTH 1000 0
DWIDTH 24 0
BBX 22 5 1 14
BITMAP
01FE00
0FFFC0
3E01F0
E0001C
800004
ENDCHAR
STARTCHAR 2318
ENCODING 8984
SWIDTH 1000 0
DWIDTH 24 0
BBX 20 20 2 -1
BITMAP
7801E0
8C0330
840210
840210
C40230
7FFFE0
040200
040200
040200
040200
040200
040200
040200
040200
7FFFE0
C40230
840210
840210
CC0330
7801E0
ENDCHAR
STARTCHAR 23BE
ENCODING 9150
SWIDTH 1000 0
DWIDTH 24 0
BBX 12 24 12 -3
BITMAP
FFF0
8000
8000
8000
8000
8000
8000
8000
8000
8000
8000
8000
8000
8000
8000
8000
8000
8000
8000
8000
8000
8000
8000
8000
ENDCHAR
STARTCHAR 23BF
ENCODING 9151
SWIDTH 1000 0
DWIDTH 24 0
BBX 12 24 12 -3
BITMAP
8000
8000
8000
8000
8000
8000
8000
8000
8000
8000
8000
8000
8000
8000
8000
8000
8000
8000
8000
8000
8000
8000
8000
FFF0
ENDCHAR
STARTCHAR 23C0
ENCODING 9152
SWIDTH 1000 0
DWIDTH 24 0
BBX 19 24 3 -3
BITMAP
004000
004000
004000
03F800
0C4600
104100
204080
4040C0
404040
804060
804020
804020
804020
804020
804020
404040
6040C0
204080
104300
0C4600
03F800
004000
004000
004000
ENDCHAR
STARTCHAR 23C1
ENCODING 9153
SWIDTH 1000 0
DWIDTH 24 0
BBX 24 24 0 -3
BITMAP
FFFFFF
000800
000800
007F00
018880
020840
040820
080810
080810
100808
100808
100808
100808
100808
100808
080810
080810
040820
020860
018880
007F00
000800
000800
000800
ENDCHAR
STARTCHAR 23C2
ENCODING 9154
SWIDTH 1000 0
DWIDTH 24 0
BBX 24 24 0 -3
BITMAP
000800
000800
000800
007F00
018880
020860
040820
080810
080810
100808
100808
100808
100808
100808
100808
080810
080810
040820
020840
018880
007F00
000800
000800
FFFFFF
ENDCHAR
STARTCHAR 23C3
ENCODING 9155
SWIDTH 1000 0
DWIDTH 24 0
BBX 21 24 2 -3
BITMAP
002000
002000
002000
002000
007000
007000
00A800
00A800
012400
032600
022200
042100
042100
082080
1820C0
102040
202020
202020
402010
FFFFF8
002000
002000
002000
002000
ENDCHAR
STARTCHAR 23C4
ENCODING 9156
SWIDTH 1000 0
DWIDTH 24 0
BBX 24 24 0 -3
BITMAP
FFFFFF
000800
000800
000800
001C00
001C00
002A00
006A00
004900
008900
008880
010840
030840
020820
040820
0C0810
080810
100808
10080C
3FFFFC
000800
000800
000800
000800
ENDCHAR
STARTCHAR 23C5
ENCODING 9157
SWIDTH 1000 0
DWIDTH 24 0
BBX 24 24 0 -3
BITMAP
000800
000800
000800
000800
001C00
001C00
002A00
006A00
004900
008900
008880
010840
030840
020820
040820
0C0810
080810
100808
10080C
3FFFFC
000800
000800
000800
FFFFFF
ENDCHAR
STARTCHAR 23C6
ENCODING 9158
SWIDTH 1000 0
DWIDTH 24 0
BBX 21 24 2 -3
BITMAP
002000
002000
002000
002000
002000
002000
002000
002000
002000
3E2000
41A000
806000
003008
002C10
0023E0
002000
002000
002000
002000
002000
002000
002000
002000
002000
ENDCHAR
STARTCHAR 23C7
ENCODING 9159
SWIDTH 1000 0
DWIDTH 24 0
BBX 24 24 0 -3
BITMAP
FFFFFF
000800
000800
000800
000800
000800
000800
000800
000800
0F8800
306800
001800
000C00
000B0C
0008F0
000800
000800
000800
000800
000800
000800
000800
000800
000800
ENDCHAR
STARTCHAR 23C8
ENCODING 9160
SWIDTH 1000 0
DWIDTH 24 0
BBX 24 24 0 -3
BITMAP
000800
000800
000800
000800
000800
000800
000800
000800
000800
0F8800
306800
001800
000C00
000B0C
0008F0
000800
000800
000800
000800
000800
000800
000800
000800
FFFFFF
ENDCHAR
STARTCHAR 23C9
ENCODING 9161
SWIDTH 1000 0
DWIDTH 24 0
BBX 24 24 0 -3
BITMAP
FFFFFF
000800
000800
000800
000800
000800
000800
000800
000800
000800
000800
000800
000800
000800
000800
000800
000800
000800
000800
000800
000800
000800
000800
000800
ENDCHAR
STARTCHAR 23CA
ENCODING 9162
SWIDTH 1000 0
DWIDTH 24 0
BBX 24 24 0 -3
BITMAP
000800
000800
000800
000800
000800
000800
000800
000800
000800
000800
000800
000800
000800
000800
000800
000800
000800
000800
000800
000800
000800
000800
000800
FFFFFF
ENDCHAR
STARTCHAR 23CB
ENCODING 9163
SWIDTH 1000 0
DWIDTH 24 0
BBX 12 24 0 -3
BITMAP
FFF0
0010
0010
0010
0010
0010
0010
0010
0010
0010
0010
0010
0010
0010
0010
0010
0010
0010
0010
0010
0010
0010
0010
0010
ENDCHAR
STARTCHAR 23CC
ENCODING 9164
SWIDTH 1000 0
DWIDTH 24 0
BBX 12 24 0 -3
BITMAP
0010
0010
0010
0010
0010
0010
0010
0010
0010
0010
0010
0010
0010
0010
0010
0010
0010
0010
0010
0010
0010
0010
0010
FFF0
ENDCHAR
STARTCHAR 23CE
ENCODING 9166
SWIDTH 1000 0
DWIDTH 24 0
BBX 20 20 2 -2
BITMAP
0007F0
000410
000410
000410
000410
000410
010410
030410
070410
0D0410
19FC10
300010
400010
800010
400030
300060
19FFC0
0D0000
070000
030000
ENDCHAR
STARTCHAR 2423
ENCODING 9251
SWIDTH 1000 0
DWIDTH 24 0
BBX 18 5 3 0
BITMAP
800040
800040
800040
FFFFC0
FFFFC0
ENDCHAR
STARTCHAR 2460
ENCODING 9312
SWIDTH 1000 0
DWIDTH 24 0
BBX 22 24 1 -3
BITMAP
00FC00
030300
0400C0
080060
103030
20F010
40F008
403008
803008
803004
803004
803004
803004
803004
803004
803008
403008
403008
203010
303030
180060
0C00C0
030300
00FC00
ENDCHAR
STARTCHAR 2461
ENCODING 9313
SWIDTH 1000 0
DWIDTH 24 0
BBX 23 23 0 -2
BITMAP
007E00
038180
040060
080030
107C18
20FF08
41C384
418184
818182
800182
800302
800602
801C02
803002
806002
40C004
418004
21FF88
33FF98
180030
0C0060
030180
00FE00
ENDCHAR
STARTCHAR 2462
ENCODING 9314
SWIDTH 1000 0
DWIDTH 24 0
BBX 22 23 1 -2
BITMAP
00FC00
030300
0400C0
180060
107C30
21FE10
418708
430308
800304
800304
800604
807C04
807E04
800704
800184
430188
430188
238390
31FF30
187C60
0C00C0
030300
00FC00
ENDCHAR
STARTCHAR 2463
ENCODING 9315
SWIDTH 1000 0
DWIDTH 24 0
BBX 23 24 1 -3
BITMAP
00FE00
030380
040040
080020
101C10
201C08
403C04
407C04
C06C04
80CC02
818C02
818C02
830C02
860C02
87FF82
87FF84
400C04
400C04
200C08
100C10
180030
0C0040
030180
00FE00
ENDCHAR
STARTCHAR 2464
ENCODING 9316
SWIDTH 1000 0
DWIDTH 24 0
BBX 23 23 1 -2
BITMAP
00FE00
030180
040060
180030
31FF18
21FF08
418004
418004
818002
81BC02
81FE02
81C302
818182
800182
800182
400184
418384
21C708
30FE18
187C30
0C0060
030180
00FE00
ENDCHAR
STARTCHAR 2465
ENCODING 9317
SWIDTH 1000 0
DWIDTH 24 0
BBX 22 22 1 -2
BITMAP
00FC00
070300
0C00C0
107C20
20FE10
61C710
418308
C10008
830004
837C04
83FE04
838604
830304
830304
430308
410308
218610
20FE10
107820
0C00C0
030300
00FC00
ENDCHAR
STARTCHAR 2466
ENCODING 9318
SWIDTH 1000 0
DWIDTH 24 0
BBX 23 22 0 -2
BITMAP
00FE00
030180
0C0060
180030
31FF98
61FF88
400184
400304
800302
800602
800602
800C02
800C02
801C02
401804
401804
203008
303018
183030
0C0060
030180
00FE00
ENDCHAR
STARTCHAR 2467
ENCODING 9319
SWIDTH 1000 0
DWIDTH 24 0
BBX 22 22 1 -2
BITMAP
01FC00
070300
1C00C0
107820
21FE10
638710
430308
C30308
830304
818604
80FC04
81FE04
838704
860184
460188
460188
238310
23FF10
10FC20
0C00C0
030300
00FC00
ENDCHAR
STARTCHAR 2468
ENCODING 9320
SWIDTH 1000 0
DWIDTH 24 0
BBX 22 23 1 -2
BITMAP
00FC00
070300
0C00C0
187860
30FC30
21C610
438308
430108
830184
830184
838384
81C784
80FD84
807B84
800384
438308
418708
21FE10
307C30
180060
0C00C0
030300
00FC00
ENDCHAR
STARTCHAR 2469
ENCODING 9321
SWIDTH 1000 0
DWIDTH 24 0
BBX 22 23 1 -2
BITMAP
00FC00
030300
0C00C0
180060
360E30
2E3F10
4E3188
467188
8660C4
8660C4
8660C4
8660C4
8660C4
8660C4
8660C4
467188
463188
263F90
360E30
180060
0C00C0
030300
00FC00
ENDCHAR
STARTCHAR 246A
ENCODING 9322
SWIDTH 1000 0
DWIDTH 24 0
BBX 23 23 0 -2
BITMAP
00FE00
030180
040060
180030
318198
278388
478384
418184
818182
818182
818182
818182
818182
818182
818182
418184
418184
218188
318198
180030
0C0060
030180
00FE00
ENDCHAR
STARTCHAR 246B
ENCODING 9323
SWIDTH 1000 0
DWIDTH 24 0
BBX 23 23 1 -2
BITMAP
00FE00
030180
0C0040
180030
360F18
2E1F88
4E31C4
4630C4
8670C2
8600C2
860182
860302
860602
860C02
861802
463004
463004
263FC8
367FD8
180030
0C0060
030180
00FE00
ENDCHAR
STARTCHAR 246C
ENCODING 9324
SWIDTH 1000 0
DWIDTH 24 0
BBX 22 23 1 -2
BITMAP
00FC00
030300
0C00C0
180060
361F30
2E3F10
4E3388
466188
860184
860184
860384
860F04
860F84
8601C4
8600C4
4660C8
4671C8
263F90
361F30
180060
0C00C0
030300
00FC00
ENDCHAR
STARTCHAR 246D
ENCODING 9325
SWIDTH 1000 0
DWIDTH 24 0
BBX 23 23 1 -2
BITMAP
00FE00
030180
0C0040
180030
360398
2E0388
4E0784
460784
860D82
860D82
861982
863182
863182
866182
867FE2
467FE4
460184
260188
360198
180030
0C0060
030180
00FE00
ENDCHAR
STARTCHAR 246E
ENCODING 9326
SWIDTH 1000 0
DWIDTH 24 0
BBX 22 23 1 -2
BITMAP
00FC00
030300
0C00C0
180060
363FB0
2E3F90
4E3008
463008
863004
863F04
863F84
8631C4
8600C4
8600C4
8600C4
4660C8
463188
263F90
361E30
180060
0C00C0
030300
00FC00
ENDCHAR
STARTCHAR 246F
ENCODING 9327
SWIDTH 1000 0
DWIDTH 24 0
BBX 22 23 1 -2
BITMAP
00FC00
030300
0C00C0
180060
360F30
2E1F90
4E3188
463188
866004
866004
866F04
867F84
8671C4
8660C4
8660C4
4660C8
4631C8
263F90
361F30
180060
0C00C0
030300
00FC00
ENDCHAR
STARTCHAR 2470
ENCODING 9328
SWIDTH 1000 0
DWIDTH 24 0
BBX 23 23 1 -2
BITMAP
00FE00
030180
0C0040
180030
367FD0
2E7FC8
4E00C4
460184
860182
860302
860302
860602
860602
860602
860C02
460C04
460C04
261C08
361818
180030
0C0060
030180
00FE00
ENDCHAR
STARTCHAR 2471
ENCODING 9329
SWIDTH 1000 0
DWIDTH 24 0
BBX 22 23 1 -2
BITMAP
00FC00
030300
0C00C0
180060
361E30
2E3F10
4E7388
466188
866184
863384
861F04
863F04
867184
8660C4
8660C4
4660C8
4671C8
263F90
361F30
180060
0C00C0
030300
00FC00
ENDCHAR
STARTCHAR 2472
ENCODING 9330
SWIDTH 1000 0
DWIDTH 24 0
BBX 22 23 1 -2
BITMAP
00FC00
030300
0C00C0
180060
361F30
2E3F90
4E3188
4660C8
8660C4
8660C4
8660C4
8671C4
863FC4
861EC4
8600C4
460188
467188
263F10
361E30
180060
0C00C0
030300
00FC00
ENDCHAR
STARTCHAR 2473
ENCODING 9331
SWIDTH 1000 0
DWIDTH 24 0
BBX 22 23 1 -2
BITMAP
00FC00
030300
0C00C0
180060
33C3B0
27C7D0
4C66C8
4C6C68
8C6C64
806C64
80CC64
818C64
818C64
830C64
860C64
460C68
4C06C8
2FE7D0
3FE3B0
180060
0C00C0
030300
00FC00
ENDCHAR
STARTCHAR 24D0
ENCODING 9424
SWIDTH 1000 0
DWIDTH 24 0
BBX 23 23 0 -2
BITMAP
007E00
018180
060060
080030
100018
200008
400004
407C04
80FE02
81C702
800302
807F02
80E302
818302
818302
418704
40FB84
200008
300018
180030
0C0060
030180
00FE00
ENDCHAR
STARTCHAR 24D1
ENCODING 9425
SWIDTH 1000 0
DWIDTH 24 0
BBX 23 23 1 -2
BITMAP
00FE00
030180
0C0040
180030
318010
218008
418004
418004
819E02
81E302
81C302
818182
818182
818182
818182
41C304
41E704
21BE08
300018
180030
0C0060
030180
00FE00
ENDCHAR
STARTCHAR 24D2
ENCODING 9426
SWIDTH 1000 0
DWIDTH 24 0
BBX 22 23 1 -2
BITMAP
00FC00
030300
0C00C0
180060
300030
200010
407808
41FC08
818604
838604
830004
830004
830004
838604
818604
41FC08
407808
200010
300030
180060
0C00C0
030300
00FC00
ENDCHAR
STARTCHAR 24D3
ENCODING 9427
SWIDTH 1000 0
DWIDTH 24 0
BBX 23 23 0 -2
BITMAP
007E00
038180
040060
080030
100318
200308
400304
400304
80F302
81CF02
838702
830302
830302
830302
830302
418704
418F04
207B08
300018
180030
0C0060
030180
00FE00
ENDCHAR
STARTCHAR 24D4
ENCODING 9428
SWIDTH 1000 0
DWIDTH 24 0
BBX 22 22 1 -2
BITMAP
01FC00
070300
0C00C0
100020
200010
600010
407808
C18408
818604
830204
83FF04
83FF04
830304
810204
418608
407808
200010
200010
100020
0C00C0
030300
00FC00
ENDCHAR
STARTCHAR 24D5
ENCODING 9429
SWIDTH 1000 0
DWIDTH 24 0
BBX 22 23 1 -2
BITMAP
00FC00
030300
0400C0
080060
100030
203C10
407C08
406008
806004
806004
81FC04
81FC04
806004
806004
806004
406008
406008
206010
306030
180060
0C00C0
030300
00FC00
ENDCHAR
STARTCHAR 24D6
ENCODING 9430
SWIDTH 1000 0
DWIDTH 24 0
BBX 23 22 0 -2
BITMAP
00FE00
070180
0C0060
180030
300018
607B08
40C704
C18304
818302
818302
818302
80C702
807B02
800302
418304
40C604
207C08
300018
180030
0C0060
030180
00FE00
ENDCHAR
STARTCHAR 24D7
ENCODING 9431
SWIDTH 1000 0
DWIDTH 24 0
BBX 24 23 0 -3
BITMAP
007E00
0381C0
040020
180018
30C008
20C004
40C002
40C002
80CE01
80FF01
80F181
80C181
80C181
80C181
80C181
40C182
40C182
20C184
100008
180018
040020
0381C0
007E00
ENDCHAR
STARTCHAR 24D8
ENCODING 9432
SWIDTH 1000 0
DWIDTH 24 0
BBX 22 22 1 -2
BITMAP
01FC00
070300
0C00C0
100020
203010
603010
400008
C00008
803004
803004
803004
803004
803004
803004
403008
403008
203010
203010
100020
0C00C0
030300
00FC00
ENDCHAR
STARTCHAR 24D9
ENCODING 9433
SWIDTH 1000 0
DWIDTH 24 0
BBX 23 24 1 -3
BITMAP
00FE00
030380
040040
181820
101810
200008
400004
400004
C01804
801802
801802
801802
801802
801802
801802
401804
401804
401804
20F808
10F010
180030
040040
030180
00FE00
ENDCHAR
STARTCHAR 24DA
ENCODING 9434
SWIDTH 1000 0
DWIDTH 24 0
BBX 23 23 0 -3
BITMAP
00FE00
030180
040060
180030
30C018
20C008
40C004
40C004
80C302
80C602
80CC02
80D802
80FC02
80EC02
80C602
40C304
40C184
20C188
300018
180030
0C0060
030180
00FE00
ENDCHAR
STARTCHAR 24DB
ENCODING 9435
SWIDTH 1000 0
DWIDTH 24 0
BBX 22 22 1 -2
BITMAP
01FC00
070300
0C00C0
100020
203010
603010
403008
C03008
803004
803004
803004
803004
803004
803004
403008
403008
203010
203010
100020
0C00C0
030300
00FC00
ENDCHAR
STARTCHAR 24DC
ENCODING 9436
SWIDTH 1000 0
DWIDTH 24 0
BBX 22 24 1 -3
BITMAP
00FC00
030300
0400C0
180060
100020
200010
400008
46E708
87FF88
873984
863184
863184
863184
863184
863184
C63188
463188
400008
200010
300030
180060
0C00C0
030300
00FC00
ENDCHAR
STARTCHAR 24DD
ENCODING 9437
SWIDTH 1000 0
DWIDTH 24 0
BBX 22 24 1 -3
BITMAP
00FC00
030300
0400C0
080060
100030
200010
400008
41BC08
81FE08
81C604
818604
818604
818604
818604
818604
C18608
418608
400008
200010
300030
180060
0C00C0
030300
00FC00
ENDCHAR
STARTCHAR 24DE
ENCODING 9438
SWIDTH 1000 0
DWIDTH 24 0
BBX 22 22 1 -2
BITMAP
01FC00
070300
1C00C0
100020
200010
600010
407808
C1FE08
818604
830304
830304
830304
830304
818604
41FE08
407808
200010
200010
100020
0C00C0
030300
00FC00
ENDCHAR
STARTCHAR 24DF
ENCODING 9439
SWIDTH 1000 0
DWIDTH 24 0
BBX 23 23 1 -2
BITMAP
00FE00
030180
0C0040
180030
300010
200008
41BE04
41E304
81C382
818182
818182
818182
818182
81C302
81E302
419E04
418004
218008
300018
180030
0C0060
030180
00FE00
ENDCHAR
STARTCHAR 24E0
ENCODING 9440
SWIDTH 1000 0
DWIDTH 24 0
BBX 23 23 0 -2
BITMAP
007E00
038180
040060
080030
100018
200008
40FB04
418F04
838702
830302
830302
830302
830302
818702
818F02
40F304
400304
200308
300018
180030
0C0060
030180
00FE00
ENDCHAR
STARTCHAR 24E1
ENCODING 9441
SWIDTH 1000 0
DWIDTH 24 0
BBX 22 22 1 -2
BITMAP
00FC00
070300
0C00C0
100020
200010
600010
400008
406608
806E04
807004
806004
806004
806004
806004
406008
406008
600010
200010
100020
0C00C0
030300
00FC00
ENDCHAR
STARTCHAR 24E2
ENCODING 9442
SWIDTH 1000 0
DWIDTH 24 0
BBX 22 23 1 -3
BITMAP
00FC00
070300
0C00C0
180060
300030
600010
40F808
418C08
818604
81C004
80F804
803C04
800E04
818604
818604
40F808
400008
200010
300030
180060
0C00C0
030300
00FC00
ENDCHAR
STARTCHAR 24E3
ENCODING 9443
SWIDTH 1000 0
DWIDTH 24 0
BBX 22 22 1 -2
BITMAP
01FC00
070300
1C00C0
100020
200010
606010
406008
C1FC08
81FC04
806004
806004
806004
806004
806004
406008
407C08
207C10
200010
100020
0C00C0
030300
00FC00
ENDCHAR
STARTCHAR 24E4
ENCODING 9444
SWIDTH 1000 0
DWIDTH 24 0
BBX 22 24 1 -3
BITMAP
00FC00
030300
0400C0
080060
100030
200010
400008
418608
818608
818604
818604
818604
818604
818604
818E04
C1FE08
40F608
400008
200010
300030
180060
0C00C0
030300
00FC00
ENDCHAR
STARTCHAR 24E5
ENCODING 9445
SWIDTH 1000 0
DWIDTH 24 0
BBX 22 22 1 -2
BITMAP
00FC00
070300
0C00C0
100020
200010
600010
400008
C30308
830304
818604
818604
80CC04
80CC04
807804
407808
403008
200010
200010
100020
0C00C0
030300
00FC00
ENDCHAR
STARTCHAR 24E6
ENCODING 9446
SWIDTH 1000 0
DWIDTH 24 0
BBX 22 22 1 -2
BITMAP
00FC00
070300
0C00C0
100020
200010
600010
400008
CC30C8
8C30C4
8C78C4
867984
864984
82CD04
83CF04
438708
418608
200010
200010
100020
0C00C0
030300
00FC00
ENDCHAR
STARTCHAR 24E7
ENCODING 9447
SWIDTH 1000 0
DWIDTH 24 0
BBX 22 24 1 -3
BITMAP
00FC00
030300
0400C0
180060
100020
200010
400008
430708
818608
80CC04
807804
807804
807804
80FC04
81CC04
C18608
430308
400008
200010
300030
180060
0C00C0
030300
00FC00
ENDCHAR
STARTCHAR 24E8
ENCODING 9448
SWIDTH 1000 0
DWIDTH 24 0
BBX 23 23 1 -2
BITMAP
00FE00
030180
040040
180030
100018
200008
418184
418304
80C302
80C602
804602
806602
802C02
803C02
803802
401804
403004
21F008
31E018
180030
0C0060
030180
00FE00
ENDCHAR
STARTCHAR 24E9
ENCODING 9449
SWIDTH 1000 0
DWIDTH 24 0
BBX 23 24 0 -3
BITMAP
007E00
038380
040040
080030
100010
200008
400004
40FF04
40FF04
800602
800C02
801802
803002
806002
80C002
C1FF04
41FF04
400004
200008
300010
180030
0C0040
030180
00FE00
ENDCHAR
STARTCHAR 24EB
ENCODING 9451
SWIDTH 1000 0
DWIDTH 24 0
BBX 23 23 1 -2
BITMAP
00FE00
03FF80
0FFFC0
1FFFF0
3CFE78
30F878
70F87C
7CFE7C
FCFE7E
FCFE7E
FCFE7E
FCFE7E
FCFE7E
FCFE7E
FCFE7E
7CFE7C
7CFE7C
3CFE78
3CFE78
1FFFF0
0FFFE0
03FF80
00FE00
ENDCHAR
STARTCHAR 24EC
ENCODING 9452
SWIDTH 1000 0
DWIDTH 24 0
BBX 24 23 0 -2
BITMAP
007E00
03FFC0
07FFE0
1FFFF8
1CF878
30F33C
70E79E
7CE79E
FCE79F
FCFF1F
FCFF3F
FCFE3F
FCFC7F
FCF8FF
FCF1FF
7CF3FE
7CE3FE
3CE7FC
1CE018
1FFFF8
07FFE0
03FFC0
007E00
ENDCHAR
STARTCHAR 24ED
ENCODING 9453
SWIDTH 1000 0
DWIDTH 24 0
BBX 23 23 0 -2
BITMAP
00FE00
03FF80
07FFE0
1FFFF0
1CF8F8
38F078
70E73C
7CEFBC
FCFFBE
FCFFBE
FCFF7E
FCF87E
FCFF3E
FCFF9E
FCFF9E
7CCF9C
7CEF9C
3CE738
3CF078
1FFFF0
0FFFE0
03FF80
00FE00
ENDCHAR
STARTCHAR 24EE
ENCODING 9454
SWIDTH 1000 0
DWIDTH 24 0
BBX 24 23 0 -2
BITMAP
007E00
03FFC0
07FFE0
1FFFF8
1CFF38
30FE3C
70FC3E
7CFC3E
FCF93F
FCF93F
FCF33F
FCE73F
FCE73F
FCCF3F
FCC00F
7CC00E
7CFF3E
3CFF3C
1CFF38
1FFFF8
07FFE0
03FFC0
007E00
ENDCHAR
STARTCHAR 24EF
ENCODING 9455
SWIDTH 1000 0
DWIDTH 24 0
BBX 23 23 0 -2
BITMAP
00FE00
03FF80
07FFE0
1FFFF0
1CE038
38E038
70E7FC
7CE7FC
FCE7FE
FCE87E
FCE03E
FCE71E
FCFF9E
FCFF9E
FCFF9E
7CEF9C
7CE73C
3CF038
3CF878
1FFFF0
0FFFE0
03FF80
00FE00
ENDCHAR
STARTCHAR 24F0
ENCODING 9456
SWIDTH 1000 0
DWIDTH 24 0
BBX 23 23 0 -2
BITMAP
00FE00
03FF80
07FFE0
1FFFF0
1CFC78
38F838
70F31C
74F79C
FCE7FE
FCE7FE
FCE87E
FCE33E
FCE79E
FCE79E
FCE79E
7CE79C
7CF79C
3CF338
3CF878
1FFFF0
0FFFE0
03FF80
00FE00
ENDCHAR
STARTCHAR 24F1
ENCODING 9457
SWIDTH 1000 0
DWIDTH 24 0
BBX 23 23 1 -2
BITMAP
00FE00
03FF80
0FFFC0
1FFFF0
39C038
31C038
71FF3C
79FE7C
F9FE7E
F9FEFE
F9FCFE
F9FCFE
F9FDFE
F9F9FE
F9F9FE
79F9FC
79F3FC
39F3F8
39F3F8
1FFFF0
0FFFE0
03FF80
00FE00
ENDCHAR
STARTCHAR 24F2
ENCODING 9458
SWIDTH 1000 0
DWIDTH 24 0
BBX 23 23 0 -2
BITMAP
00FE00
03FF80
07FFE0
1FFFF0
1CF878
30F738
70EF9C
7CEF9C
FCEF9E
FCE73E
FCF07E
FCF03E
FCE73E
FCCF9E
FCCF9E
7CCF9C
7CCF9C
3CE738
3CF078
1FFFF0
0FFFE0
03FF80
00FE00
ENDCHAR
STARTCHAR 24F3
ENCODING 9459
SWIDTH 1000 0
DWIDTH 24 0
BBX 23 23 0 -2
BITMAP
00FE00
03FF80
07FFE0
1FFFF0
1CF878
30F038
70F33C
7CE79C
FCE79E
FCE79E
FCE79E
FCE71E
FCF01E
FCF89E
FCFF9E
7CFFBC
7CE7BC
3CE778
3CF0F8
1FFFF0
0FFFE0
03FF80
00FE00
ENDCHAR
STARTCHAR 24F4
ENCODING 9460
SWIDTH 1000 0
DWIDTH 24 0
BBX 23 23 1 -2
BITMAP
00FE00
03FF80
07FFE0
0FFFF0
1C7C78
383838
73B9BC
73B3DC
F3B3DE
FFB3DE
FF73DE
FE73DE
FEF3DE
FDF3DE
F9F3DE
7BF3DC
7BF9DC
301998
301C38
1FFFF0
0FFFE0
03FF80
00FE00
ENDCHAR
STARTCHAR 24F5
ENCODING 9461
SWIDTH 1000 0
DWIDTH 24 0
BBX 22 23 1 -2
BITMAP
00FC00
030300
0CFCC0
1B0360
3601A0
283050
58F068
50F028
F03038
A03014
A03014
A03014
A03014
A03014
A03034
903024
583068
483048
243190
130320
08FCC0
070380
00FE00
ENDCHAR
STARTCHAR 24F6
ENCODING 9462
SWIDTH 1000 0
DWIDTH 24 0
BBX 23 23 1 -2
BITMAP
00FE00
030180
0CFC40
1B83A0
367CD0
2CFE68
58C734
518314
B1831A
A0030A
A0060A
A01C0A
A0380A
A0600A
B0C01E
518014
59FF3C
4DFF68
2600D8
1383B0
0CFE60
030380
00FE00
ENDCHAR
STARTCHAR 24F7
ENCODING 9463
SWIDTH 1000 0
DWIDTH 24 0
BBX 22 22 1 -2
BITMAP
00FC00
030380
0CFCC0
1B0360
3478B0
69FC58
518E28
530628
A00614
A00E14
A07C14
A07C14
A00614
A00314
930328
538728
49FE48
24FC90
130320
08FCC0
070380
00FE00
ENDCHAR
STARTCHAR 24F8
ENCODING 9464
SWIDTH 1000 0
DWIDTH 24 0
BBX 22 23 1 -2
BITMAP
00FC00
030300
0CFCC0
1B0360
3601A0
281850
581868
503828
F06838
A0C814
A0C814
A18814
A30814
A60814
A7FF34
97FF24
580868
480848
240990
130320
08FCC0
060380
01FE00
ENDCHAR
STARTCHAR 24F9
ENCODING 9465
SWIDTH 1000 0
DWIDTH 24 0
BBX 22 22 1 -2
BITMAP
00FE00
030380
0CFCC0
130320
240090
68FE58
51FE28
518028
A18014
A1BC14
A1FE14
A18714
A00314
A00314
518724
50FE28
487C48
240090
130320
0CFCC0
030380
00FE00
ENDCHAR
STARTCHAR 24FA
ENCODING 9466
SWIDTH 1000 0
DWIDTH 24 0
BBX 22 23 1 -2
BITMAP
00FC00
030300
0CFCC0
1B0360
3601B0
287850
58FE68
50C628
B18034
A10014
A17C14
A1FE14
A1C714
A18314
A18334
508728
58FE68
487C48
240190
130320
0CFCC0
030380
00FE00
ENDCHAR
STARTCHAR 24FB
ENCODING 9467
SWIDTH 1000 0
DWIDTH 24 0
BBX 23 23 1 -2
BITMAP
00FE00
030180
0CFC40
1B83A0
3600D0
2C0068
59FF34
51FF14
B0031C
A0060A
A0060A
A00C0A
A00C0A
A0180A
B0181A
503014
583034
4C3068
2660D8
1383B0
0CFE60
030180
00FE00
ENDCHAR
STARTCHAR 24FC
ENCODING 9468
SWIDTH 1000 0
DWIDTH 24 0
BBX 22 22 1 -2
BITMAP
00FE00
030380
0CFCE0
1B0320
247890
68FC58
51C628
51862C
A18614
A1C614
A07814
A1FE14
A38314
A30314
930328
538728
49FE48
24FC90
130320
08FCC0
070380
00FE00
ENDCHAR
STARTCHAR 24FD
ENCODING 9469
SWIDTH 1000 0
DWIDTH 24 0
BBX 22 22 1 -2
BITMAP
00FE00
030380
0CFCC0
1B0320
347890
68FE58
51C628
51832C
A18314
A18314
A1C714
A0FF14
A07B14
A00314
918624
51C628
48FC48
247890
130320
08FCC0
070380
00FE00
ENDCHAR
STARTCHAR 24FE
ENCODING 9470
SWIDTH 1000 0
DWIDTH 24 0
BBX 23 22 0 -2
BITMAP
00FE00
0301C0
0CFE60
1B83B0
3600D8
28872C
5B8FB4
529D94
A098CA
A098CA
A098CA
A098CA
A098CA
A098CA
509DD4
508FB4
28872C
3600C8
1B8390
0CFE60
030180
00FE00
ENDCHAR
STARTCHAR 2500
ENCODING 9472
SWIDTH 1000 0
DWIDTH 24 0
BBX 24 1 0 9
BITMAP
FFFFFF
ENDCHAR
STARTCHAR 2501
ENCODING 9473
SWIDTH 1000 0
DWIDTH 24 0
BBX 24 3 0 8
BITMAP
FFFFFF
FFFFFF
FFFFFF
ENDCHAR
STARTCHAR 2502
ENCODING 9474
SWIDTH 1000 0
DWIDTH 24 0
BBX 1 24 12 -3
BITMAP
80
80
80
80
80
80
80
80
80
80
80
80
80
80
80
80
80
80
80
80
80
80
80
80
ENDCHAR
STARTCHAR 2503
ENCODING 9475
SWIDTH 1000 0
DWIDTH 24 0
BBX 3 24 11 -3
BITMAP
E0
E0
E0
E0
E0
E0
E0
E0
E0
E0
E0
E0
E0
E0
E0
E0
E0
E0
E0
E0
E0
E0
E0
E0
ENDCHAR
STARTCHAR 250C
ENCODING 9484
SWIDTH 1000 0
DWIDTH 24 0
BBX 12 13 12 -3
BITMAP
FFF0
8000
8000
8000
8000
8000
8000
8000
8000
8000
8000
8000
8000
ENDCHAR
STARTCHAR 250F
ENCODING 9487
SWIDTH 1000 0
DWIDTH 24 0
BBX 13 14 11 -3
BITMAP
FFF8
FFF8
FFF8
E000
E000
E000
E000
E000
E000
E000
E000
E000
E000
E000
ENDCHAR
STARTCHAR 2510
ENCODING 9488
SWIDTH 1000 0
DWIDTH 24 0
BBX 12 13 0 -3
BITMAP
FFF0
0010
0010
0010
0010
0010
0010
0010
0010
0010
0010
0010
0010
ENDCHAR
STARTCHAR 2513
ENCODING 9491
SWIDTH 1000 0
DWIDTH 24 0
BBX 13 14 0 -3
BITMAP
FFF8
FFF8
FFF8
0038
0038
0038
0038
0038
0038
0038
0038
0038
0038
0038
ENDCHAR
STARTCHAR 2514
ENCODING 9492
SWIDTH 1000 0
DWIDTH 24 0
BBX 12 12 12 9
BITMAP
8000
8000
8000
8000
8000
8000
8000
8000
8000
8000
8000
FFF0
ENDCHAR
STARTCHAR 2517
ENCODING 9495
SWIDTH 1000 0
DWIDTH 24 0
BBX 13 13 11 8
BITMAP
E000
E000
E000
E000
E000
E000
E000
E000
E000
E000
FFF8
FFF8
FFF8
ENDCHAR
STARTCHAR 2518
ENCODING 9496
SWIDTH 1000 0
DWIDTH 24 0
BBX 12 12 0 9
BITMAP
0010
0010
0010
0010
0010
0010
0010
0010
0010
0010
0010
FFF0
ENDCHAR
STARTCHAR 251B
ENCODING 9499
SWIDTH 1000 0
DWIDTH 24 0
BBX 13 13 0 8
BITMAP
0038
0038
0038
0038
0038
0038
0038
0038
0038
0038
FFF8
FFF8
FFF8
ENDCHAR
STARTCHAR 251C
ENCODING 9500
SWIDTH 1000 0
DWIDTH 24 0
BBX 12 24 12 -3
BITMAP
8000
8000
8000
8000
8000
8000
8000
8000
8000
8000
8000
FFF0
8000
8000
8000
8000
8000
8000
8000
8000
8000
8000
8000
8000
ENDCHAR
STARTCHAR 251D
ENCODING 9501
SWIDTH 1000 0
DWIDTH 24 0
BBX 12 24 12 -3
BITMAP
8000
8000
8000
8000
8000
8000
8000
8000
8000
8000
FFF0
FFF0
FFF0
8000
8000
8000
8000
8000
8000
8000
8000
8000
8000
8000
ENDCHAR
STARTCHAR 2520
ENCODING 9504
SWIDTH 1000 0
DWIDTH 24 0
BBX 13 24 11 -3
BITMAP
E000
E000
E000
E000
E000
E000
E000
E000
E000
E000
E000
FFF8
E000
E000
E000
E000
E000
E000
E000
E000
E000
E000
E000
E000
ENDCHAR
STARTCHAR 2523
ENCODING 9507
SWIDTH 1000 0
DWIDTH 24 0
BBX 13 24 11 -3
BITMAP
E000
E000
E000
E000
E000
E000
E000
E000
E000
E000
FFF8
FFF8
FFF8
E000
E000
E000
E000
E000
E000
E000
E000
E000
E000
E000
ENDCHAR
STARTCHAR 2524
ENCODING 9508
SWIDTH 1000 0
DWIDTH 24 0
BBX 12 24 0 -3
BITMAP
0010
0010
0010
0010
0010
0010
0010
0010
0010
0010
0010
FFF0
0010
0010
0010
0010
0010
0010
0010
0010
0010
0010
0010
0010
ENDCHAR
STARTCHAR 2525
ENCODING 9509
SWIDTH 1000 0
DWIDTH 24 0
BBX 12 24 0 -3
BITMAP
0010
0010
0010
0010
0010
0010
0010
0010
0010
0010
FFF0
FFF0
FFF0
0010
0010
0010
0010
0010
0010
0010
0010
0010
0010
0010
ENDCHAR
STARTCHAR 2528
ENCODING 9512
SWIDTH 1000 0
DWIDTH 24 0
BBX 13 24 0 -3
BITMAP
0038
0038
0038
0038
0038
0038
0038
0038
0038
0038
0038
FFF8
0038
0038
0038
0038
0038
0038
0038
0038
0038
0038
0038
0038
ENDCHAR
STARTCHAR 252B
ENCODING 9515
SWIDTH 1000 0
DWIDTH 24 0
BBX 13 24 0 -3
BITMAP
0038
0038
0038
0038
0038
0038
0038
0038
0038
0038
FFF8
FFF8
FFF8
0038
0038
0038
0038
0038
0038
0038
0038
0038
0038
0038
ENDCHAR
STARTCHAR 252C
ENCODING 9516
SWIDTH 1000 0
DWIDTH 24 0
BBX 24 13 0 -3
BITMAP
FFFFFF
000800
000800
000800
000800
000800
000800
000800
000800
000800
000800
000800
000800
ENDCHAR
STARTCHAR 252F
ENCODING 9519
SWIDTH 1000 0
DWIDTH 24 0
BBX 24 14 0 -3
BITMAP
FFFFFF
FFFFFF
FFFFFF
000800
000800
000800
000800
000800
000800
000800
000800
000800
000800
000800
ENDCHAR
STARTCHAR 2530
ENCODING 9520
SWIDTH 1000 0
DWIDTH 24 0
BBX 24 13 0 -3
BITMAP
FFFFFF
001C00
001C00
001C00
001C00
001C00
001C00
001C00
001C00
001C00
001C00
001C00
001C00
ENDCHAR
STARTCHAR 2533
ENCODING 9523
SWIDTH 1000 0
DWIDTH 24 0
BBX 24 14 0 -3
BITMAP
FFFFFF
FFFFFF
FFFFFF
001C00
001C00
001C00
001C00
001C00
001C00
001C00
001C00
001C00
001C00
001C00
ENDCHAR
STARTCHAR 2534
ENCODING 9524
SWIDTH 1000 0
DWIDTH 24 0
BBX 24 12 0 9
BITMAP
000800
000800
000800
000800
000800
000800
000800
000800
000800
000800
000800
FFFFFF
ENDCHAR
STARTCHAR 2537
ENCODING 9527
SWIDTH 1000 0
DWIDTH 24 0
BBX 24 13 0 8
BITMAP
000800
000800
000800
000800
000800
000800
000800
000800
000800
000800
FFFFFF
FFFFFF
FFFFFF
ENDCHAR
STARTCHAR 2538
ENCODING 9528
SWIDTH 1000 0
DWIDTH 24 0
BBX 24 12 0 9
BITMAP
001C00
001C00
001C00
001C00
001C00
001C00
001C00
001C00
001C00
001C00
001C00
FFFFFF
ENDCHAR
STARTCHAR 253B
ENCODING 9531
SWIDTH 1000 0
DWIDTH 24 0
BBX 24 13 0 8
BITMAP
001C00
001C00
001C00
001C00
001C00
001C00
001C00
001C00
001C00
001C00
FFFFFF
FFFFFF
FFFFFF
ENDCHAR
STARTCHAR 253C
ENCODING 9532
SWIDTH 1000 0
DWIDTH 24 0
BBX 24 24 0 -3
BITMAP
000800
000800
000800
000800
000800
000800
000800
000800
000800
000800
000800
FFFFFF
000800
000800
000800
000800
000800
000800
000800
000800
000800
000800
000800
000800
ENDCHAR
STARTCHAR 253F
ENCODING 9535
SWIDTH 1000 0
DWIDTH 24 0
BBX 24 24 0 -3
BITMAP
000800
000800
000800
000800
000800
000800
000800
000800
000800
000800
FFFFFF
FFFFFF
FFFFFF
000800
000800
000800
000800
000800
000800
000800
000800
000800
000800
000800
ENDCHAR
STARTCHAR 2542
ENCODING 9538
SWIDTH 1000 0
DWIDTH 24 0
BBX 24 24 0 -3
BITMAP
001C00
001C00
001C00
001C00
001C00
001C00
001C00
001C00
001C00
001C00
001C00
FFFFFF
001C00
001C00
001C00
001C00
001C00
001C00
001C00
001C00
001C00
001C00
001C00
001C00
ENDCHAR
STARTCHAR 254B
ENCODING 9547
SWIDTH 1000 0
DWIDTH 24 0
BBX 24 24 0 -3
BITMAP
001C00
001C00
001C00
001C00
001C00
001C00
001C00
001C00
001C00
001C00
FFFFFF
FFFFFF
FFFFFF
001C00
001C00
001C00
001C00
001C00
001C00
001C00
001C00
001C00
001C00
001C00
ENDCHAR
STARTCHAR 25A0
ENCODING 9632
SWIDTH 1000 0
DWIDTH 24 0
BBX 18 18 3 0
BITMAP
FFFFC0
FFFFC0
FFFFC0
FFFFC0
FFFFC0
FFFFC0
FFFFC0
FFFFC0
FFFFC0
FFFFC0
FFFFC0
FFFFC0
FFFFC0
FFFFC0
FFFFC0
FFFFC0
FFFFC0
FFFFC0
ENDCHAR
STARTCHAR 25A1
ENCODING 9633
SWIDTH 1000 0
DWIDTH 24 0
BBX 18 18 3 0
BITMAP
FFFFC0
FFFFC0
800040
800040
800040
800040
800040
800040
800040
800040
800040
800040
800040
800040
800040
800040
FFFFC0
FFFFC0
ENDCHAR
STARTCHAR 25B1
ENCODING 9649
SWIDTH 500 0
DWIDTH 12 0
BBX 10 5 1 7
BITMAP
3FC0
2080
6180
4100
FF00
ENDCHAR
STARTCHAR 25B2
ENCODING 9650
SWIDTH 1000 0
DWIDTH 24 0
BBX 18 18 3 1
BITMAP
00C000
00C000
01E000
01E000
03F000
03F000
07F800
07F800
0FFC00
0FFC00
1FFE00
1FFE00
3FFF00
3FFF00
7FFF80
7FFF80
FFFFC0
FFFFC0
ENDCHAR
STARTCHAR 25B3
ENCODING 9651
SWIDTH 1000 0
DWIDTH 24 0
BBX 18 18 3 1
BITMAP
00C000
00C000
01E000
01E000
033000
031000
061800
040800
0C0C00
080400
180600
100200
300300
200100
600180
400080
FFFFC0
FFFFC0
ENDCHAR
STARTCHAR 25B6
ENCODING 9654
SWIDTH 500 0
DWIDTH 12 0
BBX 9 13 2 2
BITMAP
8000
C000
E000
F800
FC00
FF00
FF80
FF80
FE00
FC00
F800
E000
C000
ENDCHAR
STARTCHAR 25B7
ENCODING 9655
SWIDTH 500 0
DWIDTH 12 0
BBX 9 13 2 2
BITMAP
8000
C000
E000
9800
8C00
8300
8180
8180
8200
8C00
9800
E000
C000
ENDCHAR
STARTCHAR 25BC
ENCODING 9660
SWIDTH 1000 0
DWIDTH 24 0
BBX 18 18 3 -1
BITMAP
FFFFC0
FFFFC0
7FFF80
7FFF80
3FFF00
3FFF00
1FFE00
1FFE00
0FFC00
0FFC00
07F800
07F800
03F000
03F000
01E000
01E000
00C000
00C000
ENDCHAR
STARTCHAR 25BD
ENCODING 9661
SWIDTH 1000 0
DWIDTH 24 0
BBX 18 18 3 -1
BITMAP
FFFFC0
FFFFC0
400080
600180
200100
300300
100200
180600
080400
0C0C00
040800
061800
023000
033000
01E000
01E000
00C000
00C000
ENDCHAR
STARTCHAR 25C0
ENCODING 9664
SWIDTH 500 0
DWIDTH 12 0
BBX 9 13 1 2
BITMAP
0080
0180
0380
0F80
1F80
7F80
FF80
FF80
3F80
1F80
0F80
0380
0180
ENDCHAR
STARTCHAR 25C1
ENCODING 9665
SWIDTH 500 0
DWIDTH 12 0
BBX 9 13 1 2
BITMAP
0080
0180
0380
0C80
1880
6080
C080
C080
2080
1880
0C80
0380
0180
ENDCHAR
STARTCHAR 25C6
ENCODING 9670
SWIDTH 1000 0
DWIDTH 24 0
BBX 20 20 2 -1
BITMAP
006000
00F000
01F800
03FC00
07FE00
0FFF00
1FFF80
3FFFC0
7FFFE0
FFFFF0
FFFFF0
7FFFE0
3FFFC0
1FFF80
0FFF00
07FE00
03FC00
01F800
00F000
006000
ENDCHAR
STARTCHAR 25C7
ENCODING 9671
SWIDTH 1000 0
DWIDTH 24 0
BBX 20 20 2 -1
BITMAP
006000
00F000
019800
030C00
060600
0C0300
180180
3000C0
600060
C00030
C00030
600060
3000C0
180180
0C0300
060600
030C00
019800
00F000
006000
ENDCHAR
STARTCHAR 25C9
ENCODING 9673
SWIDTH 500 0
DWIDTH 12 0
BBX 10 11 1 4
BITMAP
1E00
3100
4080
9E40
BF40
BF40
BF40
BF40
5EC0
2180
1F00
ENDCHAR
STARTCHAR 25CB
ENCODING 9675
SWIDTH 1000 0
DWIDTH 24 0
BBX 20 20 2 -1
BITMAP
01F800
07FE00
1E0780
3C01C0
3000C0
600060
600060
C00030
C00030
C00030
C00030
C00030
C00030
600060
600060
3000C0
3801C0
1E0780
07FE00
01F800
ENDCHAR
STARTCHAR 25CE
ENCODING 9678
SWIDTH 1000 0
DWIDTH 24 0
BBX 20 20 2 -1
BITMAP
01F800
07FE00
1E0780
3801C0
30F0C0
63FC60
660E60
CC0630
CC0330
CC0330
CC0330
CC0330
CE0630
670E60
63FC60
30F0C0
3801C0
1E0780
07FE00
01F800
ENDCHAR
STARTCHAR 25CF
ENCODING 9679
SWIDTH 1000 0
DWIDTH 24 0
BBX 20 20 2 -1
BITMAP
01F800
07FE00
1FFF80
3FFFC0
3FFFC0
7FFFE0
7FFFE0
FFFFF0
FFFFF0
FFFFF0
FFFFF0
FFFFF0
FFFFF0
7FFFE0
7FFFE0
3FFFC0
3FFFC0
1FFF80
07FE00
01F800
ENDCHAR
STARTCHAR 25D0
ENCODING 9680
SWIDTH 500 0
DWIDTH 12 0
BBX 10 11 1 4
BITMAP
1E00
3F00
7880
F8C0
F840
F840
F840
F840
7880
3900
1E00
ENDCHAR
STARTCHAR 25D1
ENCODING 9681
SWIDTH 500 0
DWIDTH 12 0
BBX 10 11 1 4
BITMAP
1E00
3F00
4780
C7C0
87C0
87C0
87C0
87C0
4780
2700
1E00
ENDCHAR
STARTCHAR 25D2
ENCODING 9682
SWIDTH 500 0
DWIDTH 12 0
BBX 10 10 1 4
BITMAP
1E00
6100
4080
8040
8040
FFC0
FFC0
7F80
7F80
1E00
ENDCHAR
STARTCHAR 25D3
ENCODING 9683
SWIDTH 500 0
DWIDTH 12 0
BBX 10 10 1 4
BITMAP
1E00
7F80
7F80
FFC0
FFC0
8040
8040
4080
6180
1E00
ENDCHAR
STARTCHAR 25E6
ENCODING 9702
SWIDTH 500 0
DWIDTH 12 0
BBX 6 6 3 7
BITMAP
70
C8
84
84
CC
78
ENDCHAR
STARTCHAR 25EF
ENCODING 9711
SWIDTH 1000 0
DWIDTH 24 0
BBX 22 22 1 -2
BITMAP
01FC00
070300
1C00C0
100020
200010
600010
400008
C00008
800004
800004
800004
800004
800004
800004
400008
400008
200010
200010
100020
0C00C0
030300
00FC00
ENDCHAR
STARTCHAR 2600
ENCODING 9728
SWIDTH 1000 0
DWIDTH 24 0
BBX 22 22 1 -2
BITMAP
001000
001000
001000
101020
080040
047880
01FE00
03FF00
03FF80
07FF80
F7FFBC
07FF80
07FF80
03FF00
03FF00
01FE00
047880
080040
101020
001000
001000
001000
ENDCHAR
STARTCHAR 2601
ENCODING 9729
SWIDTH 1000 0
DWIDTH 24 0
BBX 20 17 2 -1
BITMAP
03E000
07F000
0FF800
0FFC00
0FFCE0
0FFDF0
0FFFF0
1FFFF0
7FFFF0
7FFFE0
FFFFE0
FFFFF0
FFFFF0
FFBFF0
7F1FF0
3C1FE0
0007C0
ENDCHAR
STARTCHAR 2602
ENCODING 9730
SWIDTH 1000 0
DWIDTH 24 0
BBX 23 22 1 -2
BITMAP
001000
001000
01FF00
07FFC0
1FFFF0
3FFFF8
7FFFFC
7FFFFC
C739C6
8610C2
841082
001000
001000
001000
001000
001000
001000
001000
001000
011000
009000
00E000
ENDCHAR
STARTCHAR 2603
ENCODING 9731
SWIDTH 1000 0
DWIDTH 24 0
BBX 22 22 1 -1
BITMAP
80621C
06050C
0A0880
041040
602020
61E058
061898
040780
08CC40
68CC40
A80040
44848C
06798C
C80040
500020
A03010
203010
200010
203010
303030
180060
07FF80
ENDCHAR
STARTCHAR 2605
ENCODING 9733
SWIDTH 1000 0
DWIDTH 24 0
BBX 20 20 2 0
BITMAP
006000
006000
006000
00F000
00F000
00F000
01F800
FFFFF0
7FFFE0
1FFF80
0FFF00
07FE00
07FC00
07FE00
07FE00
0F9F00
0F0F00
0E0700
180180
100080
ENDCHAR
STARTCHAR 2606
ENCODING 9734
SWIDTH 1000 0
DWIDTH 24 0
BBX 20 20 2 0
BITMAP
006000
006000
006000
00F000
009000
009000
019800
FF0FF0
7000E0
180180
0C0300
020400
060600
040200
04F200
0D9B00
0B0D00
0C0300
180180
100080
ENDCHAR
STARTCHAR 260E
ENCODING 9742
SWIDTH 1000 0
DWIDTH 24 0
BBX 22 18 1 0
BITMAP
0FFFC0
3FFFF0
7FFFF8
7986F8
F18638
F1FE3C
03FF00
078780
070380
0E01C0
0E01C0
1E01C0
1E01E0
3E01F0
7F03F8
7F87F8
7FFFF8
7FFFF8
ENDCHAR
STARTCHAR 2616
ENCODING 9750
SWIDTH 1000 0
DWIDTH 24 0
BBX 18 19 3 1
BITMAP
01E000
073800
0E1C00
380700
600180
600180
400080
400080
400080
400080
C000C0
C000C0
C000C0
C000C0
C000C0
800040
800040
FFFFC0
FFFFC0
ENDCHAR
STARTCHAR 2617
ENCODING 9751
SWIDTH 1000 0
DWIDTH 24 0
BBX 18 19 3 1
BITMAP
00C000
03F000
0FFC00
1FFE00
7FFF80
7FFF80
7FFF80
7FFF80
7FFF80
7FFF80
FFFFC0
FFFFC0
FFFFC0
FFFFC0
FFFFC0
FFFFC0
FFFFC0
FFFFC0
FFFFC0
ENDCHAR
STARTCHAR 261E
ENCODING 9758
SWIDTH 1000 0
DWIDTH 24 0
BBX 20 10 2 4
BITMAP
71E7E0
8E1810
180C10
10FBE0
1F3C80
103380
185900
146700
1B3400
F0FC00
ENDCHAR
STARTCHAR 2640
ENCODING 9792
SWIDTH 1000 0
DWIDTH 24 0
BBX 14 21 5 -1
BITMAP
0780
0FC0
18E0
3870
3030
3030
3030
3860
18E0
0FC0
0200
0200
0200
FFFC
FFFC
0200
0200
0200
0200
0200
0200
ENDCHAR
STARTCHAR 2642
ENCODING 9794
SWIDTH 1000 0
DWIDTH 24 0
BBX 20 19 2 0
BITMAP
001FF0
001FF0
000070
0000F0
0001D0
000310
000610
000C10
003810
1F7000
3FE000
71C000
C0E000
C06000
C06000
C06000
71C000
3F8000
1F0000
ENDCHAR
STARTCHAR 2660
ENCODING 9824
SWIDTH 500 0
DWIDTH 12 0
BBX 10 13 1 3
BITMAP
0C00
1E00
3F00
3F00
7F80
FFC0
FFC0
FFC0
FFC0
7F80
0C00
1E00
1E00
ENDCHAR
STARTCHAR 2661
ENCODING 9825
SWIDTH 500 0
DWIDTH 12 0
BBX 10 12 1 2
BITMAP
7380
CCC0
8C40
8040
8040
8040
4080
4080
2100
2100
1200
0C00
ENDCHAR
STARTCHAR 2662
ENCODING 9826
SWIDTH 500 0
DWIDTH 12 0
BBX 10 14 1 2
BITMAP
0C00
1E00
1200
2100
2100
4080
C0C0
C0C0
4080
2100
3300
1200
0C00
0C00
ENDCHAR
STARTCHAR 2663
ENCODING 9827
SWIDTH 500 0
DWIDTH 12 0
BBX 12 14 0 2
BITMAP
0F00
1F80
1F80
1F80
1F80
7FE0
FFF0
FFF0
FFF0
FFF0
76E0
0600
0F00
0F00
ENDCHAR
STARTCHAR 2664
ENCODING 9828
SWIDTH 500 0
DWIDTH 12 0
BBX 10 14 1 2
BITMAP
0800
0C00
1200
2100
4080
4080
8040
8040
8040
9640
7380
1200
1200
1E00
ENDCHAR
STARTCHAR 2665
ENCODING 9829
SWIDTH 500 0
DWIDTH 12 0
BBX 10 13 1 2
BITMAP
7380
FFC0
FFC0
FFC0
FFC0
FFC0
FF80
7F80
7F80
3F00
3E00
1E00
0C00
ENDCHAR
STARTCHAR 2666
ENCODING 9830
SWIDTH 500 0
DWIDTH 12 0
BBX 10 14 1 2
BITMAP
0C00
1E00
1E00
3F00
3F00
7F80
FFC0
FFC0
7F80
3F00
3F00
1E00
0C00
0C00
ENDCHAR
STARTCHAR 2667
ENCODING 9831
SWIDTH 500 0
DWIDTH 12 0
BBX 12 14 0 2
BITMAP
0F00
1980
1080
1080
1080
79E0
8010
8010
8010
8910
7AE0
0900
0900
0F00
ENDCHAR
STARTCHAR 2668
ENCODING 9832
SWIDTH 1000 0
DWIDTH 24 0
BBX 22 19 1 0
BITMAP
002000
006000
046300
0C6300
0C6300
0C6300
0C7300
063380
063980
031980
031980
3319B0
631998
C6110C
C0310C
E0201C
7C00F8
1FFFE0
03FF00
ENDCHAR
STARTCHAR 2669
ENCODING 9833
SWIDTH 500 0
DWIDTH 12 0
BBX 4 13 3 3
BITMAP
10
10
10
10
10
10
10
10
10
10
F0
F0
E0
ENDCHAR
STARTCHAR 266A
ENCODING 9834
SWIDTH 1000 0
DWIDTH 24 0
BBX 15 20 5 -1
BITMAP
0200
0300
0380
03C0
02F0
0238
021C
020E
0206
0206
0206
0206
020C
0208
0210
7A00
FE00
FE00
FC00
7800
ENDCHAR
STARTCHAR 266B
ENCODING 9835
SWIDTH 500 0
DWIDTH 12 0
BBX 10 14 1 2
BITMAP
00C0
0FC0
1FC0
1840
1040
1040
1040
1040
1040
1040
13C0
F3C0
F380
E000
ENDCHAR
STARTCHAR 266C
ENCODING 9836
SWIDTH 500 0
DWIDTH 12 0
BBX 10 14 1 2
BITMAP
00C0
0FC0
1E40
11C0
1FC0
1C40
1040
1040
1040
1040
13C0
F3C0
F380
E000
ENDCHAR
STARTCHAR 266D
ENCODING 9837
SWIDTH 1000 0
DWIDTH 24 0
BBX 9 20 8 -2
BITMAP
8000
8000
8000
8000
8000
8000
8000
8E00
BF00
E380
C180
8180
8180
8300
8300
8600
8C00
B800
F000
C000
ENDCHAR
STARTCHAR 266E
ENCODING 9838
SWIDTH 500 0
DWIDTH 12 0
BBX 4 14 4 2
BITMAP
80
80
80
B0
F0
90
90
90
B0
F0
D0
10
10
10
ENDCHAR
STARTCHAR 266F
ENCODING 9839
SWIDTH 1000 0
DWIDTH 24 0
BBX 14 20 5 -1
BITMAP
1020
1020
1020
1020
103C
1FFC
FF20
9020
1020
1020
1020
102C
17FC
FFE0
F020
1020
1020
1020
1020
1000
ENDCHAR
STARTCHAR 2713
ENCODING 10003
SWIDTH 1000 0
DWIDTH 24 0
BBX 16 16 5 2
BITMAP
0001
0002
0004
000C
0008
0010
0020
0060
40C0
C180
E300
6600
7C00
3C00
3800
1000
ENDCHAR
STARTCHAR 2756
ENCODING 10070
SWIDTH 1000 0
DWIDTH 24 0
BBX 20 20 2 -1
BITMAP
006000
00F000
01F800
03FC00
03FC00
01F800
18F180
3C63C0
7E07E0
FF0FF0
FF0FF0
7E07E0
3C63C0
18F180
01F800
03FC00
03FC00
01F800
00F000
006000
ENDCHAR
STARTCHAR 2776
ENCODING 10102
SWIDTH 1000 0
DWIDTH 24 0
BBX 22 24 1 -3
BITMAP
00FC00
03FF00
07FFC0
0FFFE0
1FCFF0
3F0FF0
7F0FF8
7FCFF8
FFCFFC
FFCFFC
FFCFFC
FFCFFC
FFCFFC
FFCFFC
FFCFFC
FFCFFC
7FCFF8
7FCFF8
3FCFF0
3FCFF0
1FFFE0
0FFFC0
03FF00
00FC00
ENDCHAR
STARTCHAR 2777
ENCODING 10103
SWIDTH 1000 0
DWIDTH 24 0
BBX 23 23 0 -2
BITMAP
007E00
03FF80
07FFE0
0FFFF0
1F83F8
3F3CF8
7E7E7C
7E7E7C
FE7E7E
FFFE7E
FFFCFE
FFF1FE
FFC3FE
FF8FFE
FF1FFE
7F3FFC
7E7FFC
3E0078
3C0078
1FFFF0
0FFFE0
03FF80
00FE00
ENDCHAR
STARTCHAR 2778
ENCODING 10104
SWIDTH 1000 0
DWIDTH 24 0
BBX 22 23 1 -2
BITMAP
00FC00
03FF00
07FFC0
1FFFE0
1F83F0
3E01F0
7E78F8
7CFCF8
FFFCFC
FFFCFC
FFF9FC
FF87FC
FFF8FC
FFFEFC
FFFE7C
7CFE78
7CFE78
3C78F0
3E00F0
1F83E0
0FFFC0
03FF00
00FC00
ENDCHAR
STARTCHAR 2779
ENCODING 10105
SWIDTH 1000 0
DWIDTH 24 0
BBX 23 24 1 -3
BITMAP
00FE00
03FF80
07FFC0
0FFFE0
1FF3F0
3FE3F8
7FC3FC
7F83FC
FF93FC
FF33FE
FE73FE
FE73FE
FCF3FE
F9F3FE
F8007E
F8007C
7FF3FC
7FF3FC
3FF3F8
1FF3F0
1FFFF0
0FFFC0
03FF80
00FE00
ENDCHAR
STARTCHAR 277A
ENCODING 10106
SWIDTH 1000 0
DWIDTH 24 0
BBX 23 23 1 -2
BITMAP
00FE00
03FF80
07FFE0
1FFFF0
3E00F8
3E00F8
7E7FFC
7E7FFC
FE7FFE
FE43FE
FE00FE
FE3CFE
FE7E7E
FFFE7E
FFFE7E
7FFE7C
7E7C7C
3E3CF8
3F01F8
1F83F0
0FFFE0
03FF80
00FE00
ENDCHAR
STARTCHAR 277B
ENCODING 10107
SWIDTH 1000 0
DWIDTH 24 0
BBX 22 22 1 -2
BITMAP
00FC00
07FF00
0FFFC0
1FC3E0
3F01F0
7E38F0
7E7CF8
FEFFF8
FCFFFC
FC87FC
FC01FC
FC79FC
FCFCFC
FCFCFC
7CFCF8
7EFCF8
3E79F0
3F01F0
1F87E0
0FFFC0
03FF00
00FC00
ENDCHAR
STARTCHAR 277C
ENCODING 10108
SWIDTH 1000 0
DWIDTH 24 0
BBX 23 22 0 -2
BITMAP
00FE00
03FF80
0FFFE0
1FFFF0
3E0078
7E0078
7FFE7C
7FFCFC
FFFCFE
FFF9FE
FFF9FE
FFF3FE
FFF3FE
FFE3FE
7FE7FC
7FE7FC
3FCFF8
3FCFF8
1FCFF0
0FFFE0
03FF80
00FE00
ENDCHAR
STARTCHAR 277D
ENCODING 10109
SWIDTH 1000 0
DWIDTH 24 0
BBX 22 22 1 -2
BITMAP
01FC00
07FF00
1FFFC0
1F87E0
3E01F0
7C78F0
7CFCF8
FCFCF8
FCFCFC
FE79FC
FF03FC
FE79FC
FCFCFC
F9FE7C
79FE78
79FE78
3C78F0
3C00F0
1F03E0
0FFFC0
03FF00
00FC00
ENDCHAR
STARTCHAR 277E
ENCODING 10110
SWIDTH 1000 0
DWIDTH 24 0
BBX 22 23 1 -2
BITMAP
00FC00
07FF00
0FFFC0
1F83E0
3F01F0
3E78F0
7CF8F8
7CFC78
FCFC7C
FCFC7C
FCF87C
FE787C
FF027C
FF847C
FFFC7C
7CFCF8
7E78F8
3E39F0
3F83F0
1FFFE0
0FFFC0
03FF00
00FC00
ENDCHAR
STARTCHAR 277F
ENCODING 10111
SWIDTH 1000 0
DWIDTH 24 0
BBX 23 23 0 -2
BITMAP
00FE00
03FF80
07FFE0
1FFFF0
1CFC78
30F3B8
70F39C
7CF7DC
FCE7CE
FCE7CE
FCE7CE
FCE7CE
FCE7CE
FCE7CE
FCE7CE
7CE7DC
7CF39C
3CF3B8
3CFC78
1FFFF0
0FFFE0
03FF80
00FE00
ENDCHAR
STARTCHAR 2934
ENCODING 10548
SWIDTH 500 0
DWIDTH 12 0
BBX 10 19 1 0
BITMAP
0200
0700
0F80
1AC0
3240
2200
0200
0200
0200
0200
0200
0200
0200
0200
0200
0600
0C00
FC00
F000
ENDCHAR
STARTCHAR 2935
ENCODING 10549
SWIDTH 500 0
DWIDTH 12 0
BBX 10 19 1 -1
BITMAP
F000
FC00
0C00
0600
0200
0200
0200
0200
0200
0200
0200
0200
0200
2240
3240
1AC0
0F80
0700
0200
ENDCHAR
STARTCHAR 29BF
ENCODING 10687
SWIDTH 1000 0
DWIDTH 24 0
BBX 20 20 2 -1
BITMAP
01F800
07FE00
1E0780
3801C0
3000C0
600060
607060
C0F830
C1FC30
C1FC30
C1FC30
C0F830
C07030
600060
600060
3000C0
3801C0
1E0780
07FE00
01F800
ENDCHAR
STARTCHAR 29FA
ENCODING 10746
SWIDTH 500 0
DWIDTH 12 0
BBX 10 14 1 2
BITMAP
3300
3300
3300
3300
3300
3300
FFC0
FFC0
3300
3300
3300
3300
3300
3300
ENDCHAR
STARTCHAR 29FB
ENCODING 10747
SWIDTH 500 0
DWIDTH 12 0
BBX 10 14 1 2
BITMAP
6D80
6D80
6D80
6D80
6D80
6D80
FFC0
FFC0
6D80
6D80
6D80
6D80
6D80
6D80
ENDCHAR
STARTCHAR 3000
ENCODING 12288
SWIDTH 1000 0
DWIDTH 24 0
BBX 0 0 0 0
BITMAP
ENDCHAR
STARTCHAR 3001
ENCODING 12289
SWIDTH 1000 0
DWIDTH 24 0
BBX 5 5 1 -1
BITMAP
E0
70
30
38
18
ENDCHAR
STARTCHAR 3002
ENCODING 12290
SWIDTH 1000 0
DWIDTH 24 0
BBX 7 7 1 -2
BITMAP
38
4C
C6
82
82
44
38
ENDCHAR
STARTCHAR 3003
ENCODING 12291
SWIDTH 1000 0
DWIDTH 24 0
BBX 11 10 6 4
BITMAP
0C60
18C0
18C0
18C0
3180
3180
2100
6300
6300
C600
ENDCHAR
STARTCHAR 3005
ENCODING 12293
SWIDTH 1000 0
DWIDTH 24 0
BBX 15 15 4 1
BITMAP
0200
0600
0600
0FFE
0FFE
1806
180C
3018
6018
E630
C3E0
01C0
00E0
0070
0030
ENDCHAR
STARTCHAR 3006
ENCODING 12294
SWIDTH 1000 0
DWIDTH 24 0
BBX 16 18 4 1
BITMAP
0001
0003
0006
000E
0E1C
1F38
13B0
31E0
20E0
61B0
6338
4318
4600
CC00
D800
D000
E000
C000
ENDCHAR
STARTCHAR 3007
ENCODING 12295
SWIDTH 1000 0
DWIDTH 24 0
BBX 20 20 2 -1
BITMAP
01F800
07FE00
1E0780
3801C0
3000C0
600060
600060
C00030
C00030
C00030
C00030
C00030
C00030
600060
600060
3000C0
180180
0E0700
07FE00
01F800
ENDCHAR
STARTCHAR 3008
ENCODING 12296
SWIDTH 1000 0
DWIDTH 24 0
BBX 9 22 13 -2
BITMAP
0180
0180
0300
0600
0C00
0C00
1800
3000
3000
6000
C000
C000
6000
3000
3000
1800
0C00
0C00
0600
0300
0180
0180
ENDCHAR
STARTCHAR 3009
ENCODING 12297
SWIDTH 1000 0
DWIDTH 24 0
BBX 9 22 2 -2
BITMAP
C000
C000
6000
3000
1800
1800
0C00
0600
0600
0300
0180
0180
0300
0600
0600
0C00
1800
1800
3000
6000
C000
C000
ENDCHAR
STARTCHAR 300A
ENCODING 12298
SWIDTH 1000 0
DWIDTH 24 0
BBX 10 22 13 -2
BITMAP
06C0
0480
0D80
0900
1B00
3200
3600
6400
4C00
C800
9800
9800
C800
4C00
6400
2600
3200
1B00
0900
0D80
0480
06C0
ENDCHAR
STARTCHAR 300B
ENCODING 12299
SWIDTH 1000 0
DWIDTH 24 0
BBX 10 22 1 -2
BITMAP
D800
4800
6C00
2400
3600
1200
1900
0980
0C80
04C0
0640
0640
04C0
0C80
0980
1900
1300
3600
2400
6C00
4800
D800
ENDCHAR
STARTCHAR 300C
ENCODING 12300
SWIDTH 1000 0
DWIDTH 24 0
BBX 6 18 16 2
BITMAP
FC
FC
80
80
80
80
80
80
80
80
80
80
80
80
80
80
80
80
ENDCHAR
STARTCHAR 300D
ENCODING 12301
SWIDTH 1000 0
DWIDTH 24 0
BBX 7 18 2 -2
BITMAP
02
02
02
02
02
02
02
02
02
02
02
02
02
02
02
02
FE
FE
ENDCHAR
STARTCHAR 300E
ENCODING 12302
SWIDTH 1000 0
DWIDTH 24 0
BBX 9 18 14 2
BITMAP
FF80
FF80
8080
9F80
9F80
9000
9000
9000
9000
9000
9000
9000
9000
9000
9000
9000
F000
F000
ENDCHAR
STARTCHAR 300F
ENCODING 12303
SWIDTH 1000 0
DWIDTH 24 0
BBX 9 18 1 -2
BITMAP
0780
0780
0480
0480
0480
0480
0480
0480
0480
0480
0480
0480
0480
FC80
FC80
8080
FF80
FF80
ENDCHAR
STARTCHAR 3010
ENCODING 12304
SWIDTH 1000 0
DWIDTH 24 0
BBX 5 22 17 -2
BITMAP
F8
F0
E0
E0
C0
C0
C0
80
80
80
80
80
80
80
80
C0
C0
C0
E0
E0
F0
F8
ENDCHAR
STARTCHAR 3011
ENCODING 12305
SWIDTH 1000 0
DWIDTH 24 0
BBX 5 22 2 -2
BITMAP
F8
78
38
38
18
18
18
08
08
08
08
08
08
08
08
18
18
18
38
38
78
F8
ENDCHAR
STARTCHAR 3012
ENCODING 12306
SWIDTH 1000 0
DWIDTH 24 0
BBX 16 20 4 -2
BITMAP
FFFF
FFFF
0000
0000
0000
0000
FFFF
FFFF
0180
0180
0180
0180
0180
0180
0180
0180
0180
0180
0180
0180
ENDCHAR
STARTCHAR 3013
ENCODING 12307
SWIDTH 1000 0
DWIDTH 24 0
BBX 16 10 4 4
BITMAP
FFFF
FFFF
FFFF
0000
0000
0000
0000
FFFF
FFFF
FFFF
ENDCHAR
STARTCHAR 3014
ENCODING 12308
SWIDTH 1000 0
DWIDTH 24 0
BBX 6 21 16 -2
BITMAP
04
1C
F0
80
80
80
80
80
80
80
80
80
80
80
80
80
80
80
C0
78
1C
ENDCHAR
STARTCHAR 3015
ENCODING 12309
SWIDTH 1000 0
DWIDTH 24 0
BBX 6 21 2 -2
BITMAP
80
E0
3C
04
04
04
04
04
04
04
04
04
04
04
04
04
04
04
0C
78
E0
ENDCHAR
STARTCHAR 3016
ENCODING 12310
SWIDTH 1000 0
DWIDTH 24 0
BBX 7 22 14 -2
BITMAP
FE
84
8C
88
90
90
90
A0
A0
A0
A0
A0
A0
A0
A0
90
90
90
88
8C
84
FE
ENDCHAR
STARTCHAR 3017
ENCODING 12311
SWIDTH 1000 0
DWIDTH 24 0
BBX 7 22 3 -2
BITMAP
FE
42
62
22
32
12
12
0A
0A
0A
0A
0A
0A
0A
0A
12
12
32
22
62
42
FE
ENDCHAR
STARTCHAR 3018
ENCODING 12312
SWIDTH 1000 0
DWIDTH 24 0
BBX 9 22 14 -1
BITMAP
0180
0F80
3880
C080
8180
8E00
8800
8800
8800
8800
8800
8800
8800
8800
8800
8800
8F00
8180
E080
3C80
0780
0080
ENDCHAR
STARTCHAR 3019
ENCODING 12313
SWIDTH 1000 0
DWIDTH 24 0
BBX 9 22 1 -1
BITMAP
C000
F800
8E00
8180
C080
3880
0880
0880
0880
0880
0880
0880
0880
0880
0880
0880
7880
C080
8380
9E00
F000
8000
ENDCHAR
STARTCHAR 301C
ENCODING 12316
SWIDTH 1000 0
DWIDTH 24 0
BBX 18 5 3 7
BITMAP
3E0000
7F8000
E1E0C0
807FC0
001F00
ENDCHAR
STARTCHAR 301D
ENCODING 12317
SWIDTH 1000 0
DWIDTH 24 0
BBX 7 10 16 11
BITMAP
40
E0
30
1C
06
E0
70
38
0C
04
ENDCHAR
STARTCHAR 301F
ENCODING 12319
SWIDTH 1000 0
DWIDTH 24 0
BBX 7 10 1 -1
BITMAP
C0
70
38
0E
04
E0
30
1C
0E
04
ENDCHAR
STARTCHAR 3020
ENCODING 12320
SWIDTH 1000 0
DWIDTH 24 0
BBX 22 15 1 1
BITMAP
3FFFF0
3FFFF0
000000
3FFFF0
3FFFF0
003000
8E31C4
8A3144
8A3144
C6318C
223110
210210
118620
087840
060380
ENDCHAR
STARTCHAR 3033
ENCODING 12339
SWIDTH 1000 0
DWIDTH 24 0
BBX 11 21 5 -2
BITMAP
0060
00E0
00C0
00C0
01C0
0180
0380
0300
0300
0700
0600
0E00
0C00
1C00
1800
3800
3000
7000
6000
6000
C000
ENDCHAR
STARTCHAR 3034
ENCODING 12340
SWIDTH 1000 0
DWIDTH 24 0
BBX 15 21 5 -2
BITMAP
0060
00E0
00C0
00C0
01C0
0180
0380
0300
0308
070C
0626
0E32
0C38
1C10
1800
3800
3000
7000
6000
6000
C000
ENDCHAR
STARTCHAR 3035
ENCODING 12341
SWIDTH 1000 0
DWIDTH 24 0
BBX 12 22 5 -2
BITMAP
C000
6000
6000
7000
3000
1800
1800
0C00
0C00
0600
0600
0300
0300
0380
0180
01C0
00C0
00E0
0060
0070
0070
0020
ENDCHAR
STARTCHAR 303B
ENCODING 12347
SWIDTH 1000 0
DWIDTH 24 0
BBX 8 16 8 0
BITMAP
40
60
70
1C
0E
3E
60
60
60
30
38
1C
0F
3F
F0
C0
ENDCHAR
STARTCHAR 303C
ENCODING 12348
SWIDTH 1000 0
DWIDTH 24 0
BBX 20 20 2 -1
BITMAP
FFFFF0
FFFFF0
800070
8000F0
800190
800310
800610
800C10
803810
807010
80E010
81C010
830010
860010
8C0010
980010
F00010
E00010
FFFFF0
FFFFF0
ENDCHAR
STARTCHAR 303D
ENCODING 12349
SWIDTH 1000 0
DWIDTH 24 0
BBX 19 21 3 -2
BITMAP
700000
F9C000
1BE000
0F3000
0E3000
003000
001800
001800
001800
000C00
000C00
000C00
000600
000600
000600
000300
000300
000180
0001C0
0000E0
000040
ENDCHAR
STARTCHAR 3041
ENCODING 12353
SWIDTH 1000 0
DWIDTH 24 0
BBX 16 16 4 0
BITMAP
0600
0600
07F0
7FC0
0440
0460
07FC
0CCE
3CC3
6583
6703
C703
CE06
FE1E
74F8
0040
ENDCHAR
STARTCHAR 3042
ENCODING 12354
SWIDTH 1000 0
DWIDTH 24 0
BBX 18 20 3 -1
BITMAP
020000
060000
060C00
7FFC00
7FC000
060000
061800
067800
07FF00
0E2380
1E6180
36C0C0
66C0C0
4780C0
8700C0
8601C0
8E0380
FE0F00
703E00
003000
ENDCHAR
STARTCHAR 3043
ENCODING 12355
SWIDTH 1000 0
DWIDTH 24 0
BBX 15 13 5 1
BITMAP
8000
8060
8030
C018
C018
C00C
C00C
C006
4604
6600
6600
3C00
1800
ENDCHAR
STARTCHAR 3044
ENCODING 12356
SWIDTH 1000 0
DWIDTH 24 0
BBX 18 16 3 0
BITMAP
C00000
C00400
C00E00
C00600
C00300
C00300
C00180
C001C0
C000C0
6000C0
618040
618000
318000
330000
1F0000
0E0000
ENDCHAR
STARTCHAR 3045
ENCODING 12357
SWIDTH 1000 0
DWIDTH 24 0
BBX 11 16 6 -1
BITMAP
1E00
0780
0180
0000
0F80
7FC0
F0E0
0060
0060
0060
0060
00C0
01C0
0380
0F00
1C00
ENDCHAR
STARTCHAR 3046
ENCODING 12358
SWIDTH 1000 0
DWIDTH 24 0
BBX 14 20 4 -1
BITMAP
0E00
07C0
01F0
0020
0000
03F0
1FF8
FC1C
700C
000C
000C
000C
000C
001C
0018
0038
0070
00E0
07C0
0700
ENDCHAR
STARTCHAR 3047
ENCODING 12359
SWIDTH 1000 0
DWIDTH 24 0
BBX 14 15 5 0
BITMAP
0E00
0780
0180
0000
03C0
3FC0
2180
0300
0600
0780
0F80
1C80
30C0
60FC
C07C
ENDCHAR
STARTCHAR 3048
ENCODING 12360
SWIDTH 1000 0
DWIDTH 24 0
BBX 18 19 3 0
BITMAP
060000
07C000
00F000
002000
000000
001000
3FF800
1F3000
006000
00C000
018000
038000
03E000
07F000
0E3000
1C3000
383000
603FC0
C01FC0
ENDCHAR
STARTCHAR 3049
ENCODING 12361
SWIDTH 1000 0
DWIDTH 24 0
BBX 17 15 4 -1
BITMAP
060000
060800
061C00
7FC600
7F0380
060100
060000
07F800
0FFE00
3E0700
660300
C60300
E60700
7E1E00
3E7800
ENDCHAR
STARTCHAR 304A
ENCODING 12362
SWIDTH 1000 0
DWIDTH 24 0
BBX 19 18 3 -1
BITMAP
060000
060000
060600
066380
7FE1C0
7E00E0
060040
060000
06FE00
07FF80
1E0380
3E00C0
6600C0
C600C0
C601C0
C60380
661F00
1E7C00
ENDCHAR
STARTCHAR 304B
ENCODING 12363
SWIDTH 1000 0
DWIDTH 24 0
BBX 19 19 3 -1
BITMAP
020000
030000
030000
060200
060600
07C300
FFE180
EC71C0
0C30C0
0C3060
183060
183020
103000
303000
303000
602000
646000
C7E000
C3C000
ENDCHAR
STARTCHAR 304C
ENCODING 12364
SWIDTH 1000 0
DWIDTH 24 0
BBX 20 20 3 0
BITMAP
000040
020060
0303B0
030180
0604C0
060E00
07C700
FFE300
EC7180
0C31C0
0C30C0
183060
183040
103000
303000
303000
602000
646000
C7E000
C3C000
ENDCHAR
STARTCHAR 304D
ENCODING 12365
SWIDTH 1000 0
DWIDTH 24 0
BBX 16 20 4 0
BITMAP
0600
0608
0338
0FF0
7F80
0183
00DF
03F8
FFE0
C030
0030
0018
00FC
203C
3000
3000
3800
1E00
0FF8
03F8
ENDCHAR
STARTCHAR 304E
ENCODING 12366
SWIDTH 1000 0
DWIDTH 24 0
BBX 19 21 4 0
BITMAP
000080
0602C0
060B60
033980
0FF080
7F8000
018300
00DF00
03F800
FFE000
C03000
003000
001800
00FC00
203C00
300000
300000
380000
1E0000
0FF800
03F800
ENDCHAR
STARTCHAR 304F
ENCODING 12367
SWIDTH 1000 0
DWIDTH 24 0
BBX 11 20 6 -1
BITMAP
0080
01C0
0380
0300
0600
0C00
1800
3000
6000
C000
E000
7000
3800
1C00
0E00
0700
0380
01C0
00E0
0040
ENDCHAR
STARTCHAR 3050
ENCODING 12368
SWIDTH 1000 0
DWIDTH 24 0
BBX 16 20 6 -1
BITMAP
0080
01C0
038C
0316
0633
0C18
1808
3000
6000
C000
E000
7000
3800
1C00
0E00
0700
0380
01C0
00E0
0040
ENDCHAR
STARTCHAR 3051
ENCODING 12369
SWIDTH 1000 0
DWIDTH 24 0
BBX 18 19 3 -2
BITMAP
300600
600600
600600
600600
600640
C3FFC0
C3FF00
C00600
C00600
C00600
C00600
C80600
D80600
F00E00
700C00
601C00
603800
20F000
006000
ENDCHAR
STARTCHAR 3052
ENCODING 12370
SWIDTH 1000 0
DWIDTH 24 0
BBX 20 21 3 -2
BITMAP
000020
0001B0
300690
6006D0
600600
600600
600640
C3FFC0
C3FF00
C00600
C00600
C00600
C00600
C80600
D80600
F00C00
700C00
601C00
603800
20F000
006000
ENDCHAR
STARTCHAR 3053
ENCODING 12371
SWIDTH 1000 0
DWIDTH 24 0
BBX 16 17 4 0
BITMAP
3FFC
3FFC
0070
01C0
0180
0000
0000
0000
0000
7000
6000
C000
C000
C000
7000
3FFF
0FFE
ENDCHAR
STARTCHAR 3054
ENCODING 12372
SWIDTH 1000 0
DWIDTH 24 0
BBX 19 19 4 1
BITMAP
000080
0002C0
3FFB60
3FFDA0
007100
01C000
018000
000000
000000
000000
000000
700000
600000
C00000
C00000
C00000
700000
3FFF00
0FFE00
ENDCHAR
STARTCHAR 3055
ENCODING 12373
SWIDTH 1000 0
DWIDTH 24 0
BBX 16 19 3 0
BITMAP
0100
0180
0181
00C7
00FE
FFF0
7E30
0030
0018
0018
004C
007E
201F
3006
3000
1800
1E00
0FF8
01F8
ENDCHAR
STARTCHAR 3056
ENCODING 12374
SWIDTH 1000 0
DWIDTH 24 0
BBX 20 20 3 0
BITMAP
000060
0101B0
0180D0
0180C0
00C700
00FE00
FFF000
7E3000
003000
001800
001800
004C00
007E00
201F00
300600
300000
180000
1E0000
0FF800
01F800
ENDCHAR
STARTCHAR 3057
ENCODING 12375
SWIDTH 1000 0
DWIDTH 24 0
BBX 14 19 7 -1
BITMAP
C000
C000
C000
C000
C000
C000
C000
C000
C000
C000
C000
C000
C008
C01C
C018
C030
60F0
7FC0
1F00
ENDCHAR
STARTCHAR 3058
ENCODING 12376
SWIDTH 1000 0
DWIDTH 24 0
BBX 14 19 7 0
BITMAP
C010
C018
C0CC
C060
C030
C020
C000
C000
C000
C000
C000
C000
C008
C01C
C018
C030
60F0
7FC0
1F00
ENDCHAR
STARTCHAR 3059
ENCODING 12377
SWIDTH 1000 0
DWIDTH 24 0
BBX 20 20 2 -2
BITMAP
003000
003000
003000
0031F0
FFFFF0
003000
003000
03F000
07F000
063000
043800
043800
063800
03F800
01F800
003000
007000
00E000
03C000
070000
ENDCHAR
STARTCHAR 305A
ENCODING 12378
SWIDTH 1000 0
DWIDTH 24 0
BBX 21 21 2 -1
BITMAP
000060
003330
003198
0030D0
0031F0
FFFFF0
003000
003000
03F000
07F000
063000
043800
043800
063800
03F800
01F800
003000
007000
00E000
03C000
070000
ENDCHAR
STARTCHAR 305B
ENCODING 12379
SWIDTH 1000 0
DWIDTH 24 0
BBX 21 18 1 0
BITMAP
000300
060300
060300
060300
060300
06FFF8
FFFFF8
060300
060300
060300
060300
061F00
061F00
060000
060000
070000
03FFE0
01FFE0
ENDCHAR
STARTCHAR 305C
ENCODING 12380
SWIDTH 1000 0
DWIDTH 24 0
BBX 22 19 1 0
BITMAP
000008
00030C
06036C
060334
060330
060300
06FFF8
FFFFF8
060300
060300
060300
060300
061F00
061F00
060000
060000
070000
03FFE0
01FFE0
ENDCHAR
STARTCHAR 305D
ENCODING 12381
SWIDTH 1000 0
DWIDTH 24 0
BBX 18 19 3 0
BITMAP
00FC00
1FFC00
181800
007000
00E000
018000
031FC0
1FFF00
FE7000
80C000
018000
030000
030000
030000
030000
038000
01E000
00FE00
001E00
ENDCHAR
STARTCHAR 305E
ENCODING 12382
SWIDTH 1000 0
DWIDTH 24 0
BBX 20 19 3 0
BITMAP
00FC40
1FFD60
1819B0
0070C0
00E080
018000
031FC0
1FFF00
FE7000
80C000
018000
030000
030000
030000
030000
038000
01E000
00FE00
001E00
ENDCHAR
STARTCHAR 305F
ENCODING 12383
SWIDTH 1000 0
DWIDTH 24 0
BBX 19 19 2 0
BITMAP
030000
030000
030000
033000
FFF000
FF0000
060000
0603C0
0C7FC0
0C7800
0C0000
180000
180000
184000
30C000
30C000
607000
603FE0
C01FE0
ENDCHAR
STARTCHAR 3060
ENCODING 12384
SWIDTH 1000 0
DWIDTH 24 0
BBX 20 19 2 0
BITMAP
0300C0
030060
030330
0331A0
FFF180
FF0000
060000
0603C0
0C7FC0
0C7800
0C0000
180000
180000
184000
30C000
30C000
607000
603FE0
C01FE0
ENDCHAR
STARTCHAR 3061
ENCODING 12385
SWIDTH 1000 0
DWIDTH 24 0
BBX 17 20 3 0
BITMAP
020000
060000
060000
063C00
FFFC00
0C0000
0C0000
0C0000
0C0000
187E00
1BFF00
1F0380
3C0180
100180
000180
000380
000700
003E00
03F800
020000
ENDCHAR
STARTCHAR 3062
ENCODING 12386
SWIDTH 1000 0
DWIDTH 24 0
BBX 20 20 3 0
BITMAP
020060
060160
0601B0
063C80
FFFCC0
0C0000
0C0000
0C0000
0C0000
187E00
1BFF00
1F0380
3C0180
100180
000180
000380
000700
003E00
03F800
020000
ENDCHAR
STARTCHAR 3063
ENCODING 12387
SWIDTH 1000 0
DWIDTH 24 0
BBX 15 11 4 0
BITMAP
07F0
FFFC
700C
0006
0006
0006
0006
000C
003C
07F0
07C0
ENDCHAR
STARTCHAR 3064
ENCODING 12388
SWIDTH 1000 0
DWIDTH 24 0
BBX 18 14 3 1
BITMAP
03FC00
FFFF00
FC0380
0001C0
0000C0
0000C0
0000C0
0000C0
000180
000380
000700
003E00
07F800
078000
ENDCHAR
STARTCHAR 3065
ENCODING 12389
SWIDTH 1000 0
DWIDTH 24 0
BBX 20 19 3 2
BITMAP
0000C0
000260
000330
000180
000080
03FC00
FFFF00
FC0380
0001C0
0000C0
0000C0
0000C0
0000C0
000180
000380
000700
003E00
07F800
078000
ENDCHAR
STARTCHAR 3066
ENCODING 12390
SWIDTH 1000 0
DWIDTH 24 0
BBX 19 17 2 0
BITMAP
000FE0
1FFFE0
FF1C00
403800
006000
00C000
00C000
018000
018000
018000
018000
018000
01C000
00C000
00F000
003F00
001F00
ENDCHAR
STARTCHAR 3067
ENCODING 12391
SWIDTH 1000 0
DWIDTH 24 0
BBX 20 17 2 0
BITMAP
000FE0
1FFFE0
FF1C00
403840
006060
00C330
00C3A0
018180
018080
018000
018000
018000
01C000
00C000
00F000
003F00
001F00
ENDCHAR
STARTCHAR 3068
ENCODING 12392
SWIDTH 1000 0
DWIDTH 24 0
BBX 15 19 4 0
BITMAP
0800
0C00
0C00
0C00
0400
0600
061E
03FC
03C0
0F00
1800
7000
6000
C000
C000
C000
F000
7FFE
0FFE
ENDCHAR
STARTCHAR 3069
ENCODING 12393
SWIDTH 1000 0
DWIDTH 24 0
BBX 18 19 4 1
BITMAP
080180
0C04C0
0C06C0
0C0300
040200
060000
061E00
03FC00
03C000
0F0000
180000
700000
600000
C00000
C00000
C00000
F00000
7FFE00
0FFE00
ENDCHAR
STARTCHAR 306A
ENCODING 12394
SWIDTH 1000 0
DWIDTH 24 0
BBX 20 20 2 0
BITMAP
030000
030000
030000
032100
7FE380
7E00C0
060070
0C0430
0C0600
180600
180600
300600
300600
607E00
E1FF00
0387C0
0306F0
038630
01FC00
00F800
ENDCHAR
STARTCHAR 306B
ENCODING 12395
SWIDTH 1000 0
DWIDTH 24 0
BBX 18 18 3 -1
BITMAP
300000
200000
607F80
60FF80
608000
E00000
C00000
C00000
C00000
C00000
C00000
C98000
D98000
F18000
F1C000
E0FFC0
603FC0
600000
ENDCHAR
STARTCHAR 306C
ENCODING 12396
SWIDTH 1000 0
DWIDTH 24 0
BBX 21 19 2 0
BITMAP
003000
003000
203000
603000
20FE00
33E780
3E61C0
1860C0
384060
68C060
6CC060
C58060
C78060
C31F60
C73FE0
CF20E0
7C31F8
703F90
001E00
ENDCHAR
STARTCHAR 306D
ENCODING 12397
SWIDTH 1000 0
DWIDTH 24 0
BBX 21 20 2 -1
BITMAP
060000
060000
060000
060000
060F80
FF3FC0
6670E0
07C060
078030
070030
0E0030
1E0030
3E0030
360F30
663FE0
463070
0630D8
061F88
060F00
060000
ENDCHAR
STARTCHAR 306E
ENCODING 12398
SWIDTH 1000 0
DWIDTH 24 0
BBX 20 17 2 0
BITMAP
01FC00
07EF00
1C61C0
3860E0
306060
606030
604030
C0C030
C0C030
C0C030
C18030
C18060
6300E0
6701C0
3E0780
1C3F00
001800
ENDCHAR
STARTCHAR 306F
ENCODING 12399
SWIDTH 1000 0
DWIDTH 24 0
BBX 20 18 3 0
BITMAP
300400
300600
600600
600600
61FFC0
61FF80
C00600
C00600
C00600
C00600
C00600
C80600
D8FE00
D3FF80
F307E0
630670
63FC20
60FC00
ENDCHAR
STARTCHAR 3070
ENCODING 12400
SWIDTH 1000 0
DWIDTH 24 0
BBX 20 20 3 0
BITMAP
000040
000160
6009B0
600C80
600C80
600C40
C3FFC0
C3FF00
C00C00
C00C00
C00C00
C00C00
C00C00
D00C00
F1FC00
E7FF00
E60FC0
C60CE0
C7F840
C1F000
ENDCHAR
STARTCHAR 3071
ENCODING 12401
SWIDTH 1000 0
DWIDTH 24 0
BBX 20 20 3 -1
BITMAP
0000E0
000110
600910
600D10
600CE0
600C40
C3FFC0
C3FF00
C00C00
C00C00
C00C00
C00C00
C00C00
D00C00
F1FC00
E7FF00
E60FC0
C60CE0
C7F840
C1F000
ENDCHAR
STARTCHAR 3072
ENCODING 12402
SWIDTH 1000 0
DWIDTH 24 0
BBX 20 18 2 -1
BITMAP
008000
078600
3F8700
F30700
860780
0C06C0
1C06E0
180660
180630
300630
300600
300600
300E00
300C00
181C00
1C3800
0FF000
03E000
ENDCHAR
STARTCHAR 3073
ENCODING 12403
SWIDTH 1000 0
DWIDTH 24 0
BBX 21 20 2 0
BITMAP
000030
000090
0080D8
078660
3F8740
F30700
860780
0C06C0
1C06E0
180660
180630
300630
300600
300600
300E00
300C00
181C00
1C3800
0FF000
03E000
ENDCHAR
STARTCHAR 3074
ENCODING 12404
SWIDTH 1000 0
DWIDTH 24 0
BBX 21 20 2 -1
BITMAP
000070
000088
008088
078688
3F8770
F30700
860780
0C06C0
1C06E0
180660
180630
300630
300600
300600
300E00
300C00
181C00
1C3800
0FF000
03E000
ENDCHAR
STARTCHAR 3075
ENCODING 12405
SWIDTH 1000 0
DWIDTH 24 0
BBX 21 19 1 0
BITMAP
008000
01E000
007800
001C00
000000
000000
004000
006000
006080
0021C0
1C30C0
181860
180C70
300630
700618
620618
C30E00
43FC00
00F800
ENDCHAR
STARTCHAR 3076
ENCODING 12406
SWIDTH 1000 0
DWIDTH 24 0
BBX 22 19 1 1
BITMAP
008030
01E098
0078CC
001C60
000040
000000
004000
006000
006080
0021C0
1C30C0
181860
180C70
300630
700618
620618
C30E00
43FC00
00F800
ENDCHAR
STARTCHAR 3077
ENCODING 12407
SWIDTH 1000 0
DWIDTH 24 0
BBX 21 19 1 0
BITMAP
0080F0
01E198
007908
001D08
000198
0000F0
004000
006000
006080
0021C0
1C30C0
181860
180C70
300630
700618
620618
C30E00
43FC00
00F800
ENDCHAR
STARTCHAR 3078
ENCODING 12408
SWIDTH 1000 0
DWIDTH 24 0
BBX 20 11 2 3
BITMAP
018000
03C000
06E000
0C7000
183800
301C00
600600
E00380
8001C0
0000F0
000030
ENDCHAR
STARTCHAR 3079
ENCODING 12409
SWIDTH 1000 0
DWIDTH 24 0
BBX 20 13 2 4
BITMAP
000180
0000C0
018660
03C340
06E100
0C7000
183800
301C00
600600
E00380
8001C0
0000F0
000030
ENDCHAR
STARTCHAR 307A
ENCODING 12410
SWIDTH 1000 0
DWIDTH 24 0
BBX 20 13 2 3
BITMAP
0001C0
000220
018220
03C220
06E1C0
0C7000
183800
301C00
600600
E00380
8001C0
0000F0
000030
ENDCHAR
STARTCHAR 307B
ENCODING 12411
SWIDTH 1000 0
DWIDTH 24 0
BBX 19 18 3 0
BITMAP
30FFC0
61FFC0
600400
600400
600400
600460
C3FFE0
C1FE00
C00600
C00600
C00600
D80600
D0FE00
F3FF00
F307C0
630660
63FE20
60FC00
ENDCHAR
STARTCHAR 307C
ENCODING 12412
SWIDTH 1000 0
DWIDTH 24 0
BBX 21 20 2 0
BITMAP
000030
0000D0
30FF58
61FF60
600400
600400
600400
600460
C3FFE0
C1FE00
C00600
C00600
C00600
D80600
D0FE00
F3FF00
F307C0
630660
63FE20
60FC00
ENDCHAR
STARTCHAR 307D
ENCODING 12413
SWIDTH 1000 0
DWIDTH 24 0
BBX 21 20 2 -1
BITMAP
000070
000088
31FE88
61FF88
600470
600400
600400
600460
C3FFE0
C1FE00
C00600
C00600
C00600
D80600
D0FE00
F3FF00
F307C0
630660
63FE20
60FC00
ENDCHAR
STARTCHAR 307E
ENCODING 12414
SWIDTH 1000 0
DWIDTH 24 0
BBX 16 19 4 0
BITMAP
0080
0080
0080
FEFF
FFFE
00C0
00C0
00C2
7FFE
7FE0
00C0
00C0
00C0
3FC0
7FF0
C0FC
E0CE
7F87
3F00
ENDCHAR
STARTCHAR 307F
ENCODING 12415
SWIDTH 1000 0
DWIDTH 24 0
BBX 20 18 2 0
BITMAP
1FF000
1FA000
006000
006000
006080
00C180
00C180
0FF980
3FBF80
7187C0
E301E0
C30370
C60310
CC0600
780E00
701C00
003800
001000
ENDCHAR
STARTCHAR 3080
ENCODING 12416
SWIDTH 1000 0
DWIDTH 24 0
BBX 20 19 2 0
BITMAP
060000
060000
060000
F7E100
FFE380
0400C0
040060
040070
3C0030
640000
C60000
C60300
C60180
CC0180
FC0180
7C0180
0C0380
0FFF00
07FE00
ENDCHAR
STARTCHAR 3081
ENCODING 12417
SWIDTH 1000 0
DWIDTH 24 0
BBX 20 19 2 -1
BITMAP
001000
001800
001800
101000
18FE00
1BFF80
1E31C0
1C6060
3C6070
7C4030
66C030
C6C030
C38030
C30070
C38060
C780E0
7C03C0
781F00
003C00
ENDCHAR
STARTCHAR 3082
ENCODING 12418
SWIDTH 1000 0
DWIDTH 24 0
BBX 17 20 3 -1
BITMAP
030000
030000
030000
030000
623800
FFF800
060000
060000
060000
060000
7FF000
1F8180
0C0180
0C0180
0C0180
0C0180
0E0380
070700
07FE00
01FC00
ENDCHAR
STARTCHAR 3083
ENCODING 12419
SWIDTH 1000 0
DWIDTH 24 0
BBX 16 16 4 -1
BITMAP
0380
11C0
30C0
187C
1BFE
0F87
7C03
EC03
060E
067C
0240
0300
0300
0100
0180
0180
ENDCHAR
STARTCHAR 3084
ENCODING 12420
SWIDTH 1000 0
DWIDTH 24 0
BBX 20 20 2 -1
BITMAP
00C000
007000
183800
181800
0C0F80
0C7FC0
07F060
0F0030
7E0030
E30030
030060
0107E0
019F80
018000
00C000
00C000
00C000
006000
006000
006000
ENDCHAR
STARTCHAR 3085
ENCODING 12421
SWIDTH 1000 0
DWIDTH 24 0
BBX 14 16 5 -2
BITMAP
0080
C080
C080
C7F0
8CD8
98CC
A0CC
E0CC
C0CC
8CCC
8E98
83F8
81E0
0300
0700
0600
ENDCHAR
STARTCHAR 3086
ENCODING 12422
SWIDTH 1000 0
DWIDTH 24 0
BBX 18 20 3 -2
BITMAP
003000
003000
603000
C03800
C1FF00
C33380
CE3180
CC30C0
D830C0
F030C0
E030C0
E230C0
C33180
C1F780
C0FE00
C06000
006000
00C000
01C000
018000
ENDCHAR
STARTCHAR 3087
ENCODING 12423
SWIDTH 1000 0
DWIDTH 24 0
BBX 13 15 5 0
BITMAP
0300
0300
0300
0318
03F8
0380
0300
0300
0300
3F00
7F80
C3E0
C338
FF08
3E00
ENDCHAR
STARTCHAR 3088
ENCODING 12424
SWIDTH 1000 0
DWIDTH 24 0
BBX 17 19 3 -1
BITMAP
00C000
00C000
00C000
00C000
00C300
00FF00
00F800
00C000
00C000
00C000
00C000
00C000
1FC000
7FF000
E0FC00
C0CF00
C0C380
61C000
3F8000
ENDCHAR
STARTCHAR 3089
ENCODING 12425
SWIDTH 1000 0
DWIDTH 24 0
BBX 15 20 5 0
BITMAP
1C00
0F00
03C0
0080
6000
6000
6000
6000
6000
41F0
CFFC
DE0E
F806
E006
4006
000E
001C
0078
0FE0
0700
ENDCHAR
STARTCHAR 308A
ENCODING 12426
SWIDTH 1000 0
DWIDTH 24 0
BBX 13 19 5 -2
BITMAP
4018
6018
C018
C018
C018
C018
C018
C018
CC18
CC18
D818
7018
6038
0030
0030
0060
01E0
03C0
0700
ENDCHAR
STARTCHAR 308B
ENCODING 12427
SWIDTH 1000 0
DWIDTH 24 0
BBX 16 19 4 -1
BITMAP
00F0
3FF0
3870
00E0
01C0
0380
0700
0EF0
1FFC
3E0E
7007
E003
C003
0F03
1FC7
18C6
187C
1FF8
07E0
ENDCHAR
STARTCHAR 308C
ENCODING 12428
SWIDTH 1000 0
DWIDTH 24 0
BBX 20 20 3 -1
BITMAP
0C0000
0C0000
0C0000
0C0000
3E1E00
FE7F00
CCE300
0D8300
0F0300
0E0300
1C0600
3C0600
3C0600
6C0600
CC0610
CC0630
0C0660
0C07C0
0C0380
0C0000
ENDCHAR
STARTCHAR 308D
ENCODING 12429
SWIDTH 1000 0
DWIDTH 24 0
BBX 17 19 4 -1
BITMAP
007000
7FF800
3C7000
00E000
00C000
018000
030000
06FC00
0FFE00
1F0700
3C0380
700180
E00180
000180
000300
000700
003E00
0FF800
070000
ENDCHAR
STARTCHAR 308E
ENCODING 12430
SWIDTH 1000 0
DWIDTH 24 0
BBX 16 16 4 -1
BITMAP
0C00
0C00
0C00
3C00
7CF8
0D86
0E07
0C03
1C03
3C03
6C03
CC06
0C0E
0C7C
0C70
0C00
ENDCHAR
STARTCHAR 308F
ENCODING 12431
SWIDTH 1000 0
DWIDTH 24 0
BBX 20 20 2 -1
BITMAP
060000
060000
060000
060000
060000
FF1F00
667FC0
06E0E0
078060
070030
0E0030
1E0030
3E0030
760070
E60060
C600E0
0603C0
063F00
061C00
060000
ENDCHAR
STARTCHAR 3090
ENCODING 12432
SWIDTH 1000 0
DWIDTH 24 0
BBX 19 19 3 -1
BITMAP
00E000
1FF000
1C6000
006000
006000
007C00
03FF00
0EC780
1981C0
3180E0
610060
630060
C20060
C67860
CCFCE0
CCC6C0
F8C3C0
707F80
003E00
ENDCHAR
STARTCHAR 3091
ENCODING 12433
SWIDTH 1000 0
DWIDTH 24 0
BBX 20 19 2 -2
BITMAP
003C00
0FFC00
0C3800
006000
01FE00
03FF00
078380
1C0180
79E180
263180
063300
07E600
03F800
060000
0C0F00
3F9FC0
7FF8E0
F0F070
C06030
ENDCHAR
STARTCHAR 3092
ENCODING 12434
SWIDTH 1000 0
DWIDTH 24 0
BBX 18 20 3 0
BITMAP
018000
030000
030800
7FF800
7F8000
060000
0C0000
0BC000
1FE180
3C67C0
383E00
70F000
E1F000
433000
063000
0C0000
0C0000
0E0000
07FF00
01FF80
ENDCHAR
STARTCHAR 3093
ENCODING 12435
SWIDTH 1000 0
DWIDTH 24 0
BBX 19 20 3 -1
BITMAP
008000
00C000
01C000
018000
038000
030000
060000
060000
0C0000
0DC000
1BE000
1E6000
3C2000
382040
703060
6030C0
6030C0
C03180
C03F00
001E00
ENDCHAR
STARTCHAR 3094
ENCODING 12436
SWIDTH 1000 0
DWIDTH 24 0
BBX 19 20 4 -1
BITMAP
0E0180
07C2C0
01F360
002300
000100
03F000
1FF800
FC1C00
700C00
000C00
000C00
000C00
000C00
001C00
001800
003800
007000
00E000
07C000
070000
ENDCHAR
STARTCHAR 3095
ENCODING 12437
SWIDTH 1000 0
DWIDTH 24 0
BBX 16 15 4 1
BITMAP
0600
0400
0C10
0C18
FF8C
EB86
18C6
18C3
10C3
30C0
30C0
60C0
6980
CF80
0700
ENDCHAR
STARTCHAR 3096
ENCODING 12438
SWIDTH 1000 0
DWIDTH 24 0
BBX 15 16 5 -1
BITMAP
6030
6030
6030
4030
C03E
C7FC
C030
C030
C030
D030
F030
E070
E060
60E0
41C0
0180
ENDCHAR
STARTCHAR 3099
ENCODING 12441
SWIDTH 1000 0
DWIDTH 24 0
BBX 6 6 16 14
BITMAP
10
18
CC
64
30
20
ENDCHAR
STARTCHAR 309A
ENCODING 12442
SWIDTH 1000 0
DWIDTH 24 0
BBX 5 5 17 15
BITMAP
70
88
88
88
70
ENDCHAR
STARTCHAR 309B
ENCODING 12443
SWIDTH 1000 0
DWIDTH 24 0
BBX 6 5 1 14
BITMAP
10
38
DC
C8
60
ENDCHAR
STARTCHAR 309C
ENCODING 12444
SWIDTH 1000 0
DWIDTH 24 0
BBX 5 5 1 15
BITMAP
70
88
88
88
70
ENDCHAR
STARTCHAR 309D
ENCODING 12445
SWIDTH 1000 0
DWIDTH 24 0
BBX 10 12 7 3
BITMAP
C000
E000
3800
1C00
0600
0380
01C0
00C0
00C0
0380
0F00
3C00
ENDCHAR
STARTCHAR 309E
ENCODING 12446
SWIDTH 1000 0
DWIDTH 24 0
BBX 12 15 7 2
BITMAP
0040
00E0
0130
C380
E1C0
3880
1C00
0600
0380
01C0
00C0
00C0
0380
0F00
3C00
ENDCHAR
STARTCHAR 309F
ENCODING 12447
SWIDTH 1000 0
DWIDTH 24 0
BBX 13 22 6 -2
BITMAP
0400
0600
0400
0C00
0FF8
0FF8
1800
1800
1000
37C0
2FE0
7860
6030
C030
0030
0030
0030
4060
60E0
71C0
3F80
1F00
ENDCHAR
STARTCHAR 30A0
ENCODING 12448
SWIDTH 1000 0
DWIDTH 24 0
BBX 10 6 7 6
BITMAP
FFC0
FFC0
0000
0000
FFC0
FFC0
ENDCHAR
STARTCHAR 30A1
ENCODING 12449
SWIDTH 1000 0
DWIDTH 24 0
BBX 14 13 5 0
BITMAP
FFFC
FC0C
0018
0218
0630
0660
06C0
0600
0600
0C00
1C00
3800
7000
ENDCHAR
STARTCHAR 30A2
ENCODING 12450
SWIDTH 1000 0
DWIDTH 24 0
BBX 18 17 3 0
BITMAP
FFFFC0
E000C0
000180
018380
018700
018E00
019C00
019800
018000
018000
018000
030000
070000
060000
1C0000
380000
300000
ENDCHAR
STARTCHAR 30A3
ENCODING 12451
SWIDTH 1000 0
DWIDTH 24 0
BBX 12 15 5 0
BITMAP
0070
00E0
01C0
0380
0700
0F00
3B00
F300
C300
0300
0300
0300
0300
0300
0300
ENDCHAR
STARTCHAR 30A4
ENCODING 12452
SWIDTH 1000 0
DWIDTH 24 0
BBX 15 19 3 0
BITMAP
0006
0006
000C
0018
0030
00E0
01E0
03E0
0E60
3C60
F060
4060
0060
0060
0060
0060
0060
0060
0060
ENDCHAR
STARTCHAR 30A5
ENCODING 12453
SWIDTH 1000 0
DWIDTH 24 0
BBX 13 16 6 -1
BITMAP
0600
0600
0600
FFF0
FFF8
C018
C030
C030
C030
0060
0060
00C0
01C0
0780
1E00
0800
ENDCHAR
STARTCHAR 30A6
ENCODING 12454
SWIDTH 1000 0
DWIDTH 24 0
BBX 16 19 4 -1
BITMAP
0180
0180
0180
0180
FFFF
FFFF
C003
C003
C003
C006
C006
0006
000C
001C
0038
0070
00E0
07C0
0700
ENDCHAR
STARTCHAR 30A7
ENCODING 12455
SWIDTH 1000 0
DWIDTH 24 0
BBX 16 10 4 2
BITMAP
3FFC
3FFC
0180
0180
0180
0180
0180
0180
FFFF
FFFF
ENDCHAR
STARTCHAR 30A8
ENCODING 12456
SWIDTH 1000 0
DWIDTH 24 0
BBX 20 13 2 2
BITMAP
3FFFC0
3FFFC0
006000
006000
006000
006000
006000
006000
006000
006000
006000
FFFFF0
FFFFF0
ENDCHAR
STARTCHAR 30A9
ENCODING 12457
SWIDTH 1000 0
DWIDTH 24 0
BBX 14 15 5 -1
BITMAP
00C0
00C0
00C0
00C0
FFFC
FFFC
01C0
03C0
06C0
0CC0
18C0
70C0
E0C0
87C0
07C0
ENDCHAR
STARTCHAR 30AA
ENCODING 12458
SWIDTH 1000 0
DWIDTH 24 0
BBX 18 19 3 -1
BITMAP
003000
003000
003000
003000
003000
FFFFC0
FFFFC0
007000
00F000
01B000
033000
033000
0E3000
1C3000
383000
F03000
C03000
03F000
03F000
ENDCHAR
STARTCHAR 30AB
ENCODING 12459
SWIDTH 1000 0
DWIDTH 24 0
BBX 17 19 3 -1
BITMAP
018000
018000
018000
018000
018000
FFFF80
FFFF80
018180
018180
030180
030180
030180
070180
060180
0C0380
1C0300
384300
F07F00
E03E00
ENDCHAR
STARTCHAR 30AC
ENCODING 12460
SWIDTH 1000 0
DWIDTH 24 0
BBX 20 20 3 0
BITMAP
000040
018160
0183B0
018190
0180C0
018000
FFFF80
FFFF80
018180
018180
030180
030180
030180
070180
060180
0C0380
1C0300
384300
F07F00
E03E00
ENDCHAR
STARTCHAR 30AD
ENCODING 12461
SWIDTH 1000 0
DWIDTH 24 0
BBX 18 20 3 -1
BITMAP
030000
030000
010000
018000
01BF00
1FFC00
7F8000
408000
00C000
00C0C0
00FFC0
1FFC00
FF4000
C06000
006000
006000
006000
002000
003000
003000
ENDCHAR
STARTCHAR 30AE
ENCODING 12462
SWIDTH 1000 0
DWIDTH 24 0
BBX 20 21 3 0
BITMAP
0000C0
030160
030130
010180
018080
01BF00
1FFC00
7F8000
408000
00C000
00C0C0
00FFC0
1FFC00
FF4000
C06000
006000
006000
006000
002000
003000
003000
ENDCHAR
STARTCHAR 30AF
ENCODING 12463
SWIDTH 1000 0
DWIDTH 24 0
BBX 15 20 4 0
BITMAP
0300
0300
0700
07FE
0FFE
0C06
1C06
3806
700C
E00C
C018
0018
0030
0060
00E0
01C0
0380
0F00
3C00
1000
ENDCHAR
STARTCHAR 30B0
ENCODING 12464
SWIDTH 1000 0
DWIDTH 24 0
BBX 19 21 4 0
BITMAP
0000C0
030360
030360
070180
07FE00
0FFE00
0C0600
1C0600
380600
700C00
E00C00
C01800
001800
003000
006000
00E000
01C000
038000
0F0000
3C0000
100000
ENDCHAR
STARTCHAR 30B1
ENCODING 12465
SWIDTH 1000 0
DWIDTH 24 0
BBX 19 19 2 -1
BITMAP
030000
060000
060000
060000
0FFFE0
0FFFE0
181C00
181800
301800
601800
E01800
401800
003000
003000
006000
00E000
01C000
078000
060000
ENDCHAR
STARTCHAR 30B2
ENCODING 12466
SWIDTH 1000 0
DWIDTH 24 0
BBX 20 21 2 -2
BITMAP
000040
000160
0301B0
060090
0600C0
060000
0FFFE0
0FFFE0
181C00
181800
301800
601800
E01800
401800
003000
003000
006000
00E000
01C000
078000
060000
ENDCHAR
STARTCHAR 30B3
ENCODING 12467
SWIDTH 1000 0
DWIDTH 24 0
BBX 15 16 4 0
BITMAP
FFFE
FFFE
0006
0006
0006
0006
0006
0006
0006
0006
0006
0006
FFFE
FFFE
0006
0006
ENDCHAR
STARTCHAR 30B4
ENCODING 12468
SWIDTH 1000 0
DWIDTH 24 0
BBX 19 20 4 1
BITMAP
0000C0
000360
0003A0
000180
FFFE00
FFFE00
000600
000600
000600
000600
000600
000600
000600
000600
000600
000600
FFFE00
FFFE00
000600
000600
ENDCHAR
STARTCHAR 30B5
ENCODING 12469
SWIDTH 1000 0
DWIDTH 24 0
BBX 20 19 2 -2
BITMAP
060600
060600
060600
060600
060600
FFFFF0
FFFFF0
060600
060600
060600
060600
060600
000C00
000C00
001C00
003800
007000
01E000
018000
ENDCHAR
STARTCHAR 30B6
ENCODING 12470
SWIDTH 1000 0
DWIDTH 24 0
BBX 21 20 2 -1
BITMAP
000030
060698
0606D8
060660
060600
060600
FFFFF0
FFFFF0
060600
060600
060600
060600
060600
000C00
000C00
001C00
003800
007000
01E000
018000
ENDCHAR
STARTCHAR 30B7
ENCODING 12471
SWIDTH 1000 0
DWIDTH 24 0
BBX 18 18 3 -1
BITMAP
080000
1C0000
0F0000
030000
010000
C00080
F000C0
380180
180380
000700
000E00
001C00
003800
00F000
03E000
0F8000
7E0000
300000
ENDCHAR
STARTCHAR 30B8
ENCODING 12472
SWIDTH 1000 0
DWIDTH 24 0
BBX 19 20 3 -1
BITMAP
000080
0000C0
080660
1C0320
0F0180
030100
010000
C00080
F000C0
380180
180380
000700
000E00
001C00
003800
00F000
03E000
0F8000
7E0000
300000
ENDCHAR
STARTCHAR 30B9
ENCODING 12473
SWIDTH 1000 0
DWIDTH 24 0
BBX 19 17 2 -1
BITMAP
1FFE00
1FFF00
000600
000600
000C00
000C00
001800
003800
003000
007000
00DC00
01CE00
038700
0E0380
1C01C0
F800E0
600040
ENDCHAR
STARTCHAR 30BA
ENCODING 12474
SWIDTH 1000 0
DWIDTH 24 0
BBX 21 20 2 0
BITMAP
000020
0000B0
0001D8
1FFED0
1FFF40
000600
000600
000C00
000C00
001800
003800
003000
007000
00DC00
01CE00
038700
0E0380
1C01C0
F800E0
600040
ENDCHAR
STARTCHAR 30BB
ENCODING 12475
SWIDTH 1000 0
DWIDTH 24 0
BBX 19 18 2 0
BITMAP
030000
030000
030000
030000
0300C0
03FFE0
FFF8C0
7F01C0
030380
030700
030E00
030C00
030000
030000
030000
030020
03FFE0
00FFC0
ENDCHAR
STARTCHAR 30BC
ENCODING 12476
SWIDTH 1000 0
DWIDTH 24 0
BBX 21 20 2 0
BITMAP
000020
0000B0
030198
0300D0
0300C0
030000
0300C0
03FFE0
FFF8C0
7F01C0
030380
030700
030E00
030C00
030000
030000
030000
030020
03FFE0
00FFC0
ENDCHAR
STARTCHAR 30BD
ENCODING 12477
SWIDTH 1000 0
DWIDTH 24 0
BBX 16 17 4 -1
BITMAP
4003
E003
6007
7006
3006
3806
180C
000C
0018
0038
0030
0070
00E0
01C0
0780
1E00
1C00
ENDCHAR
STARTCHAR 30BE
ENCODING 12478
SWIDTH 1000 0
DWIDTH 24 0
BBX 19 20 4 0
BITMAP
0002C0
000360
000120
400100
E00300
600700
700600
300600
380E00
180C00
000C00
001800
003800
003000
007000
00E000
01C000
078000
1E0000
1C0000
ENDCHAR
STARTCHAR 30BF
ENCODING 12479
SWIDTH 1000 0
DWIDTH 24 0
BBX 15 20 4 -2
BITMAP
0200
0300
0600
07FE
0FFE
0C06
1806
1C06
3E0C
670C
C198
80D8
0070
0060
00E0
01C0
0380
0F00
3C00
3800
ENDCHAR
STARTCHAR 30C0
ENCODING 12480
SWIDTH 1000 0
DWIDTH 24 0
BBX 19 21 4 -1
BITMAP
0000C0
020360
030320
060180
07FE00
0FFE00
0C0600
180600
1C0600
3E0C00
670C00
C19800
80D800
007000
006000
00E000
01C000
038000
0F0000
3C0000
380000
ENDCHAR
STARTCHAR 30C1
ENCODING 12481
SWIDTH 1000 0
DWIDTH 24 0
BBX 20 19 2 0
BITMAP
000700
00FF00
1FF800
0C3000
003000
003000
003000
FFFFF0
FFFFF0
003000
003000
003000
006000
006000
00E000
01C000
078000
1F0000
0C0000
ENDCHAR
STARTCHAR 30C2
ENCODING 12482
SWIDTH 1000 0
DWIDTH 24 0
BBX 21 20 2 0
BITMAP
000030
0006D8
00FF48
1FF868
0C3000
003000
003000
003000
FFFFF0
FFFFF0
003000
003000
003000
006000
006000
00E000
01C000
078000
1F0000
0C0000
ENDCHAR
STARTCHAR 30C3
ENCODING 12483
SWIDTH 1000 0
DWIDTH 24 0
BBX 14 14 5 -1
BITMAP
0400
460C
C618
E318
6318
6038
0030
0070
0060
00C0
0180
0700
1E00
1800
ENDCHAR
STARTCHAR 30C4
ENCODING 12484
SWIDTH 1000 0
DWIDTH 24 0
BBX 17 18 3 -1
BITMAP
010000
030180
C38180
E18180
618380
71C300
308300
300300
000600
000600
000E00
001C00
001800
003800
00F000
01E000
078000
0F0000
ENDCHAR
STARTCHAR 30C5
ENCODING 12485
SWIDTH 1000 0
DWIDTH 24 0
BBX 20 21 3 -1
BITMAP
000020
000160
0001B0
010090
030000
C38180
E18180
618380
71C300
308300
300300
000600
000600
000E00
001C00
001800
003800
00F000
01C000
078000
0F0000
ENDCHAR
STARTCHAR 30C6
ENCODING 12486
SWIDTH 1000 0
DWIDTH 24 0
BBX 20 18 2 -1
BITMAP
1FFF80
1FFF80
000000
000000
000000
FFFFF0
FFFFF0
007000
006000
006000
006000
006000
00C000
01C000
038000
0F0000
1E0000
080000
ENDCHAR
STARTCHAR 30C7
ENCODING 12487
SWIDTH 1000 0
DWIDTH 24 0
BBX 22 21 2 0
BITMAP
000010
000058
0000CC
1FFF68
1FFF30
000000
000000
000000
FFFFF0
FFFFF0
007000
006000
006000
006000
006000
00C000
01C000
038000
0F0000
1E0000
080000
ENDCHAR
STARTCHAR 30C8
ENCODING 12488
SWIDTH 1000 0
DWIDTH 24 0
BBX 11 20 9 -1
BITMAP
C000
C000
C000
C000
C000
C000
C000
E000
F800
DE00
C780
C3C0
C0E0
C040
C000
C000
C000
C000
C000
C000
ENDCHAR
STARTCHAR 30C9
ENCODING 12489
SWIDTH 1000 0
DWIDTH 24 0
BBX 13 20 9 -1
BITMAP
C000
C020
C1B0
C198
C0C0
C040
C000
E000
F800
DE00
C780
C3C0
C0E0
C040
C000
C000
C000
C000
C000
C000
ENDCHAR
STARTCHAR 30CA
ENCODING 12490
SWIDTH 1000 0
DWIDTH 24 0
BBX 18 20 3 -1
BITMAP
006000
006000
006000
006000
006000
006000
FFFFC0
FFFFC0
006000
006000
006000
006000
00C000
00C000
00C000
018000
038000
070000
1E0000
080000
ENDCHAR
STARTCHAR 30CB
ENCODING 12491
SWIDTH 1000 0
DWIDTH 24 0
BBX 20 12 2 3
BITMAP
1FFF80
1FFF80
000000
000000
000000
000000
000000
000000
000000
000000
FFFFF0
FFFFF0
ENDCHAR
STARTCHAR 30CC
ENCODING 12492
SWIDTH 1000 0
DWIDTH 24 0
BBX 15 18 4 0
BITMAP
7FFC
7FFE
000C
000C
001C
0818
1E18
0730
03F0
01E0
00E0
01B8
031C
0E0E
1C06
7800
E000
4000
ENDCHAR
STARTCHAR 30CD
ENCODING 12493
SWIDTH 1000 0
DWIDTH 24 0
BBX 18 21 3 -1
BITMAP
020000
078000
01C000
00E000
002000
3FFE00
3FFF00
000E00
001C00
003800
006000
01CC00
07CE00
1EC780
F8C1C0
60C0C0
00C000
00C000
00C000
00C000
00C000
ENDCHAR
STARTCHAR 30CE
ENCODING 12494
SWIDTH 1000 0
DWIDTH 24 0
BBX 13 16 5 1
BITMAP
0018
0018
0038
0030
0030
0060
0060
00E0
00C0
0180
0380
0700
0E00
1C00
7800
E000
ENDCHAR
STARTCHAR 30CF
ENCODING 12495
SWIDTH 1000 0
DWIDTH 24 0
BBX 21 13 1 2
BITMAP
020200
030600
030300
060380
060180
0E00C0
0C00E0
1C0060
180070
380030
700038
E00018
200000
ENDCHAR
STARTCHAR 30D0
ENCODING 12496
SWIDTH 1000 0
DWIDTH 24 0
BBX 22 17 1 3
BITMAP
000030
000098
0000CC
000060
020260
030600
030300
060380
060180
0E00C0
0C00E0
1C0060
180070
380030
700038
E00018
200000
ENDCHAR
STARTCHAR 30D1
ENCODING 12497
SWIDTH 1000 0
DWIDTH 24 0
BBX 21 18 1 2
BITMAP
000070
0000D8
000088
000088
0000D8
020270
030600
030300
060380
060180
0E00C0
0C00E0
1C0060
180070
380030
700038
E00018
200000
ENDCHAR
STARTCHAR 30D2
ENCODING 12498
SWIDTH 1000 0
DWIDTH 24 0
BBX 15 18 5 0
BITMAP
C000
C000
C000
C008
C01C
C0F8
C3E0
FF00
F800
C000
C000
C000
C000
C000
C000
E006
FFFE
3FF8
ENDCHAR
STARTCHAR 30D3
ENCODING 12499
SWIDTH 1000 0
DWIDTH 24 0
BBX 18 19 5 1
BITMAP
000300
C00D80
C006C0
C00600
C00800
C01C00
C0F800
C3E000
FF0000
F80000
C00000
C00000
C00000
C00000
C00000
C00000
E00600
FFFE00
3FF800
ENDCHAR
STARTCHAR 30D4
ENCODING 12500
SWIDTH 1000 0
DWIDTH 24 0
BBX 18 20 5 0
BITMAP
000380
0006C0
C00440
C00440
C006C0
C00B80
C01C00
C0F800
C3E000
FF0000
F80000
C00000
C00000
C00000
C00000
C00000
C00000
E00600
FFFE00
3FF800
ENDCHAR
STARTCHAR 30D5
ENCODING 12501
SWIDTH 1000 0
DWIDTH 24 0
BBX 16 16 4 0
BITMAP
FFFE
FFFF
0007
0006
0006
0006
000C
000C
0018
0038
0070
00E0
01C0
0780
1E00
1C00
ENDCHAR
STARTCHAR 30D6
ENCODING 12502
SWIDTH 1000 0
DWIDTH 24 0
BBX 20 20 4 0
BITMAP
0000C0
000360
0001B0
000180
FFFE00
FFFE00
000600
000600
000600
000C00
000C00
001C00
001800
003800
007000
00E000
01C000
078000
1E0000
1C0000
ENDCHAR
STARTCHAR 30D7
ENCODING 12503
SWIDTH 1000 0
DWIDTH 24 0
BBX 20 21 4 -1
BITMAP
0000E0
0001B0
000110
000110
0001B0
FFFEE0
FFFE00
000600
000600
000600
000C00
000C00
001C00
001800
003800
007000
00E000
01C000
078000
1E0000
1C0000
ENDCHAR
STARTCHAR 30D8
ENCODING 12504
SWIDTH 1000 0
DWIDTH 24 0
BBX 20 11 2 3
BITMAP
018000
03C000
06E000
0C7000
1C3800
380C00
700700
E00380
C001C0
0000F0
000070
ENDCHAR
STARTCHAR 30D9
ENCODING 12505
SWIDTH 1000 0
DWIDTH 24 0
BBX 20 13 2 4
BITMAP
0000C0
0002C0
018360
03C320
06E180
0C7000
1C3800
380C00
700700
E00380
C001C0
0000F0
000070
ENDCHAR
STARTCHAR 30DA
ENCODING 12506
SWIDTH 1000 0
DWIDTH 24 0
BBX 20 14 2 3
BITMAP
000380
0006C0
000440
018440
03C6C0
06E380
0C7000
1C3800
380C00
700700
E00380
C001C0
0000F0
000070
ENDCHAR
STARTCHAR 30DB
ENCODING 12507
SWIDTH 1000 0
DWIDTH 24 0
BBX 19 19 3 -1
BITMAP
00C000
00C000
00C000
00C000
00C000
FFFFC0
FFFFC0
00C000
00C000
10C600
18C600
30C300
30C380
60C180
E0C0C0
C0C0E0
80C000
0FC000
0FC000
ENDCHAR
STARTCHAR 30DC
ENCODING 12508
SWIDTH 1000 0
DWIDTH 24 0
BBX 20 20 3 0
BITMAP
0000C0
00C360
00C130
00C1A0
00C000
00C000
FFFFC0
FFFFC0
00C000
00C000
10C600
18C600
30C300
30C380
60C180
E0C0C0
C0C0E0
80C000
0FC000
0FC000
ENDCHAR
STARTCHAR 30DD
ENCODING 12509
SWIDTH 1000 0
DWIDTH 24 0
BBX 19 20 3 -1
BITMAP
0001C0
00C220
00C220
00C220
00C1C0
00C000
FFFFC0
FFFFC0
00C000
00C000
10C600
18C600
30C300
30C380
60C180
E0C0C0
C0C0E0
80C000
0FC000
0FC000
ENDCHAR
STARTCHAR 30DE
ENCODING 12510
SWIDTH 1000 0
DWIDTH 24 0
BBX 18 15 3 1
BITMAP
FFFFC0
0001C0
000180
000300
000600
080C00
0E1800
073000
03E000
01C000
00E000
007000
003800
001800
001000
ENDCHAR
STARTCHAR 30DF
ENCODING 12511
SWIDTH 1000 0
DWIDTH 24 0
BBX 13 18 5 0
BITMAP
3000
7E00
0FC0
01F8
0038
0000
3000
3E00
0FC0
01F0
0020
0000
E000
FC00
1F00
07E0
00F8
0038
ENDCHAR
STARTCHAR 30E0
ENCODING 12512
SWIDTH 1000 0
DWIDTH 24 0
BBX 18 16 3 1
BITMAP
01C000
018000
018000
038000
030000
030000
060800
061800
0E0C00
0C0E00
0C0700
180300
180F80
3FFFC0
FFE0C0
E000C0
ENDCHAR
STARTCHAR 30E1
ENCODING 12513
SWIDTH 1000 0
DWIDTH 24 0
BBX 14 18 4 0
BITMAP
0008
001C
0018
0018
1030
1830
0E60
0760
01C0
01E0
01F0
0338
071C
0E0C
1C00
3800
F000
C000
ENDCHAR
STARTCHAR 30E2
ENCODING 12514
SWIDTH 1000 0
DWIDTH 24 0
BBX 18 17 3 0
BITMAP
3FFF00
3FFF00
018000
018000
018000
018000
018000
FFFFC0
FFFFC0
018000
018000
018000
018000
018000
018000
01FF80
00FF80
ENDCHAR
STARTCHAR 30E3
ENCODING 12515
SWIDTH 1000 0
DWIDTH 24 0
BBX 15 16 4 -1
BITMAP
0400
0C00
0C00
0C0E
07FE
FFC6
F60C
061C
0218
0330
0300
0300
0300
0180
0180
0180
ENDCHAR
STARTCHAR 30E4
ENCODING 12516
SWIDTH 1000 0
DWIDTH 24 0
BBX 19 19 2 0
BITMAP
060000
030000
030000
0300C0
031FE0
07FEE0
FFC0C0
7181C0
018180
018300
008700
00C200
00C000
00C000
00C000
006000
006000
006000
006000
ENDCHAR
STARTCHAR 30E5
ENCODING 12517
SWIDTH 1000 0
DWIDTH 24 0
BBX 16 10 4 2
BITMAP
3FF0
3FF0
0030
0030
0030
0030
0020
0060
FFFF
FFFF
ENDCHAR
STARTCHAR 30E6
ENCODING 12518
SWIDTH 1000 0
DWIDTH 24 0
BBX 20 13 2 2
BITMAP
1FFE00
1FFE00
000600
000600
000600
000600
000600
000600
000600
000E00
000C00
FFFFF0
FFFFF0
ENDCHAR
STARTCHAR 30E7
ENCODING 12519
SWIDTH 1000 0
DWIDTH 24 0
BBX 11 13 6 0
BITMAP
FFE0
FFE0
0060
0060
0060
7FE0
7FE0
0060
0060
0060
FFE0
FFE0
0060
ENDCHAR
STARTCHAR 30E8
ENCODING 12520
SWIDTH 1000 0
DWIDTH 24 0
BBX 15 16 4 0
BITMAP
FFFE
FFFE
0006
0006
0006
0006
7FFE
7FFE
0006
0006
0006
0006
FFFE
FFFE
0006
0006
ENDCHAR
STARTCHAR 30E9
ENCODING 12521
SWIDTH 1000 0
DWIDTH 24 0
BBX 17 18 3 -2
BITMAP
3FFE00
3FFE00
000000
000000
000000
FFFF00
FFFF80
000380
000300
000300
000600
000E00
001C00
003800
007000
01E000
0F8000
060000
ENDCHAR
STARTCHAR 30EA
ENCODING 12522
SWIDTH 1000 0
DWIDTH 24 0
BBX 11 19 6 -2
BITMAP
C060
C060
C060
C060
C060
C060
C060
C060
C060
C060
C060
0060
00C0
00C0
01C0
0380
0700
1E00
1C00
ENDCHAR
STARTCHAR 30EB
ENCODING 12523
SWIDTH 1000 0
DWIDTH 24 0
BBX 22 18 1 -1
BITMAP
001800
001800
061800
061800
061800
061800
061800
061800
061808
06180C
061818
0C1830
0C1860
1C18C0
181B80
301F00
F01E00
400800
ENDCHAR
STARTCHAR 30EC
ENCODING 12524
SWIDTH 1000 0
DWIDTH 24 0
BBX 15 18 6 -1
BITMAP
C000
C000
C000
C000
C000
C000
C000
C004
C00E
C01C
C038
C070
C0E0
C3C0
C700
FE00
F800
6000
ENDCHAR
STARTCHAR 30ED
ENCODING 12525
SWIDTH 1000 0
DWIDTH 24 0
BBX 16 15 4 1
BITMAP
FFFF
FFFF
C003
C003
C003
C003
C003
C003
C003
C003
C003
C003
FFFF
FFFF
C003
ENDCHAR
STARTCHAR 30EE
ENCODING 12526
SWIDTH 1000 0
DWIDTH 24 0
BBX 13 14 6 -2
BITMAP
FFF0
FFF8
C018
C018
C018
C030
C030
0070
0060
00C0
01C0
0380
0E00
0C00
ENDCHAR
STARTCHAR 30EF
ENCODING 12527
SWIDTH 1000 0
DWIDTH 24 0
BBX 16 16 4 -1
BITMAP
FFFE
FFFF
C003
C003
C003
C006
C006
0006
000C
001C
0018
0030
0070
01E0
0780
0700
ENDCHAR
STARTCHAR 30F0
ENCODING 12528
SWIDTH 1000 0
DWIDTH 24 0
BBX 20 20 2 -1
BITMAP
001800
001800
001800
001800
001800
3FFFC0
3FFFC0
061800
061800
061800
061800
061800
FFFFF0
FFFFF0
001800
001800
001800
001800
001800
001800
ENDCHAR
STARTCHAR 30F1
ENCODING 12529
SWIDTH 1000 0
DWIDTH 24 0
BBX 20 13 2 2
BITMAP
3FFFC0
3FFFE0
0000C0
006180
006300
006E00
006400
006000
006000
006000
006000
FFFFF0
FFFFF0
ENDCHAR
STARTCHAR 30F2
ENCODING 12530
SWIDTH 1000 0
DWIDTH 24 0
BBX 16 18 4 -2
BITMAP
FFFE
FFFF
0003
0006
0006
0006
7FFE
7FFC
000C
001C
0018
0030
0070
00E0
01C0
0F00
3E00
3000
ENDCHAR
STARTCHAR 30F3
ENCODING 12531
SWIDTH 1000 0
DWIDTH 24 0
BBX 17 17 4 0
BITMAP
400000
F00000
780000
1C0180
0C0180
000300
000700
000600
000C00
001C00
003800
00F000
01C000
078000
7E0000
780000
400000
ENDCHAR
STARTCHAR 30F4
ENCODING 12532
SWIDTH 1000 0
DWIDTH 24 0
BBX 19 20 4 0
BITMAP
0002C0
018360
018320
018180
018000
FFFF00
FFFF00
C00300
C00300
C00300
C00600
C00600
000600
000C00
001C00
003800
007000
00E000
07C000
070000
ENDCHAR
STARTCHAR 30F5
ENCODING 12533
SWIDTH 1000 0
DWIDTH 24 0
BBX 13 15 5 -1
BITMAP
0600
0600
0600
0600
FFF8
FFF8
0618
0618
0E18
0C18
1C18
1810
3830
71F0
C1F0
ENDCHAR
STARTCHAR 30F6
ENCODING 12534
SWIDTH 1000 0
DWIDTH 24 0
BBX 15 16 5 -2
BITMAP
0800
0C00
0C00
1800
1FFE
3FFE
3060
6060
E0C0
C0C0
00C0
0180
0180
0300
0E00
1C00
ENDCHAR
STARTCHAR 30F7
ENCODING 12535
SWIDTH 1000 0
DWIDTH 24 0
BBX 19 20 4 0
BITMAP
0000C0
000360
000160
0001A0
FFFE00
FFFF00
C00300
C00300
C00600
C00600
C00600
000E00
000C00
001C00
001800
003000
007000
01E000
078000
070000
ENDCHAR
STARTCHAR 30F8
ENCODING 12536
SWIDTH 1000 0
DWIDTH 24 0
BBX 21 21 2 0
BITMAP
000060
001930
001998
0018D0
001880
001800
3FFFC0
3FFFC0
061800
061800
061800
061800
061800
FFFFF0
FFFFF0
001800
001800
001800
001800
001800
001800
ENDCHAR
STARTCHAR 30F9
ENCODING 12537
SWIDTH 1000 0
DWIDTH 24 0
BBX 22 18 2 3
BITMAP
000030
0000D8
00004C
000068
000000
3FFFC0
3FFFE0
0000C0
006180
006300
006E00
006400
006000
006000
006000
006000
FFFFF0
FFFFF0
ENDCHAR
STARTCHAR 30FA
ENCODING 12538
SWIDTH 1000 0
DWIDTH 24 0
BBX 19 21 4 -1
BITMAP
0000C0
000360
0001A0
FFFE80
FFFF00
000600
000600
000600
000600
7FFE00
7FFC00
000C00
001C00
001800
003000
007000
00E000
03C000
0F0000
3E0000
300000
ENDCHAR
STARTCHAR 30FB
ENCODING 12539
SWIDTH 1000 0
DWIDTH 24 0
BBX 4 3 10 8
BITMAP
F0
F0
F0
ENDCHAR
STARTCHAR 30FC
ENCODING 12540
SWIDTH 1000 0
DWIDTH 24 0
BBX 20 2 2 8
BITMAP
FFFFF0
FFFFF0
ENDCHAR
STARTCHAR 30FD
ENCODING 12541
SWIDTH 1000 0
DWIDTH 24 0
BBX 11 10 6 4
BITMAP
E000
7000
3800
1C00
0E00
0700
0380
01C0
00E0
0040
ENDCHAR
STARTCHAR 30FE
ENCODING 12542
SWIDTH 1000 0
DWIDTH 24 0
BBX 13 13 6 4
BITMAP
0060
0070
0338
E190
70C0
3840
1C00
0E00
0700
0380
01C0
00E0
0040
ENDCHAR
STARTCHAR 30FF
ENCODING 12543
SWIDTH 1000 0
DWIDTH 24 0
BBX 15 18 4 -1
BITMAP
FFFE
FFFE
0006
0006
0006
0006
0006
0006
0006
0006
0006
0006
0006
0006
0006
0006
0006
0006
ENDCHAR
STARTCHAR 31F0
ENCODING 12784
SWIDTH 1000 0
DWIDTH 24 0
BBX 13 16 5 -1
BITMAP
0600
0600
0FF0
0FF8
1818
3830
7030
E020
4060
00C0
00C0
0380
0700
1E00
3800
1000
ENDCHAR
STARTCHAR 31F1
ENCODING 12785
SWIDTH 1000 0
DWIDTH 24 0
BBX 15 14 5 0
BITMAP
1000
1C00
0F00
0200
E006
700E
380C
0018
0030
0060
01C0
0780
3E00
3800
ENDCHAR
STARTCHAR 31F2
ENCODING 12786
SWIDTH 1000 0
DWIDTH 24 0
BBX 14 13 5 -1
BITMAP
7FC0
7FE0
0060
00C0
00C0
0180
0380
0780
0EC0
1C70
3838
F01C
C008
ENDCHAR
STARTCHAR 31F3
ENCODING 12787
SWIDTH 1000 0
DWIDTH 24 0
BBX 9 15 9 0
BITMAP
C000
C000
C000
C000
C000
E000
F800
DE00
C700
C380
C000
C000
C000
C000
C000
ENDCHAR
STARTCHAR 31F4
ENCODING 12788
SWIDTH 1000 0
DWIDTH 24 0
BBX 11 13 6 0
BITMAP
FFE0
0060
00C0
00C0
3180
1D80
0F00
0700
0F80
1CC0
3860
F060
C000
ENDCHAR
STARTCHAR 31F5
ENCODING 12789
SWIDTH 1000 0
DWIDTH 24 0
BBX 17 11 3 1
BITMAP
001000
063800
061800
0C0C00
0C0C00
1C0600
180600
380300
300380
700180
E00180
ENDCHAR
STARTCHAR 31F6
ENCODING 12790
SWIDTH 1000 0
DWIDTH 24 0
BBX 12 14 7 0
BITMAP
C000
C000
C000
C0E0
C3C0
DF00
F800
C000
C000
C000
C000
C010
FFF0
3FE0
ENDCHAR
STARTCHAR 31F7
ENCODING 12791
SWIDTH 1000 0
DWIDTH 24 0
BBX 13 13 5 -1
BITMAP
FFF0
FFF8
0018
0030
0030
0070
0060
00E0
01C0
0380
0700
1E00
3800
ENDCHAR
STARTCHAR 31F8
ENCODING 12792
SWIDTH 1000 0
DWIDTH 24 0
BBX 16 9 4 2
BITMAP
0600
0F00
1DC0
38E0
7070
E038
C01E
0007
0003
ENDCHAR
STARTCHAR 31F9
ENCODING 12793
SWIDTH 1000 0
DWIDTH 24 0
BBX 15 16 5 -1
BITMAP
0300
0300
0300
0300
FFFC
FFFC
0300
2320
3330
6318
6318
E30C
C30E
8300
1F00
1F00
ENDCHAR
STARTCHAR 31FA
ENCODING 12794
SWIDTH 1000 0
DWIDTH 24 0
BBX 16 14 4 1
BITMAP
0180
0300
0300
0300
0600
0620
0C30
0C38
0C18
180C
187E
FFFE
7C03
0002
ENDCHAR
STARTCHAR 31FB
ENCODING 12795
SWIDTH 1000 0
DWIDTH 24 0
BBX 13 15 5 -1
BITMAP
3FF0
3FF0
0000
0000
FFF8
FFF8
0018
0018
0030
0070
00E0
01C0
0780
0E00
0800
ENDCHAR
STARTCHAR 31FC
ENCODING 12796
SWIDTH 1000 0
DWIDTH 24 0
BBX 8 14 8 -1
BITMAP
C3
C3
C3
C3
C3
C3
C3
C3
03
06
06
0E
1C
38
ENDCHAR
STARTCHAR 31FD
ENCODING 12797
SWIDTH 1000 0
DWIDTH 24 0
BBX 17 14 4 0
BITMAP
00C000
0CC000
0CC000
0CC000
0CC000
0CC000
18C100
18C380
18C700
18CE00
30DC00
70F800
E0E000
404000
ENDCHAR
STARTCHAR 31FE
ENCODING 12798
SWIDTH 1000 0
DWIDTH 24 0
BBX 12 14 7 -1
BITMAP
C000
C000
C000
C000
C000
C020
C030
C060
C0E0
C380
C700
DE00
F800
E000
ENDCHAR
STARTCHAR 31FF
ENCODING 12799
SWIDTH 1000 0
DWIDTH 24 0
BBX 12 12 6 1
BITMAP
FFF0
FFF0
C030
C030
C030
C030
C030
C030
C030
FFF0
FFF0
C030
ENDCHAR
STARTCHAR 3231
ENCODING 12849
SWIDTH 1000 0
DWIDTH 24 0
BBX 22 22 1 -2
BITMAP
100020
330630
230610
633618
633618
7FBFD8
C3660C
C7660C
C7060C
C7060C
CF7FEC
CF8E0C
DB8F0C
DB0F0C
F3168C
D316CC
432678
636678
634618
230610
330630
100020
ENDCHAR
STARTCHAR 3232
ENCODING 12850
SWIDTH 1000 0
DWIDTH 24 0
BBX 22 22 1 -2
BITMAP
300030
206030
606010
604018
7FFFF8
408018
C1800C
C1800C
C3FF8C
C7818C
CF818C
CDFF8C
F9818C
F9818C
D1818C
C1FF8C
418198
618198
618F98
618F90
218030
300030
ENDCHAR
STARTCHAR 3239
ENCODING 12857
SWIDTH 1000 0
DWIDTH 24 0
BBX 22 22 1 -2
BITMAP
300020
211830
631B10
631998
631898
461898
C6180C
CEFFCC
CEFF0C
DE080C
D6080C
F6080C
E60C0C
C60C0C
C60C0C
C6066C
460678
6602D8
6603D8
660190
260030
300020
ENDCHAR
STARTCHAR 3251
ENCODING 12881
SWIDTH 1000 0
DWIDTH 24 0
BBX 23 23 0 -2
BITMAP
00FE00
030180
040060
080030
13C198
27E388
466384
446184
8C6182
804182
80C182
818182
818182
830182
820182
460184
460184
27E188
37E198
180030
0E0060
038180
00FE00
ENDCHAR
STARTCHAR 3252
ENCODING 12882
SWIDTH 1000 0
DWIDTH 24 0
BBX 23 23 0 -2
BITMAP
007E00
038180
040060
080030
13C3D8
27E7E8
466664
446C64
8C6C62
804042
80C0C2
818182
818182
830302
820202
460604
460404
27E7E8
37EFF8
180030
0E0060
038180
00FE00
ENDCHAR
STARTCHAR 3253
ENCODING 12883
SWIDTH 1000 0
DWIDTH 24 0
BBX 23 23 0 -2
BITMAP
007E00
038180
040060
080030
13C798
27E7C8
466CC4
446CC4
8C60C2
8040C2
80C0C2
818382
8183C2
8300E2
820062
460C64
460C64
27EFE8
3FE7D8
180030
0E0060
038180
00FE00
ENDCHAR
STARTCHAR 3254
ENCODING 12884
SWIDTH 1000 0
DWIDTH 24 0
BBX 23 23 0 -2
BITMAP
00FE00
030180
040060
180030
33C0D8
27E1C8
4661C4
4463C4
8C62C2
8042C2
80C6C2
8184C2
8184C2
830CC2
820FE2
460FE4
4600C4
27E0C8
37E0D8
180030
0C0060
038180
00FE00
ENDCHAR
STARTCHAR 3255
ENCODING 12885
SWIDTH 1000 0
DWIDTH 24 0
BBX 23 23 0 -2
BITMAP
00FE00
030180
040060
180030
33C7D8
27E7C8
466404
446404
8C6402
8045C2
80C6C2
818C62
818062
830062
820062
460C64
4604E4
27E7C8
37E398
180030
0C0060
038180
00FE00
ENDCHAR
STARTCHAR 3256
ENCODING 12886
SWIDTH 1000 0
DWIDTH 24 0
BBX 23 22 0 -2
BITMAP
00FE00
030180
0C0060
1BC3B0
37E7D8
666648
446C64
CC6C04
804C02
80CF82
818EC2
818C62
830C62
820C62
460C64
4606E4
27E7C8
3FE398
180030
0E0060
038180
00FE00
ENDCHAR
STARTCHAR 3257
ENCODING 12887
SWIDTH 1000 0
DWIDTH 24 0
BBX 24 23 0 -2
BITMAP
007E00
0381C0
040020
180010
33CFE8
27EFE4
466062
446042
8C60C1
8040C1
80C081
818181
818181
830181
820301
460302
460302
27E304
17E608
180018
060020
0381C0
007E00
ENDCHAR
STARTCHAR 3258
ENCODING 12888
SWIDTH 1000 0
DWIDTH 24 0
BBX 23 23 0 -2
BITMAP
00FE00
030180
040060
080030
13C798
27E488
466CC4
446CC4
8C6CC2
804CC2
80C782
8187C2
818EE2
830C62
820C62
460C64
460CE4
27E7C8
37E398
180030
0C0060
038180
00FE00
ENDCHAR
STARTCHAR 3259
ENCODING 12889
SWIDTH 1000 0
DWIDTH 24 0
BBX 23 23 0 -2
BITMAP
007E00
038180
040060
080030
13C398
27E7C8
466EC4
446C64
8C6C62
804C62
80CC62
818C62
8186A2
830362
820062
460064
460C44
27E7C8
3FE398
180030
0E0060
038180
00FE00
ENDCHAR
STARTCHAR 325A
ENCODING 12890
SWIDTH 1000 0
DWIDTH 24 0
BBX 23 23 1 -2
BITMAP
00FE00
030180
040060
180030
178398
27C7C8
4CC6C4
4CCC64
80CC62
80CC62
80CC62
838C62
83CC62
80EC62
806C62
4C6C64
4C66C4
2FE7C8
37C398
180030
0C0060
030180
00FE00
ENDCHAR
STARTCHAR 325B
ENCODING 12891
SWIDTH 1000 0
DWIDTH 24 0
BBX 22 23 1 -2
BITMAP
00FC00
030300
0C00C0
180060
378330
27C710
4CC708
4CC308
80C304
80C304
808304
838304
83C304
80E304
806304
4C6308
4C6308
2FE310
37C330
180060
0C00C0
030300
00FC00
ENDCHAR
STARTCHAR 325C
ENCODING 12892
SWIDTH 1000 0
DWIDTH 24 0
BBX 22 23 1 -2
BITMAP
00FC00
030300
0400C0
080060
1787B0
27C7D0
4CCCC8
4CC8C8
80C8C4
80C084
818184
838104
838304
80C604
80C404
4CCC08
4CCC08
2FCFD0
378FF0
180060
0C00C0
030300
00FC00
ENDCHAR
STARTCHAR 325D
ENCODING 12893
SWIDTH 1000 0
DWIDTH 24 0
BBX 23 23 1 -2
BITMAP
00FE00
030180
040060
180030
178798
27C7C8
4CCCC4
4CCCC4
80C0C2
80C0C2
80C0C2
838382
83C3C2
80E0E2
806062
4C6C64
4C6C64
2FEFE8
37C7D8
180030
0C0060
030180
00FE00
ENDCHAR
STARTCHAR 325E
ENCODING 12894
SWIDTH 1000 0
DWIDTH 24 0
BBX 23 23 1 -2
BITMAP
00FE00
030180
0C0060
180030
378198
27C388
4CC384
4CC784
80C782
80C582
818D82
838982
838982
80D982
80DFE2
4CDFE4
4CC184
2FC188
378198
180030
0C0060
030180
00FE00
ENDCHAR
STARTCHAR 325F
ENCODING 12895
SWIDTH 1000 0
DWIDTH 24 0
BBX 22 23 1 -2
BITMAP
00FC00
030300
0C00C0
180060
378FB0
27CF90
4CC808
4CC808
80C804
80C804
818F04
838C84
8388C4
80C0C4
80C0C4
4CC8C8
4CCDC8
2FCF90
378730
180060
0C00C0
030300
00FC00
ENDCHAR
STARTCHAR 32A4
ENCODING 12964
SWIDTH 1000 0
DWIDTH 24 0
BBX 22 22 1 -2
BITMAP
00FC00
070300
0C00C0
103020
203010
603010
403008
C03008
803F84
803004
803004
803004
803004
803004
403008
403008
2FFFD0
200010
100020
0C00C0
030300
00FC00
ENDCHAR
STARTCHAR 32A5
ENCODING 12965
SWIDTH 1000 0
DWIDTH 24 0
BBX 24 22 0 -2
BITMAP
00FE00
0381C0
0C0030
181818
30180C
601804
47FFE2
461862
861861
861861
861861
861861
87FFE1
861861
461862
401802
201804
30180C
181818
0C0030
0381C0
007F00
ENDCHAR
STARTCHAR 32A6
ENCODING 12966
SWIDTH 1000 0
DWIDTH 24 0
BBX 22 22 1 -2
BITMAP
00FC00
070300
0C00C0
100020
200010
6FFFD0
403008
C03008
803004
803C04
803604
803304
803184
803004
403008
403008
203010
203010
103020
0C00C0
030300
00FC00
ENDCHAR
STARTCHAR 32A7
ENCODING 12967
SWIDTH 1000 0
DWIDTH 24 0
BBX 22 23 1 -3
BITMAP
00FC00
070300
0C00C0
184060
304030
604010
4FFFC8
40C008
808004
818004
818004
83FF84
831804
861804
8C1804
4C1808
481808
23FFD0
300030
180060
0C00C0
030300
00FC00
ENDCHAR
STARTCHAR 32A8
ENCODING 12968
SWIDTH 1000 0
DWIDTH 24 0
BBX 22 22 1 -2
BITMAP
00FC00
070300
0C00C0
106020
206010
606010
4FFFC8
C0C008
808004
818004
818004
83FF84
878184
8D8184
5D8188
498188
21FF90
218190
100020
0C00C0
030300
00FC00
ENDCHAR
STARTCHAR 32B1
ENCODING 12977
SWIDTH 1000 0
DWIDTH 24 0
BBX 23 22 1 -2
BITMAP
00FE00
070180
0C0060
1F83B0
37C7D8
6CC4C8
4CCC44
C0CC04
80C802
80CB82
838AC2
83CC62
80EC62
806C62
4C6C64
4C66E4
2FE7C8
37C398
180030
0C0060
030180
00FE00
ENDCHAR
STARTCHAR 32B2
ENCODING 12978
SWIDTH 1000 0
DWIDTH 24 0
BBX 23 23 1 -2
BITMAP
00FE00
030180
0C0060
180030
379FD8
27DFC8
4CC0C4
4CC184
80C182
80C182
818102
838302
838302
80C302
80C602
4CC604
4CC604
2FC608
378C18
180030
0C0060
030180
00FE00
ENDCHAR
STARTCHAR 32B3
ENCODING 12979
SWIDTH 1000 0
DWIDTH 24 0
BBX 23 23 1 -2
BITMAP
00FE00
030180
040060
080030
178718
27C488
4CCCC4
4CCCC4
80CCC2
80CCC2
80C4C2
838782
83C7C2
80EC62
806C62
4C6C64
4C6C64
2FE7C8
37C398
180030
0C0060
030180
00FE00
ENDCHAR
STARTCHAR 32B4
ENCODING 12980
SWIDTH 1000 0
DWIDTH 24 0
BBX 23 24 1 -3
BITMAP
00FE00
030380
040040
080020
178390
27C7C8
4CCEC4
4CCC64
C0CC64
80CC62
80CC62
838C62
83C6E2
80C362
806062
CC6064
4C6C44
4CECC4
27C7C8
138390
180030
0C0040
030180
00FE00
ENDCHAR
STARTCHAR 32B5
ENCODING 12981
SWIDTH 1000 0
DWIDTH 24 0
BBX 22 23 1 -2
BITMAP
00FC00
030300
0C00C0
180060
318730
238F90
438D88
4798C8
8598C4
8598C4
8D98C4
8998C4
8998C4
9998C4
9FD8C4
5FD8C8
418D88
218F90
318730
180060
0C00C0
030300
00FC00
ENDCHAR
STARTCHAR 32B6
ENCODING 12982
SWIDTH 1000 0
DWIDTH 24 0
BBX 22 23 1 -2
BITMAP
00FC00
030300
0C00C0
180060
30C330
21C710
41C708
43C308
82C304
86C304
84C304
8CC304
88C304
98C304
9FE304
5FE308
40C308
20C310
30C330
180060
0C00C0
030300
00FC00
ENDCHAR
STARTCHAR 32B7
ENCODING 12983
SWIDTH 1000 0
DWIDTH 24 0
BBX 22 23 1 -2
BITMAP
00FC00
030300
0C00C0
180060
3187B0
238FD0
438CC8
4798C8
8598C4
858084
8D8184
898304
898304
998604
9FC404
5FCC08
418808
218FD0
319FF0
180060
0C00C0
030300
00FC00
ENDCHAR
STARTCHAR 32B8
ENCODING 12984
SWIDTH 1000 0
DWIDTH 24 0
BBX 22 23 1 -2
BITMAP
00FC00
070300
0C00C0
180060
318F30
238F90
439988
479988
878184
858184
8D8184
898704
898784
9981C4
9FC0C4
5FD8C8
4198C8
219FD0
318FB0
180060
0C00C0
030300
00FC00
ENDCHAR
STARTCHAR 32B9
ENCODING 12985
SWIDTH 1000 0
DWIDTH 24 0
BBX 23 23 1 -2
BITMAP
00FE00
030180
0C0040
180030
318198
238388
438384
478784
858582
858582
8D8D82
898982
898982
999982
9FDFE2
5FDFE4
418184
218188
318198
180030
0C0060
030180
00FE00
ENDCHAR
STARTCHAR 32BA
ENCODING 12986
SWIDTH 1000 0
DWIDTH 24 0
BBX 22 23 1 -2
BITMAP
00FC00
030300
0C00C0
180060
318FB0
238F90
438808
478808
878804
858B04
8D8D84
8988C4
8980C4
9980C4
9FC0C4
5FD8C8
4189C8
218F90
318730
180060
0C00C0
030300
00FC00
ENDCHAR
STARTCHAR 32BB
ENCODING 12987
SWIDTH 1000 0
DWIDTH 24 0
BBX 22 23 1 -2
BITMAP
00FC00
030300
0C00C0
180060
318730
238F90
438CC8
4798C8
879804
859804
8D9B04
899D84
8998C4
9998C4
9FD8C4
5FD8C8
418DC8
218FD0
3187B0
180060
0C00C0
030300
00FC00
ENDCHAR
STARTCHAR 32BC
ENCODING 12988
SWIDTH 1000 0
DWIDTH 24 0
BBX 23 23 1 -2
BITMAP
00FE00
030180
0C0040
180030
30DFD8
21DFC8
41C0C4
43C184
82C182
86C182
84C102
8CC302
88C302
98C302
9FE602
5FE604
40C604
20C608
30CC18
180030
0C0060
030180
00FE00
ENDCHAR
STARTCHAR 32BD
ENCODING 12989
SWIDTH 1000 0
DWIDTH 24 0
BBX 22 23 1 -2
BITMAP
00FC00
070300
0C00C0
180060
3187B0
238490
438CC8
478CC8
858CC4
858CC4
8D8784
898F84
899DC4
9998C4
9FD8C4
5FD8C8
4199C8
218F90
318730
180060
0C00C0
030300
00FC00
ENDCHAR
STARTCHAR 32BE
ENCODING 12990
SWIDTH 1000 0
DWIDTH 24 0
BBX 22 23 1 -2
BITMAP
00FC00
070300
0C00C0
180060
318730
238F90
439D88
4798C8
8598C4
8598C4
8D98C4
8989C4
898744
9980C4
9FC0C4
5FC0C8
419988
218F90
318730
180060
0C00C0
030300
00FC00
ENDCHAR
STARTCHAR 32BF
ENCODING 12991
SWIDTH 1000 0
DWIDTH 24 0
BBX 23 23 1 -2
BITMAP
00FE00
030180
0C0060
180030
37C398
27C7C8
4406C4
440C64
840C62
85CC62
8ECC62
8C6C62
806C62
806C62
806C62
4C6C64
44E6C4
27C7C8
338398
180030
0C0060
030180
00FE00
ENDCHAR
STARTCHAR 32D0
ENCODING 13008
SWIDTH 1000 0
DWIDTH 24 0
BBX 24 23 0 -2
BITMAP
007E00
0181C0
060020
080018
100008
200004
47FFF2
47FE32
800061
8018E1
8018C1
801981
801B01
801801
803801
403002
407002
20E004
33C008
190018
0C0020
0381C0
007E00
ENDCHAR
STARTCHAR 32D1
ENCODING 13009
SWIDTH 1000 0
DWIDTH 24 0
BBX 23 23 0 -2
BITMAP
00FE00
030180
040060
080030
100118
200308
400604
400C04
801802
807802
80F802
83D802
8F1802
8C1802
801802
401804
401804
201808
301818
181830
0C0060
030180
00FE00
ENDCHAR
STARTCHAR 32D2
ENCODING 13010
SWIDTH 1000 0
DWIDTH 24 0
BBX 22 22 1 -2
BITMAP
00FC00
070300
0C00C0
103020
203010
603010
47FF88
C7FFC8
8600C4
8600C4
860184
860184
800184
800304
400308
400E08
201C10
207810
106020
0C00C0
030300
00FC00
ENDCHAR
STARTCHAR 32D3
ENCODING 13011
SWIDTH 1000 0
DWIDTH 24 0
BBX 24 23 0 -2
BITMAP
007F00
0181C0
060020
080018
100008
200004
43FFC2
43FFC2
801801
801801
801801
801801
801801
801801
801801
4FFFF2
4FFFF2
200004
300008
180018
040020
0381C0
007E00
ENDCHAR
STARTCHAR 32D4
ENCODING 13012
SWIDTH 1000 0
DWIDTH 24 0
BBX 22 24 1 -3
BITMAP
00FC00
030300
0400C0
180060
100C20
200C10
400C08
400C08
8FFFC8
8FFFC4
801C04
803C04
806C04
80CC04
81CC04
C38C08
470C08
4C0C08
207C10
307C30
180060
0C00C0
030300
00FC00
ENDCHAR
STARTCHAR 32D5
ENCODING 13013
SWIDTH 1000 0
DWIDTH 24 0
BBX 23 23 1 -3
BITMAP
00FE00
030180
0C0060
183030
303018
603008
403004
47FFC4
87FFC2
8030C2
8030C2
8060C2
8060C2
8060C2
80C082
41C184
439184
271F88
360F18
180030
0C0060
030180
00FE00
ENDCHAR
STARTCHAR 32D6
ENCODING 13014
SWIDTH 1000 0
DWIDTH 24 0
BBX 22 22 1 -2
BITMAP
01FC00
070300
1C00C0
104020
206010
606010
407F08
CFFE08
8FA004
803004
8030E4
803FE4
8FFC04
8F1004
401808
401808
201810
201810
100820
0C00C0
030300
00FC00
ENDCHAR
STARTCHAR 32D7
ENCODING 13015
SWIDTH 1000 0
DWIDTH 24 0
BBX 22 23 1 -3
BITMAP
01FC00
070300
0C00C0
183060
303030
606010
407F88
40FF88
81C184
818184
830304
860304
840604
800604
800C04
401808
403008
20E010
33C030
190060
0C00C0
030300
00FC00
ENDCHAR
STARTCHAR 32D8
ENCODING 13016
SWIDTH 1000 0
DWIDTH 24 0
BBX 22 23 1 -3
BITMAP
00FC00
070300
0C00C0
18C060
30C030
618010
418008
41FFE8
83FFE4
830C04
860C04
8C0C04
9C0C04
800C04
801804
401808
403008
206010
31C030
198060
0C00C0
030300
00FC00
ENDCHAR
STARTCHAR 32D9
ENCODING 13017
SWIDTH 1000 0
DWIDTH 24 0
BBX 23 22 0 -2
BITMAP
00FE00
030180
0C0060
180030
300018
63FFC8
43FFC4
C000C4
8000C2
8000C2
8000C2
8000C2
8000C2
8000C2
47FFC4
47FFC4
2000C8
300018
180030
0C0060
030180
00FE00
ENDCHAR
STARTCHAR 32DA
ENCODING 13018
SWIDTH 1000 0
DWIDTH 24 0
BBX 22 23 1 -2
BITMAP
00FC00
030300
0400C0
080060
100630
218610
418608
418608
818604
9FFFE4
9FFFE4
818604
818604
818604
818604
400C08
400C08
201810
303830
187060
0C00C0
030300
00FC00
ENDCHAR
STARTCHAR 32DB
ENCODING 13019
SWIDTH 1000 0
DWIDTH 24 0
BBX 22 22 1 -2
BITMAP
01FC00
070300
1C00C0
100020
21C010
60E010
406008
C02048
860064
8700E4
8380C4
800184
800304
800E04
401C08
407808
23E010
238010
100020
0C00C0
030300
00FC00
ENDCHAR
STARTCHAR 32DC
ENCODING 13020
SWIDTH 1000 0
DWIDTH 24 0
BBX 23 22 0 -2
BITMAP
00FE00
030180
0C0060
180030
33FF18
63FF88
400304
C00304
800602
800602
800C02
801C02
803E02
807302
40E1C4
41C0E4
270068
360018
180030
0C0060
030180
00FE00
ENDCHAR
STARTCHAR 32DD
ENCODING 13021
SWIDTH 1000 0
DWIDTH 24 0
BBX 22 23 1 -3
BITMAP
00FC00
070300
0C00C0
180060
318030
618010
418008
418088
81FFC4
9FF8C4
998184
818304
818604
818C04
818004
418008
41FF88
20FF90
300030
180060
0C00C0
030300
00FC00
ENDCHAR
STARTCHAR 32DE
ENCODING 13022
SWIDTH 1000 0
DWIDTH 24 0
BBX 22 22 1 -2
BITMAP
01FC00
070300
1C00C0
100020
200010
6600D0
4700C8
C301C8
838184
818184
800304
800304
800604
800E04
401C08
403808
20F010
21C010
100020
0C00C0
030300
00FC00
ENDCHAR
STARTCHAR 32DF
ENCODING 13023
SWIDTH 1000 0
DWIDTH 24 0
BBX 22 23 1 -2
BITMAP
00FC00
030300
0C00C0
182060
302030
206010
407F88
40FF88
80C184
818184
83C184
876304
8E3304
841E04
800C04
401C08
403808
207010
31E030
1B8060
0C00C0
030300
00FC00
ENDCHAR
STARTCHAR 32E0
ENCODING 13024
SWIDTH 1000 0
DWIDTH 24 0
BBX 23 23 0 -2
BITMAP
00FE00
030180
040060
080030
100198
203FC8
43FC04
400C04
800C02
800C02
8FFFF2
8FFFF2
800C02
800C02
801802
401804
403804
207008
31E018
188030
0C0060
030180
00FE00
ENDCHAR
STARTCHAR 32E1
ENCODING 13025
SWIDTH 1000 0
DWIDTH 24 0
BBX 22 22 1 -2
BITMAP
01FC00
070300
1C00C0
100020
202010
6460D0
4C60C8
CC30C8
863184
860184
800184
800304
800704
800E04
401C08
403808
20F010
21C010
110020
0C00C0
030300
00FC00
ENDCHAR
STARTCHAR 32E2
ENCODING 13026
SWIDTH 1000 0
DWIDTH 24 0
BBX 23 23 0 -3
BITMAP
00FE00
030180
0C0060
180030
31FF98
21FF88
400004
400004
800002
8FFFF2
8FFFF2
800802
801802
801802
801802
403004
407004
20E008
31C018
180030
0C0060
030180
00FE00
ENDCHAR
STARTCHAR 32E3
ENCODING 13027
SWIDTH 1000 0
DWIDTH 24 0
BBX 23 22 0 -2
BITMAP
00FE00
030180
0C0060
186030
306018
606008
406004
406004
806002
807802
806E02
806782
8061C2
806082
406004
406004
206008
306018
186030
0C0060
030180
00FE00
ENDCHAR
STARTCHAR 32E5
ENCODING 13029
SWIDTH 1000 0
DWIDTH 24 0
BBX 22 23 1 -3
BITMAP
00FC00
070300
0C00C0
180060
300030
200010
47FF88
47FF88
800004
800004
800004
800004
800004
800004
8FFFC4
4FFFC8
400008
200010
300030
180060
0C00C0
030300
00FC00
ENDCHAR
STARTCHAR 32E9
ENCODING 13033
SWIDTH 1000 0
DWIDTH 24 0
BBX 22 22 1 -2
BITMAP
01FC00
070300
1C00C0
100020
200010
600410
418E08
C18708
830304
830184
8701C4
8600C4
8E00E4
8C0064
5C0068
580008
200010
200010
100020
0C00C0
030300
00FC00
ENDCHAR
STARTCHAR 32EC
ENCODING 13036
SWIDTH 1000 0
DWIDTH 24 0
BBX 22 22 1 -2
BITMAP
01FC00
070300
1C00C0
100020
200010
600010
40C008
C1E008
83B004
871804
8E0E04
9C0704
B80384
9001E4
4000E8
400008
200010
200010
100020
0C00C0
030300
00FC00
ENDCHAR
STARTCHAR 32ED
ENCODING 13037
SWIDTH 1000 0
DWIDTH 24 0
BBX 22 24 1 -3
BITMAP
00FC00
030300
0400C0
080060
103020
203010
403008
403008
8FFFC8
8FFFC4
803004
803104
833304
833184
8631C4
C630C8
4C30E8
4C3048
21F010
31F030
180060
0C00C0
030300
00FC00
ENDCHAR
STARTCHAR 32FA
ENCODING 13050
SWIDTH 1000 0
DWIDTH 24 0
BBX 22 22 1 -2
BITMAP
00FC00
070300
0C00C0
100020
200010
67FF90
47FF88
C60188
860184
860184
860184
860184
860184
860184
47FF88
47FF88
260190
200010
100020
0C00C0
030300
00FC00
ENDCHAR
STARTCHAR 3303
ENCODING 13059
SWIDTH 1000 0
DWIDTH 24 0
BBX 20 20 2 -2
BITMAP
FFC000
008000
098000
090000
0B3FF0
0E3FF0
100000
100000
200000
600000
000000
240000
240000
240000
242000
246000
64C000
458000
C70000
860000
ENDCHAR
STARTCHAR 330D
ENCODING 13069
SWIDTH 1000 0
DWIDTH 24 0
BBX 20 22 2 -3
BITMAP
180000
100FF0
FF8810
118810
118810
318810
218810
610810
4F0FF0
8F0810
000000
020000
420000
420000
420000
421FF0
421FF0
420000
040000
040000
180000
300000
ENDCHAR
STARTCHAR 3314
ENCODING 13076
SWIDTH 1000 0
DWIDTH 24 0
BBX 20 20 2 0
BITMAP
080000
0C0000
0FC000
FF0000
840000
046000
3FE000
FE0000
060000
020000
021FF0
021010
001010
001010
001010
001010
001010
001010
001FF0
001010
ENDCHAR
STARTCHAR 3318
ENCODING 13080
SWIDTH 1000 0
DWIDTH 24 0
BBX 21 21 1 -1
BITMAP
002000
18C7F0
188000
3F0000
610FF8
C30018
820010
060030
0C0060
3801C0
600380
000000
080000
080000
180000
180000
130000
318000
20C000
27C000
FE6000
ENDCHAR
ENDFONT
